<svg xmlns="http://www.w3.org/2000/svg" xmlns:xlink="http://www.w3.org/1999/xlink" version="1.1" viewBox="0 0 16 16"><defs><clipPath id="master_svg0_244_31980"><rect x="0" y="0" width="16" height="16" rx="0"/></clipPath></defs><g clip-path="url(#master_svg0_244_31980)"><g><rect x="0" y="0" width="16" height="16" rx="0" fill="#FFFFFF" fill-opacity="0"/></g><g><path d="M2.33349609375,14.65L14.33349609375,14.65Q14.39749609375,14.65,14.46029609375,14.63751Q14.52309609375,14.625021,14.58219609375,14.600522Q14.64139609375,14.576022,14.69459609375,14.540455Q14.74779609375,14.504888,14.79309609375,14.459619Q14.83839609375,14.414351,14.87399609375,14.361121Q14.90949609375,14.30789,14.93399609375,14.248744Q14.95849609375,14.189598,14.97099609375,14.126809Q14.98349609375,14.0640194,14.98349609375,14Q14.98349609375,13.9359806,14.97099609375,13.873191Q14.95849609375,13.810402,14.93399609375,13.751256Q14.90949609375,13.69211,14.87399609375,13.638879Q14.83839609375,13.585649,14.79309609375,13.540381Q14.74779609375,13.495112,14.69459609375,13.459545Q14.64139609375,13.423978,14.58219609375,13.399478Q14.52309609375,13.374979,14.46029609375,13.36249Q14.39749609375,13.35,14.33349609375,13.35L2.33349609375,13.35Q2.26947669375,13.35,2.20668709375,13.36249Q2.14389809375,13.374979,2.08475209375,13.399478Q2.02560609375,13.423978,1.97237509375,13.459545Q1.91914509375,13.495112,1.87387709375,13.540381Q1.82860809375,13.585649,1.7930410937499999,13.638879Q1.75747409375,13.69211,1.73297409375,13.751256Q1.70847509375,13.810402,1.69598609375,13.873191Q1.68349609375,13.9359806,1.68349609375,14Q1.68349609375,14.0640194,1.69598609375,14.126809Q1.70847509375,14.189598,1.73297409375,14.248744Q1.75747409375,14.30789,1.7930410937499999,14.361121Q1.82860809375,14.414351,1.87387709375,14.459619Q1.91914509375,14.504888,1.97237509375,14.540455Q2.02560609375,14.576022,2.08475209375,14.600522Q2.14389809375,14.625021,2.20668709375,14.63751Q2.26947669375,14.65,2.33349609375,14.65Z" fill-rule="evenodd" fill-opacity="1"/></g><g><path d="M10.10535390625,1.54028L10.104973906249999,1.540656L3.20660890625,8.447289999999999Q3.11531190625,8.5387,3.06590790625,8.65807Q3.01650390625,8.77744,3.01650390625,8.90663L3.01650390625,11.33333Q3.01650390625,11.39735,3.02899390625,11.46014Q3.0414829062499997,11.52293,3.06598190625,11.58208Q3.09048190625,11.64122,3.12604890625,11.69445Q3.1616159062499998,11.74768,3.20688490625,11.79295Q3.25215290625,11.83822,3.30538290625,11.87379Q3.35861390625,11.90935,3.41775990625,11.93385Q3.47690590625,11.95835,3.53969490625,11.97084Q3.60248450625,11.98333,3.66650390625,11.98333L6.10557390625,11.98333Q6.2349039062500005,11.98333,6.35438390625,11.93383Q6.47386390625,11.88432,6.56529390625,11.79285L13.45955390625,4.89555Q13.50480390625,4.85029,13.54035390625,4.79706Q13.57590390625,4.7438400000000005,13.60038390625,4.68471Q13.62487390625,4.625579999999999,13.63735390625,4.56281Q13.64983390625,4.500030000000001,13.64983390625,4.436030000000001Q13.64983390625,4.3720300000000005,13.63735390625,4.30926Q13.62487390625,4.24649,13.60038390625,4.18735Q13.57590390625,4.12822,13.54035390625,4.075Q13.50480390625,4.02178,13.45955390625,3.97651L11.02459390625,1.540481Q10.97933390625,1.495203,10.92611390625,1.459624Q10.87288390625,1.424045,10.81374390625,1.399533Q10.75460390625,1.375021,10.691813906250001,1.362517Q10.629033906250001,1.350014,10.56501390625,1.35Q10.500993906249999,1.349986,10.43820390625,1.3624619999999998Q10.37540390625,1.374938,10.316253906250001,1.399424Q10.25710390625,1.42391,10.20386390625,1.459466Q10.15063390625,1.495021,10.10535390625,1.54028ZM10.56504390625,2.919615L4.31650390625,9.17564L4.31650390625,10.68333L5.83624390625,10.68333L12.08080390625,4.436030000000001L10.56504390625,2.919615Z" fill-rule="evenodd" fill-opacity="1"/></g></g></svg>