<svg xmlns="http://www.w3.org/2000/svg" xmlns:xlink="http://www.w3.org/1999/xlink" version="1.1" viewBox="0 0 16 16"><defs><clipPath id="master_svg0_525_28177"><rect x="0" y="0" width="16" height="16" rx="0"/></clipPath><clipPath id="master_svg1_525_28181"><rect x="2" y="2" width="12" height="12" rx="0"/></clipPath></defs><g clip-path="url(#master_svg0_525_28177)"><g><rect x="0" y="0" width="16" height="16" rx="0" fill="#FFFFFF" fill-opacity="0.009999999776482582"/></g><g><g><ellipse cx="8" cy="8" rx="7" ry="7" fill-opacity="1"/></g><g clip-path="url(#master_svg1_525_28181)"><g><path d="M7.4990234375,3.88720703125L8.4678454375,3.88720703125L8.4678454375,8.73274703125L7.4990234375,8.73274703125L7.4990234375,3.88720703125Z" fill="#FFFFFF" fill-opacity="1"/></g><g><path d="M10.21224359375,5.050537109375L9.53438359375,5.729024109375C10.308723593749999,6.261367109375,10.89002359375,7.182637109374999,10.89002359375,8.247937109375C10.89002359375,9.847087109375,9.58197359375,11.155067109375,7.98288359375,11.155067109375C6.38452359375,11.155067109375,5.0757435937499995,9.847077109375,5.0757435937499995,8.247937109375C5.0757435937499995,7.182637109374999,5.6577635937499995,6.261367109375,6.48109359375,5.777352109375L5.75429359375,5.050549268675C4.78473759375,5.777352109375,4.10693359375,6.939917109375,4.10693359375,8.247947109375C4.10693359375,10.380787109375,5.85149359375,12.124627109375,7.98288359375,12.124627109375C10.11500359375,12.124627109375,11.85955359375,10.380797109374999,11.85955359375,8.247947109375C11.85955359375,6.9399071093749995,11.181003593749999,5.777339109375,10.21224359375,5.050537109375Z" fill="#FFFFFF" fill-opacity="1"/></g></g></g></g></svg>