<svg xmlns="http://www.w3.org/2000/svg" xmlns:xlink="http://www.w3.org/1999/xlink" version="1.1" viewBox="0 0 16 16"><defs><clipPath id="master_svg0_244_31989"><rect x="0" y="0" width="16" height="16" rx="0"/></clipPath></defs><g clip-path="url(#master_svg0_244_31989)"><g><rect x="0" y="0" width="16" height="16" rx="0" fill="#FFFFFF" fill-opacity="0"/></g><g><g><ellipse cx="8" cy="8" rx="6" ry="6" fill="#1D2129" fill-opacity="1"/></g><g><path d="M6.9391644649505615,8.000990085830688L5.878334464950561,9.06182008583069C5.585441064950562,9.354720085830689,5.585441064950562,9.829590085830688,5.878334464950561,10.122480085830688C6.171227464950562,10.415380085830687,6.646101464950561,10.415380085830687,6.938994464950562,10.122480085830688L7.999824464950562,9.061650085830689L9.060484464950562,10.122310085830689C9.353384464950562,10.415200085830689,9.828254464950561,10.415200085830689,10.12114446495056,10.122310085830689C10.41404446495056,9.829420085830687,10.41404446495056,9.354540085830688,10.12114446495056,9.061650085830689L9.060484464950562,8.000990085830688L10.120974464950562,6.9405000858306884C10.413864464950562,6.647609085830688,10.413864464950562,6.172736085830689,10.120974464950562,5.879842085830688C9.82808446495056,5.586949385830689,9.353204464950561,5.586949385830689,9.060314464950562,5.879842085830688L7.999824464950562,6.940330085830689L6.9391644649505615,5.879670085830688C6.646274464950562,5.586776685830689,6.171400464950562,5.586776685830689,5.8785074649505615,5.879670085830688C5.585613764950562,6.172563085830689,5.585613764950562,6.647437085830688,5.878506464950561,6.940330085830689L6.9391644649505615,8.000990085830688Z" fill-rule="evenodd" fill="#FFFFFF" fill-opacity="1"/></g></g></g></svg>