<svg xmlns="http://www.w3.org/2000/svg" xmlns:xlink="http://www.w3.org/1999/xlink" version="1.1" viewBox="0 0 16 16"><defs><clipPath id="master_svg0_244_31971"><rect x="0" y="0" width="16" height="16" rx="0"/></clipPath></defs><g clip-path="url(#master_svg0_244_31971)"><g><rect x="0" y="0" width="16" height="16" rx="0" fill="#FFFFFF" fill-opacity="0"/></g><g><path d="M2.66650390625,12.6499259765625L13.33330390625,12.6499259765625Q13.39730390625,12.6499259765625,13.46010390625,12.6374259765625Q13.52290390625,12.6250259765625,13.58200390625,12.6005259765625Q13.64120390625,12.5760259765625,13.69440390625,12.5404259765625Q13.74760390625,12.5048259765625,13.79290390625,12.4596259765625Q13.83820390625,12.4143259765625,13.87370390625,12.3611259765625Q13.90930390625,12.3078259765625,13.93380390625,12.2487259765625Q13.95830390625,12.1895259765625,13.97080390625,12.1267259765625Q13.98330390625,12.0640259765625,13.98330390625,11.9999259765625L13.98330390625,9.347495976562499Q13.98330390625,8.940205976562499,13.69530390625,8.6521859765625Q13.40720390625,8.3641559765625,12.99990390625,8.3641559765625L10.07099390625,8.3641559765625Q10.07008390625,8.2481759765625,10.07008390625,8.093025976562501Q10.07008390625,8.0358059765625,10.41313390625,7.6684659765625Q10.98677390625,7.0542059765625,11.24455390625,6.5674359765625Q11.69538390625,5.7161259765625,11.69538390625,4.6175559765625Q11.69538390625,2.7398759765625,10.51258390625,1.7818339765625Q9.56785390625,1.0166259765625,8.106513906250001,1.0166259765625Q6.63215390625,1.0166259765625,5.63745390625,1.7683639765625Q4.35721390625,2.7358859765625,4.35721390625,4.6175559765625Q4.35721390625,5.7577359765625,4.84173390625,6.6650959765625Q5.11546390625,7.1777159765625,5.70888390625,7.8178859765625Q5.92172390625,8.0474959765625,5.97805390625,8.1277259765625Q5.98566390625,8.1385659765625,5.99104390625,8.146755976562499Q5.9908139062500005,8.2708159765625,5.98923390625,8.3641559765625L3.00086090625,8.3641559765625Q2.59412810625,8.364605976562501,2.30641590625,8.6521559765625Q2.01870490625,8.9397059765625,2.01804090625,9.347115976562499L2.01650390625,11.9996259765625L2.01650390625,11.9999259765625Q2.01650390625,12.0640259765625,2.02899390625,12.1267259765625Q2.0414829062499997,12.1895259765625,2.06598190625,12.2487259765625Q2.09048190625,12.3078259765625,2.12604890625,12.3611259765625Q2.1616159062499998,12.4143259765625,2.20688490625,12.4596259765625Q2.25215290625,12.5048259765625,2.30538290625,12.5404259765625Q2.35861390625,12.5760259765625,2.41775990625,12.6005259765625Q2.47690590625,12.6250259765625,2.53969490625,12.6374259765625Q2.60248450625,12.6499259765625,2.66650390625,12.6499259765625ZM12.68330390625,11.3499559765625L3.3168809062499998,11.3499559765625L3.31785690625,9.664155976562501L6.3355039062500005,9.664155976562501L6.33555390625,9.664155976562501Q7.05045390625,9.664155976562501,7.23216390625,8.9620659765625Q7.29109390625,8.7343859765625,7.29108390625,8.103255976562501L7.29108390625,8.093025976562501Q7.29108390625,7.6124759765625,6.66227390625,6.9341259765625Q6.18307390625,6.4171659765625,5.98848390625,6.0527559765625Q5.65721390625,5.4323859765625,5.65721390625,4.6175559765625Q5.65721390625,3.3829159765625,6.42125390625,2.8054959765625Q7.06813390625,2.3166259765625,8.106513906250001,2.3166259765625Q10.39538390625,2.3166259765625,10.39538390625,4.6175559765625Q10.39538390625,5.3931559765625,10.09570390625,5.9590359765625Q9.91876390625,6.2931559765625,9.46301390625,6.7811759765625Q8.770083906250001,7.5231759765625,8.770083906250001,8.093025976562501Q8.770083906250001,8.8219259765625,8.823163906249999,9.0279459765625Q8.987103906249999,9.664155976562501,9.68028390625,9.664155976562501L12.68330390625,9.664155976562501L12.68330390625,11.3499559765625Z" fill-rule="evenodd" fill-opacity="1"/></g><g><path d="M2.666748046875,14.65L13.333448046875,14.65Q13.397448046875,14.65,13.460248046875,14.63751Q13.523048046875,14.625021,13.582148046875,14.600522Q13.641348046875,14.576022,13.694548046875,14.540455Q13.747748046875,14.504888,13.793048046875,14.459619Q13.838348046875,14.414351,13.873848046875,14.361121Q13.909448046875,14.30789,13.933948046875,14.248744Q13.958448046875,14.189598,13.970948046875,14.126809Q13.983448046875,14.0640194,13.983448046875,14Q13.983448046875,13.9359806,13.970948046875,13.873191Q13.958448046875,13.810402,13.933948046875,13.751256Q13.909448046875,13.69211,13.873848046875,13.638879Q13.838348046875,13.585649,13.793048046875,13.540381Q13.747748046875,13.495112,13.694548046875,13.459545Q13.641348046875,13.423978,13.582148046875,13.399478Q13.523048046875,13.374979,13.460248046875,13.36249Q13.397448046875,13.35,13.333448046875,13.35L2.666748046875,13.35Q2.602728646875,13.35,2.539939046875,13.36249Q2.477150046875,13.374979,2.418004046875,13.399478Q2.358858046875,13.423978,2.305627046875,13.459545Q2.252397046875,13.495112,2.207129046875,13.540381Q2.1618600468749998,13.585649,2.126293046875,13.638879Q2.090726046875,13.69211,2.066226046875,13.751256Q2.0417270468749997,13.810402,2.029238046875,13.873191Q2.016748046875,13.9359806,2.016748046875,14Q2.016748046875,14.0640194,2.029238046875,14.126809Q2.0417270468749997,14.189598,2.066226046875,14.248744Q2.090726046875,14.30789,2.126293046875,14.361121Q2.1618600468749998,14.414351,2.207129046875,14.459619Q2.252397046875,14.504888,2.305627046875,14.540455Q2.358858046875,14.576022,2.418004046875,14.600522Q2.477150046875,14.625021,2.539939046875,14.63751Q2.602728646875,14.65,2.666748046875,14.65Z" fill-rule="evenodd" fill-opacity="1"/></g></g></svg>