<svg xmlns="http://www.w3.org/2000/svg" xmlns:xlink="http://www.w3.org/1999/xlink" version="1.1" viewBox="0 0 16 16"><defs><clipPath id="master_svg0_525_28184"><rect x="0" y="0" width="16" height="16" rx="0"/></clipPath><clipPath id="master_svg1_525_28188"><rect x="4" y="4" width="8" height="8" rx="0"/></clipPath></defs><g clip-path="url(#master_svg0_525_28184)"><g><rect x="0" y="0" width="16" height="16" rx="0" fill="#FFFFFF" fill-opacity="0.009999999776482582"/></g><g><ellipse cx="8" cy="8" rx="7" ry="7" fill-opacity="1"/></g><g clip-path="url(#master_svg1_525_28188)"><g><path d="M5.166748046875,11.5L11.166748046875,11.5Q11.215998046875,11.5,11.264298046875,11.490393Q11.312588046875,11.480785000000001,11.358088046875,11.46194Q11.403588046875,11.443094,11.444528046875,11.415735Q11.485478046875,11.388375,11.520298046875,11.353553Q11.555118046875,11.318731,11.582478046875,11.277785Q11.609838046875,11.236839,11.628688046875,11.191342Q11.647528046875,11.145845,11.657138046875,11.0975451Q11.666748046875,11.0492457,11.666748046875,11Q11.666748046875,10.9507543,11.657138046875,10.9024549Q11.647528046875,10.854155,11.628688046875,10.808658Q11.609838046875,10.763161,11.582478046875,10.722215Q11.555118046875,10.681269,11.520298046875,10.646447Q11.485478046875,10.611625,11.444528046875,10.584265Q11.403588046875,10.556906,11.358088046875,10.53806Q11.312588046875,10.519214999999999,11.264298046875,10.509607Q11.215998046875,10.5,11.166748046875,10.5L5.166748046875,10.5Q5.117502346875,10.5,5.069202946875,10.509607Q5.020903046875,10.519214999999999,4.975406046875,10.53806Q4.929909046875,10.556906,4.888963046875,10.584265Q4.848017046875,10.611625,4.813195046875,10.646447Q4.778373046875,10.681269,4.751013046875,10.722215Q4.723654046875,10.763161,4.704808046875,10.808658Q4.685963046875,10.854155,4.676355046875,10.9024549Q4.666748046875,10.9507543,4.666748046875,11Q4.666748046875,11.0492457,4.676355046875,11.0975451Q4.685963046875,11.145845,4.704808046875,11.191342Q4.723654046875,11.236839,4.751013046875,11.277785Q4.778373046875,11.318731,4.813195046875,11.353553Q4.848017046875,11.388375,4.888963046875,11.415735Q4.929909046875,11.443094,4.975406046875,11.46194Q5.020903046875,11.480785000000001,5.069202946875,11.490393Q5.117502346875,11.5,5.166748046875,11.5Z" fill-rule="evenodd" fill="#FFFFFF" fill-opacity="1"/></g><g><path d="M8.928961953125,4.646369L8.928671953125,4.646658L5.479486953125,8.09998Q5.409257953125,8.17029,5.371254953125,8.26211Q5.333251953125,8.35394,5.333251953125,8.45332L5.333251953125,9.66667Q5.333251953125,9.715910000000001,5.342858953125,9.76421Q5.352466953125,9.81251,5.371311953125,9.85801Q5.390157953125,9.90351,5.417516953125,9.94445Q5.444876953125,9.9854,5.479698953125,10.02022Q5.514520953125,10.05504,5.555466953125,10.0824Q5.596412953125,10.10976,5.641909953125,10.12861Q5.687406953125,10.14745,5.735706853125,10.157060000000001Q5.784006253125,10.16667,5.833251953125,10.16667L7.052781953125,10.16667Q7.152271953125,10.16667,7.2441819531250005,10.128589999999999Q7.336081953125,10.090499999999999,7.406411953125,10.02014L10.853551953124999,6.57149Q10.888351953125,6.53667,10.915701953125,6.49573Q10.943041953125,6.45479,10.961881953125001,6.40931Q10.980711953124999,6.3638200000000005,10.990321953125001,6.31553Q10.999921953125,6.26725,10.999921953125,6.21802Q10.999921953125,6.16878,10.990321953125001,6.1205Q10.980711953124999,6.07221,10.961881953125001,6.02673Q10.943041953125,5.981239,10.915701953125,5.9403Q10.888351953125,5.89936,10.853551953124999,5.864541L9.636061953125001,4.646524Q9.601251953125,4.611694,9.560311953125,4.584326Q9.519371953124999,4.556958,9.473881953125,4.538102Q9.428381953125001,4.519247,9.380091953125,4.509629Q9.331791953125,4.500011,9.282541953125,4.5Q9.233301953125,4.499989,9.185001953125,4.509586Q9.136691953125,4.519183,9.091191953125,4.538018Q9.045691953125,4.556854,9.004741953125,4.584204Q8.963791953125,4.611555,8.928961953125,4.646369ZM9.282571953125,5.707396L6.333251953125,8.66025L6.333251953125,9.16667L6.845611953125,9.16667L9.792971953125,6.21802L9.282571953125,5.707396Z" fill-rule="evenodd" fill="#FFFFFF" fill-opacity="1"/></g></g></g></svg>