<svg xmlns="http://www.w3.org/2000/svg" xmlns:xlink="http://www.w3.org/1999/xlink" version="1.1" viewBox="0 0 16 16"><defs><clipPath id="master_svg0_525_28165"><rect x="0" y="0" width="16" height="16" rx="0"/></clipPath></defs><g clip-path="url(#master_svg0_525_28165)"><g><rect x="0" y="0" width="16" height="16" rx="0" fill="#FFFFFF" fill-opacity="0.009999999776482582"/></g><g><g><ellipse cx="8" cy="8" rx="7" ry="7" fill-opacity="1"/></g><g><g><ellipse cx="8" cy="8" rx="3.5" ry="3.5" fill-opacity="0" stroke-opacity="1" stroke="#FFFFFF" stroke-width="1"/></g><g><path d="M7.5625,8.9375L9.3125,8.9375Q9.36175,8.9375,9.41004,8.92789Q9.45834,8.91828,9.50384,8.89944Q9.54934,8.88059,9.59028,8.85323Q9.63123,8.82587,9.66605,8.79105Q9.70087,8.75623,9.72823,8.71528Q9.75559,8.67434,9.77444,8.62884Q9.79328,8.58334,9.80289,8.53504Q9.8125,8.48675,9.8125,8.4375Q9.8125,8.38825,9.80289,8.33995Q9.79328,8.29166,9.77444,8.24616Q9.75559,8.20066,9.72823,8.15971Q9.70087,8.11877,9.66605,8.08395Q9.63123,8.04912,9.59028,8.02176Q9.54934,7.99441,9.50384,7.97556Q9.45834,7.95671,9.41004,7.94711Q9.36175,7.9375,9.3125,7.9375L8.0625,7.9375L8.0625,6.6875Q8.0625,6.6382543,8.052893,6.5899549Q8.043285000000001,6.541655,8.02444,6.496158Q8.005594,6.450661,7.978235,6.409715Q7.950875,6.368769,7.916053,6.333947Q7.881231,6.299125,7.840285,6.271765Q7.799339,6.244406,7.753842,6.22556Q7.708345,6.206715,7.6600451,6.197107Q7.6117457,6.1875,7.5625,6.1875Q7.5132543,6.1875,7.4649549,6.197107Q7.416655,6.206715,7.371158,6.22556Q7.325661,6.244406,7.284715,6.271765Q7.243769,6.299125,7.208947,6.333947Q7.174125,6.368769,7.146765,6.409715Q7.119406,6.450661,7.10056,6.496158Q7.081715,6.541655,7.072107,6.5899549Q7.0625,6.6382543,7.0625,6.6875L7.0625,8.4375Q7.0625,8.48675,7.072107,8.53504Q7.081715,8.58334,7.10056,8.62884Q7.119406,8.67434,7.146765,8.71528Q7.174125,8.75623,7.208947,8.79105Q7.243769,8.82587,7.284715,8.85323Q7.325661,8.88059,7.371158,8.89944Q7.416655,8.91828,7.4649549,8.92789Q7.5132543,8.9375,7.5625,8.9375Z" fill-rule="evenodd" fill="#FFFFFF" fill-opacity="1"/></g></g></g></g></svg>