<svg xmlns="http://www.w3.org/2000/svg" xmlns:xlink="http://www.w3.org/1999/xlink" fill="none" version="1.1" width="16" height="16" viewBox="0 0 16 16"><defs><clipPath id="master_svg0_1377_44466"><rect x="0" y="0" width="16" height="16" rx="0"/></clipPath></defs><g clip-path="url(#master_svg0_1377_44466)"><g><rect x="0" y="0" width="16" height="16" rx="0" fill="#FFFFFF" fill-opacity="0.009999999776482582"/></g><g><path d="M13.17361298828125,2.8263339691162113Q11.03064298828125,0.6833339691162109,7.99998298828125,0.6833339691162109Q4.96931298828125,0.6833339691162109,2.8263129882812503,2.8263339691162113Q0.68331298828125,4.969333969116211,0.68331298828125,8.00000396911621L0.68331298828125,14.66663396911621Q0.68331298828125,14.73073396911621,0.69580298828125,14.793433969116212Q0.70829198828125,14.85623396911621,0.73279098828125,14.915433969116211Q0.75729098828125,14.97453396911621,0.79285798828125,15.02783396911621Q0.82842498828125,15.081033969116211,0.87369398828125,15.12633396911621Q0.91896198828125,15.171533969116211,0.97219198828125,15.20713396911621Q1.02542298828125,15.24273396911621,1.08456898828125,15.26723396911621Q1.14371498828125,15.29173396911621,1.20650398828125,15.304133969116211Q1.26929358828125,15.31663396911621,1.33331298828125,15.31663396911621L7.99998298828125,15.31663396911621Q11.03064298828125,15.31663396911621,13.17361298828125,13.17363396911621Q15.31661298828125,11.03066396911621,15.31661298828125,8.00000396911621Q15.31661298828125,4.969333969116211,13.17361298828125,2.8263339691162113ZM3.74555298828125,3.745573969116211Q5.50779298828125,1.9833339691162108,7.99998298828125,1.983332969116211Q10.49216298828125,1.9833339691162108,12.25441298828125,3.745573969116211Q14.01661298828125,5.507813969116211,14.01661298828125,8.00000396911621Q14.01661298828125,10.49218396911621,12.25441298828125,12.25443396911621Q10.49216298828125,14.01663396911621,7.99998298828125,14.01663396911621L1.98331298828125,14.01663396911621L1.98331298828125,8.00000396911621Q1.98331298828125,5.507813969116211,3.74555298828125,3.745573969116211Z" fill-rule="evenodd" fill="#005BD9" fill-opacity="1"/></g><g><path d="M7.12633701171875,11.126283969116212L11.45967701171875,6.792952969116211Q11.551097011718749,6.701528969116211,11.60057701171875,6.582077969116211Q11.65005701171875,6.462626969116211,11.65005701171875,6.333333969116211Q11.65005701171875,6.204040969116211,11.60057701171875,6.084589969116211Q11.551097011718749,5.965138969116211,11.45967701171875,5.873714969116211Q11.36824701171875,5.782290969116211,11.24879701171875,5.732811969116211Q11.12934701171875,5.683333969116211,11.00005701171875,5.683333969116211Q10.87075701171875,5.683333969116211,10.751307011718751,5.732811969116211Q10.63185701171875,5.782290969116211,10.540437011718751,5.873714969116211L6.666717011718751,9.74743396911621L5.1263030117187505,8.20704396911621Q5.03487801171875,8.11562396911621,4.91542601171875,8.066143969116212Q4.79597501171875,8.01666396911621,4.66668161691875,8.01666396911621Q4.53739001171875,8.01666396911621,4.41793901171875,8.066143969116212Q4.29848801171875,8.11562396911621,4.20706401171875,8.207053969116211Q4.11564201171875,8.29847396911621,4.06616401171875,8.417923969116211Q4.01668701171875,8.53737396911621,4.01668701171875,8.666663969116211Q4.01668801171875,8.795963969116212,4.06616701171875,8.91541396911621Q4.11564701171875,9.034863969116211,4.2070710117187495,9.126293969116212L6.20710701171875,11.126293969116212Q6.25237701171875,11.17155396911621,6.30560701171875,11.20712396911621Q6.35883701171875,11.24269396911621,6.41797701171875,11.26719396911621Q6.47712701171875,11.29169396911621,6.5399170117187495,11.304183969116211Q6.60270701171875,11.31666396911621,6.66672701171875,11.31666396911621Q6.73073701171875,11.31666396911621,6.79352701171875,11.30417396911621Q6.85631701171875,11.29168396911621,6.91546701171875,11.26719396911621Q6.97460701171875,11.24269396911621,7.02783701171875,11.20712396911621Q7.0810670117187495,11.17155396911621,7.12633701171875,11.126283969116212Z" fill-rule="evenodd" fill="#005BD9" fill-opacity="1"/></g></g></svg>