<svg xmlns="http://www.w3.org/2000/svg" xmlns:xlink="http://www.w3.org/1999/xlink" version="1.1" viewBox="0 0 24 24"><defs><clipPath id="master_svg0_304_63294"><rect x="0" y="0" width="24" height="24" rx="0"/></clipPath></defs><g clip-path="url(#master_svg0_304_63294)"><g style="opacity:0;"><rect x="1.384521484375" y="0.470703125" width="22.153846740722656" height="22.58823585510254" rx="0" fill="#FFFFFF" fill-opacity="1"/></g><g><path d="M16.446144140625,2.3589366875Q15.084274140625,2.0107546875,13.693734140625,2.2220916875Q13.497080140625,2.2519796875,13.326834140625,2.3548496875Q13.156587140625,2.4577196875,13.038666140625,2.6179086875Q12.943821140625,2.7467506875,12.893908140625,2.8987516875Q12.843994140625,3.0507519875,12.843994140625,3.2107381875L12.844009140625,3.2162411875Q12.844410140625,3.2890316875,12.855347140625,3.3609976875Q12.868718140624999,3.4489686875,12.897411140625,3.5331976875Q12.926104140625,3.6174256875,12.969218140625,3.6952646875Q13.012332140625,3.7731036875,13.068512140625,3.8421076875Q13.124692140625,3.9111116875,13.192173140625,3.9691116875Q13.259655140625,4.0271116875,13.336316140625,4.0722856875Q13.412978140625,4.1174596875,13.496412140625,4.1483846875Q13.579845140625,4.1793146875,13.667429140625,4.1950246875Q13.755012540625,4.2107346875000005,13.843994140625,4.2107346875000005L13.847059720625,4.2107346875000005Q13.921076740625,4.2105046875,13.994254140625,4.1993846875Q14.982804140625,4.0491396875,15.950744140625,4.2966146875Q17.282844140625,4.6371946875,18.262044140625,5.6355846875Q19.245164140625,6.6379846874999995,19.581614140625,8.0062146875Q19.826774140624998,9.0030346875,19.678284140625,10.0212946875L19.678154140625,10.0221946875L19.677994140625,10.023314687500001Q19.667474140625,10.0952646875,19.667474140625,10.167984687499999Q19.667474140625,10.186884687500001,19.668184140625,10.2057846875Q19.671474140625,10.2926746875,19.689704140625,10.3776946875Q19.707944140625,10.4627246875,19.740584140625,10.5433146875Q19.773224140625,10.623914687500001,19.819284140625,10.697674687500001Q19.865334140625002,10.7714246875,19.923434140624998,10.8361246875Q19.981534140625,10.9008246875,20.049934140625,10.954524687500001Q20.118324140625,11.0082246875,20.194964140625,11.0493146875Q20.271604140625,11.0903946875,20.354184140625,11.1176446875Q20.436764140625,11.1448846875,20.522804140625,11.1574646875Q20.594754140625,11.1679846875,20.667474140625,11.1679846875L20.667624140625,11.1679846875Q20.829014140625,11.1679646875,20.982214140625,11.1171646875Q21.135404140625,11.0663646875,21.264844140625,10.9699446875Q21.424364140625002,10.8511246875,21.526264140625,10.6802946875Q21.628174140625,10.5094746875,21.656954140625,10.3126546875L21.657014140625,10.3122346875Q21.862524140625,8.9060546875,21.523754140625,7.5286346875Q21.056524140625,5.6285746875000005,19.689914140625,4.2351646875Q18.319524140625,2.8379076875,16.446144140625,2.3589366875Z" fill-rule="evenodd" fill-opacity="1"/></g><g><path d="M17.09766671875,6.6746255625Q15.75260671875,5.3032915625,13.86486971875,5.5902145625Q13.77689871875,5.6035855625,13.69267171875,5.6322785625Q13.60844371875,5.6609715625,13.53060471875,5.7040855624999995Q13.45276671875,5.7472005625,13.38376371875,5.8033805625Q13.31476071875,5.8595605625000005,13.256761718749999,5.9270415625Q13.19876171875,5.9945225625,13.15358771875,6.0711845625Q13.10841471875,6.1478455625,13.07748671875,6.2312795625Q13.04655871875,6.3147125625,13.03084771875,6.4022955625Q13.01513671875,6.4898785625,13.01513671875,6.5788596625L13.01514171875,6.5819325625Q13.01536871875,6.6559495625,13.02649171875,6.7291265625Q13.05638071875,6.9257805625,13.15925171875,7.0960265625Q13.26212271875,7.2662725625,13.42231371875,7.3841925625Q13.55115371875,7.4790345625,13.70315271875,7.5289475625Q13.85515271875,7.5788615625,14.01513671875,7.5788615625L14.02064691875,7.5788415625Q14.09343791875,7.5784415625,14.16540371875,7.5675015625Q15.041386718750001,7.4343625625000005,15.66983671875,8.075091562499999Q16.30917671875,8.7269615625,16.17491671875,9.6452515625Q16.164396718749998,9.7172015625,16.164396718749998,9.7899215625L16.164396718749998,9.7900715625Q16.16442671875,9.9514715625,16.21522671875,10.1046615625Q16.26602671875,10.2578615625,16.36243671875,10.3872915625Q16.48126671875,10.5468115625,16.65208671875,10.6487215625Q16.82291671875,10.750621562500001,17.01973671875,10.7794015625Q17.09168671875,10.7899215625,17.164396718749998,10.7899215625Q17.18330671875,10.7899215625,17.20219671875,10.7892015625Q17.28909671875,10.7859215625,17.37411671875,10.7676815625Q17.45913671875,10.7494415625,17.53973671875,10.716801562499999Q17.62033671875,10.684171562500001,17.69409671875,10.6381115625Q17.76784671875,10.5920515625,17.83254671875,10.5339515625Q17.89724671875,10.4758515625,17.95094671875,10.4074515625Q18.00464671875,10.3390615625,18.04572671875,10.2624215625Q18.08681671875,10.1857815625,18.11405671875,10.1032015625Q18.14129671875,10.0206215625,18.15387671875,9.9345815625Q18.43163671875,8.0347515625,17.09766671875,6.6746255625Z" fill-rule="evenodd" fill-opacity="1"/></g><g><path d="M8.019620781250001,3.609375L5.67837078125,3.609375Q4.27558978125,3.609375,3.4492557812499998,4.721724Q2.60904078125,5.852755,3.05652378125,7.204945Q4.98763078125,13.040345,7.84899078125,15.957775Q10.71315078125,18.878075000000003,16.44345078125,20.849575Q17.79565078125,21.314775,18.92255078125,20.444475Q20.00635078125,19.607475,20.00635078125,18.198675L20.00635078125,15.811175Q20.00635078125,14.674775,19.02495078125,14.118615L16.985250781250002,12.962375Q16.09145078125,12.455715,15.17655078125,12.922215L13.32829078125,13.864455Q12.20142078125,13.546155,11.235000781250001,12.560825000000001Q10.25549078125,11.562115,9.94000078125,10.386475L10.87215078125,8.485615Q11.31756078125,7.577475,10.83403078125,6.689344999999999L9.70488078125,4.61547768Q9.156980781249999,3.609375,8.019620781250001,3.609375ZM5.05473078125,5.914385Q5.28132078125,5.609375,5.67837078125,5.609375L7.96879078125,5.609375L9.066450781250001,7.625405000000001L7.98872078125,9.823135Q7.91716078125,9.969055,7.89550078125,10.130115Q7.87383078125,10.291174999999999,7.90428078125,10.450815Q8.27617078125,12.400265000000001,9.80712078125,13.961235Q11.34381078125,15.527975,13.26365078125,15.903475Q13.42822078125,15.935575,13.59429078125,15.912375Q13.76036078125,15.889075,13.90975078125,15.812975L16.04135078125,14.726275L18.00635078125,15.840175L18.00635078125,18.198675Q18.00635078125,18.625075000000002,17.70005078125,18.861575000000002Q17.42665078125,19.072775,17.09415078125,18.958375Q11.81036078125,17.140575,9.27689078125,14.557345Q6.7405307812499995,11.971315,4.95525078125,6.576595Q4.83430378125,6.2111149999999995,5.05473078125,5.914385Z" fill-rule="evenodd" fill-opacity="1"/></g></g></svg>