<svg xmlns="http://www.w3.org/2000/svg" xmlns:xlink="http://www.w3.org/1999/xlink" version="1.1" viewBox="0 0 24 24"><defs><clipPath id="master_svg0_304_63323"><rect x="0" y="0" width="24" height="24" rx="0"/></clipPath></defs><g clip-path="url(#master_svg0_304_63323)"><g style="opacity:0;"><rect x="0.941162109375" y="0" width="22.58823585510254" height="22.58823585510254" rx="0" fill="#FFFFFF" fill-opacity="1"/></g><g><path d="M8.176770937499999,3.609375L5.7896209375000005,3.609375Q4.3750179375,3.609375,3.5381279375,4.714267Q2.6778109375000003,5.850095,3.1368239375,7.210485Q5.1063209375,13.047385,8.0236309375,15.964675Q10.9409609375,18.882075,16.7778109375,20.851475Q18.1382109375,21.310475,19.2740109375,20.450175Q20.3789109375,19.613275,20.3789109375,18.198675L20.3789109375,15.811175Q20.3789109375,14.669275,19.3810109375,14.114555L17.3013109375,12.958325Q16.4060109375,12.460575,15.4899109375,12.918695L13.5933709375,13.866955Q12.4293509375,13.548875,11.434370937499999,12.553925Q10.4384509375,11.558005,10.116370937500001,10.388255000000001L11.0642009375,8.492535Q11.5219909375,7.5771049999999995,11.0252009375,6.682155L9.8739109375,4.60829338Q9.3192509375,3.609375,8.176770937499999,3.609375ZM5.1324109374999995,5.921845Q5.3690909375,5.609375,5.7896209375000005,5.609375L8.1421309375,5.609375L9.2615209375,7.625775L8.166290937500001,9.816275000000001Q8.092310937499999,9.964235,8.0699309375,10.128135Q8.047540937499999,10.292024999999999,8.0791209375,10.454405000000001Q8.4588909375,12.406875,10.0201609375,13.968135Q11.582490937500001,15.530375,13.5309509375,15.904075Q13.6927509375,15.935175,13.8559509375,15.912675Q14.0191109375,15.890175,14.1665109375,15.816475L16.3566109375,14.721375L18.378910937500002,15.845775L18.378910937500002,18.198675Q18.378910937500002,18.619175,18.0665109375,18.855874999999997Q17.7745109375,19.076974999999997,17.417310937499998,18.956474999999998Q12.0240709375,17.136675,9.4378609375,14.550455Q6.8516409375,11.964275,5.0318509375,6.571065Q4.9112989375,6.213775,5.1324109374999995,5.921845Z" fill-rule="evenodd" fill-opacity="1"/></g><g><path d="M13.292893,8.70711L15.792580000000001,11.20679L15.79289,11.20711Q15.93355,11.347760000000001,16.11732,11.42388Q16.30109,11.5,16.5,11.5Q16.69891,11.5,16.88268,11.42388Q17.06645,11.347760000000001,17.20711,11.20711Q17.34776,11.06645,17.42388,10.88268Q17.5,10.69891,17.5,10.5Q17.5,10.30109,17.42388,10.11732Q17.34776,9.93355,17.20711,9.79289L17.206789999999998,9.792580000000001L15.41421,8L17.20711,6.207107Q17.34776,6.066454,17.42388,5.882683Q17.5,5.698912,17.5,5.5Q17.5,5.301088,17.42388,5.117317Q17.34776,4.933546,17.20711,4.792893Q17.06645,4.652241,16.88268,4.5761199999999995Q16.69891,4.5,16.5,4.5Q16.30109,4.5,16.11732,4.5761199999999995Q15.93355,4.652241,15.79289,4.792893L13.292893,7.29289Q13.223249,7.36254,13.16853,7.4444300000000005Q13.113812,7.52632,13.076121,7.617319999999999Q13.03843,7.70831,13.019214999999999,7.80491Q13,7.90151,13,8Q13,8.09849,13.019214999999999,8.19509Q13.03843,8.29169,13.076121,8.38268Q13.113812,8.47368,13.16853,8.55557Q13.223249,8.63746,13.292893,8.70711Z" fill-rule="evenodd" fill-opacity="1"/></g><g><path d="M23,8L23,4Q23,3.9015086,22.98078,3.80491Q22.961570000000002,3.708311,22.92388,3.617317Q22.88619,3.526322,22.83147,3.44443Q22.77675,3.362537,22.70711,3.292893Q22.63746,3.223249,22.55557,3.16853Q22.47368,3.1138120000000002,22.38268,3.076121Q22.29169,3.03843,22.19509,3.019215Q22.098489999999998,3,22,3Q21.901510000000002,3,21.80491,3.019215Q21.70831,3.03843,21.61732,3.076121Q21.52632,3.1138120000000002,21.44443,3.16853Q21.36254,3.223249,21.29289,3.292893Q21.22325,3.362537,21.16853,3.44443Q21.11381,3.526322,21.07612,3.617317Q21.038429999999998,3.708311,21.01921,3.80491Q21,3.9015086,21,4L21,7L14,7Q13.9015086,7,13.80491,7.01921Q13.708311,7.03843,13.617317,7.0761199999999995Q13.526322,7.11381,13.44443,7.1685300000000005Q13.362537,7.22325,13.292893,7.29289Q13.223249,7.36254,13.16853,7.4444300000000005Q13.113812,7.52632,13.076121,7.617319999999999Q13.03843,7.70831,13.019214999999999,7.80491Q13,7.90151,13,8Q13,8.09849,13.019214999999999,8.19509Q13.03843,8.29169,13.076121,8.38268Q13.113812,8.47368,13.16853,8.55557Q13.223249,8.63746,13.292893,8.70711Q13.362537,8.77675,13.44443,8.83147Q13.526322,8.88619,13.617317,8.92388Q13.708311,8.96157,13.80491,8.98078Q13.9015086,9,14,9L22,9Q22.098489999999998,9,22.19509,8.98078Q22.29169,8.96157,22.38268,8.92388Q22.47368,8.88619,22.55557,8.83147Q22.63746,8.77675,22.70711,8.70711Q22.77675,8.63746,22.83147,8.55557Q22.88619,8.47368,22.92388,8.38268Q22.961570000000002,8.29169,22.98078,8.19509Q23,8.09849,23,8Z" fill-rule="evenodd" fill-opacity="1"/></g></g></svg>