<svg xmlns="http://www.w3.org/2000/svg" xmlns:xlink="http://www.w3.org/1999/xlink" version="1.1" viewBox="0 0 24 24"><defs><clipPath id="master_svg0_304_63315"><rect x="0" y="0" width="24" height="24" rx="0"/></clipPath></defs><g clip-path="url(#master_svg0_304_63315)"><g style="opacity:0;"><rect x="0" y="0" width="24" height="24" rx="0" fill="#FFFFFF" fill-opacity="1"/></g><g transform="matrix(-0.7071067690849304,0.7071067690849304,-0.7071067690849304,-0.7071067690849304,50.791574787086574,11.567886065429775)"><path d="M27.18556,15.30322265625L24.79841,15.30322265625Q23.383807,15.30322265625,22.546917,16.40811465625Q21.6866,17.54394265625,22.145613,18.90433265625Q24.11511,24.74123265625,27.032420000000002,27.65852265625Q29.94975,30.57592265625,35.7866,32.54532265625Q37.147,33.00432265625,38.2828,32.14402265625Q39.387699999999995,31.30712265625,39.387699999999995,29.89252265625L39.387699999999995,27.50502265625Q39.387699999999995,26.36312265625,38.3898,25.80840265625L36.3101,24.652172656250002Q35.4148,24.15442265625,34.4987,24.61254265625L32.60216,25.56080265625Q31.43814,25.242722656250002,30.44316,24.24777265625Q29.44724,23.25185265625,29.12516,22.08210265625L30.07299,20.18638265625Q30.53078,19.27095265625,30.03399,18.37600265625L28.8827,16.30214103625Q28.32804,15.30322265625,27.18556,15.30322265625ZM24.1412,17.61569265625Q24.37788,17.30322265625,24.79841,17.30322265625L27.15092,17.30322265625L28.270310000000002,19.31962265625L27.17508,21.51012265625Q27.1011,21.658082656250002,27.07872,21.82198265625Q27.05633,21.98587265625,27.08791,22.14825265625Q27.46768,24.10072265625,29.028950000000002,25.66198265625Q30.59128,27.22422265625,32.53974,27.59792265625Q32.70154,27.62902265625,32.86474,27.60652265625Q33.0279,27.58402265625,33.1753,27.51032265625L35.3654,26.415222656250002L37.3877,27.53962265625L37.3877,29.89252265625Q37.3877,30.31302265625,37.0753,30.549722656249997Q36.7833,30.770822656249997,36.4261,30.650322656249998Q31.03286,28.83052265625,28.446649999999998,26.24430265625Q25.86043,23.65812265625,24.04064,18.26491265625Q23.920088,17.90762265625,24.1412,17.61569265625Z" fill-rule="evenodd" fill-opacity="1"/></g><g><path d="" fill-opacity="1"/><path d="M20.1839,2.23002528125Q20.3352,2.08824028125,20.4176,1.89801728125Q20.5,1.70779528125,20.5,1.50048828125Q20.5,1.40199688125,20.480800000000002,1.30539828125Q20.4616,1.2087992812500001,20.4239,1.11780528125Q20.386200000000002,1.02681028125,20.3315,0.94491828125Q20.276699999999998,0.86302528125,20.2071,0.79338128125Q20.1375,0.72373728125,20.0556,0.66901828125Q19.9737,0.61430028125,19.8827,0.57660928125Q19.7917,0.53891828125,19.6951,0.51970328125Q19.5985,0.50048828125,19.5,0.50048828125Q19.3095,0.50048828125,19.1323,0.57055928125Q18.9551,0.64062928125,18.8161,0.77095128125L18.8157,0.77129928125L11.560590000000001,7.57295828125L7.743382,3.33161828125L7.743294,3.33152828125Q7.672964,3.25337828125,7.587921,3.19156828125Q7.502877,3.12975828125,7.406839,3.08698828125Q7.3108,3.04421828125,7.207966,3.02234828125Q7.105132,3.00048828125,7,3.00048828125Q6.9015086,3.00048828125,6.80491,3.01969828125Q6.708311,3.03891828125,6.617317,3.07660828125Q6.526322,3.11429828125,6.44443,3.16901828125Q6.362537,3.22373828125,6.292893,3.29337828125Q6.223249,3.36302828125,6.16853,3.44491828125Q6.113812,3.52680828125,6.076121,3.61780828125Q6.03843,3.70879828125,6.019215,3.80539828125Q6,3.90199828125,6,4.00048828125Q6,4.1857682812500006,6.06638,4.35874828125Q6.132759,4.53173828125,6.256706,4.66944828125L10.41535,9.29016828125Q10.83698,9.75864828125,11.46669,9.78537828125Q12.0964,9.81209828125,12.5562,9.38102828125L20.1836,2.23037428125L20.1839,2.23002528125L20.1839,2.23002528125Z" fill-rule="evenodd" fill-opacity="1"/></g><g transform="matrix(0.7041432857513428,0.7100579142570496,-0.7100579142570496,0.7041432857513428,2.943804998212727,-5.06612644038978)"><path d="M6.84416253125,4.20662171875L9.343849531250001,6.70630171875L9.34415953125,6.70662171875Q9.48481953125,6.84727171875,9.66858953125,6.92339171875Q9.85235953125,6.99951171875,10.05126953125,6.99951171875Q10.25017953125,6.99951171875,10.43394953125,6.92339171875Q10.61771953125,6.84727171875,10.75837953125,6.70662171875Q10.899029531250001,6.56596171875,10.97514953125,6.38219171875Q11.05126953125,6.19842171875,11.05126953125,5.99951171875Q11.05126953125,5.80060171875,10.97514953125,5.61683171875Q10.899029531250001,5.43306171875,10.75837953125,5.29240171875L10.75805953125,5.29209171875L8.96547953125,3.49951171875L10.75837953125,1.7066187187500002Q10.899029531250001,1.56596571875,10.97514953125,1.38219471875Q11.05126953125,1.19842371875,11.05126953125,0.99951171875Q11.05126953125,0.80059971875,10.97514953125,0.61682871875Q10.899029531250001,0.43305771875,10.75837953125,0.29240471874999996Q10.61771953125,0.15175271874999996,10.43394953125,0.07563171874999997Q10.25017953125,-0.00048828125,10.05126953125,-0.00048828125Q9.85235953125,-0.00048828125,9.66858953125,0.07563171874999997Q9.48481953125,0.15175271874999996,9.34415953125,0.29240471874999996L6.84416253125,2.79240171875Q6.77451853125,2.86205171875,6.71979953125,2.94394171875Q6.66508153125,3.02583171875,6.62739053125,3.11683171875Q6.58969953125,3.20782171875,6.57048453125,3.30442171875Q6.55126953125,3.40102171875,6.55126953125,3.49951171875Q6.55126953125,3.59800171875,6.57048453125,3.69460171875Q6.58969953125,3.79120171875,6.62739053125,3.88219171875Q6.66508153125,3.97319171875,6.71979953125,4.0550817187499995Q6.77451853125,4.13697171875,6.84416253125,4.20662171875Z" fill-rule="evenodd" fill-opacity="1"/></g></g></svg>