<svg xmlns="http://www.w3.org/2000/svg" xmlns:xlink="http://www.w3.org/1999/xlink" version="1.1" viewBox="0 0 24 24"><defs><clipPath id="master_svg0_304_63309"><rect x="0" y="0" width="24" height="24" rx="0"/></clipPath></defs><g clip-path="url(#master_svg0_304_63309)"><g style="opacity:0;"><rect x="0" y="0" width="24" height="24" rx="0" fill="#FFFFFF" fill-opacity="1"/></g><g><path d="M3.20275353125,6.5876234375Q4.52918653125,10.518293437499999,6.33485953125,13.2950734375Q6.40295953125,13.3998034375,6.49472953125,13.4845634375Q6.58649953125,13.5693134375,6.69629953125,13.6288934375Q6.80610953125,13.6884634375,6.92718953125,13.7191934375Q7.04826953125,13.7499234375,7.173189531249999,13.7499234375Q7.197509531250001,13.7499234375,7.221799531249999,13.7487434375Q7.4917595312500005,13.7356134375,7.71833953125,13.5882634375Q7.88509953125,13.4798334375,7.99765953125,13.3158334375Q8.110229531249999,13.1518334375,8.151469531250001,12.9572434375Q8.17318953125,12.8547234375,8.17318953125,12.7499334375Q8.17318953125,12.7324434375,8.172579531250001,12.7149734375Q8.162879531249999,12.4375234375,8.01152953125,12.2047834375Q6.34347953125,9.6396134375,5.09775953125,5.9481334375Q4.95897453125,5.5368634375,5.21406953125,5.1997734375Q5.48423953125,4.8427714375,5.96173953125,4.8427734375L8.49803953125,4.8427734375L9.72126953125,7.046163437500001L8.54285953125,9.4030234375Q8.46888953125,9.5509634375,8.44649953125,9.7148434375Q8.42410953125,9.8787234375,8.45567953125,10.0410834375Q8.54479953125,10.499463437500001,8.79301953125,11.1204634375L8.79330953125,11.121173437500001Q8.86714953125,11.305863437500001,9.00605953125,11.4482434375Q9.144959531249999,11.5906234375,9.32777953125,11.6690134375Q9.51649953125,11.7499234375,9.72183953125,11.7499234375L9.73434953125,11.7498534375Q9.92035953125,11.7475234375,10.09307953125,11.6784634375Q10.16229953125,11.650793437499999,10.226639531250001,11.613163437499999Q10.29098953125,11.575533437499999,10.34904953125,11.5287834375Q10.407099531250001,11.4820334375,10.457589531250001,11.4271934375Q10.508069531250001,11.3723434375,10.54985953125,11.3106234375Q10.59165953125,11.248903437500001,10.623839531249999,11.1816634375Q10.65601953125,11.1144334375,10.67787953125,11.0431734375Q10.69973953125,10.9719034375,10.71078953125,10.8981934375Q10.72183953125,10.8244734375,10.72183953125,10.749933437500001L10.72183953125,10.7465434375Q10.721189531250001,10.5558034375,10.65037953125,10.378683437500001Q10.55792953125,10.1474434375,10.499119531249999,9.9626334375L11.51011953125,7.9405934375Q11.981699531250001,6.9974334375,11.46989953125,6.0754534375L10.246679531249999,3.8720872375Q9.67534953125,2.8427734375,8.49803953125,2.8427734375L5.96174953125,2.8427734375Q4.48962653125,2.8427634375,3.61926553125,3.9928784375Q2.72562953125,5.1737434375,3.20275353125,6.5876234375ZM11.76986953125,16.0535734375L11.76833953125,16.052473437499998Q11.64425953125,15.9685734375,11.501029531250001,15.9246734375Q11.35779953125,15.8807734375,11.20799953125,15.8807734375L11.19952953125,15.8807734375Q11.10820953125,15.8815734375,11.018549531249999,15.8988734375Q10.82323953125,15.9365734375,10.65721953125,16.046173437500002Q10.49118953125,16.1556734375,10.37972953125,16.3204734375Q10.29578953125,16.4444734375,10.25188953125,16.587773437499997Q10.20798953125,16.730973437499998,10.20798953125,16.8807734375Q10.20798953125,16.9243734375,10.21178953125,16.9677734375Q10.22149953125,17.0789734375,10.25545953125,17.185173437499998Q10.28942953125,17.291473437500002,10.34597953125,17.3876734375Q10.40252953125,17.4838734375,10.478889531250001,17.5651734375Q10.555239531249999,17.6464734375,10.64764953125,17.709073437500003L10.64777953125,17.7091734375L10.64876953125,17.7097734375Q13.49867953125,19.637573437500002,17.65486953125,21.0401734375Q19.068669531250002,21.5172734375,20.24976953125,20.6239734375Q21.40036953125,19.753673437499998,21.40036953125,18.2814734375L21.40036953125,15.7446734375Q21.40036953125,14.5682734375,20.37216953125,13.9966734375L18.16256953125,12.7681734375Q17.24026953125,12.2554034375,16.29636953125,12.7272734375L14.27226953125,13.7393534375Q14.03306953125,13.6643534375,13.72984953125,13.5354234375Q13.54231953125,13.4556834375,13.33854953125,13.4556834375Q13.30094953125,13.4556834375,13.26346953125,13.4585034375Q13.12629953125,13.4688234375,12.99700953125,13.5158134375Q12.86772953125,13.5627934375,12.75592953125,13.6429334375Q12.64412953125,13.7230734375,12.55811953125,13.8304234375Q12.47210953125,13.9377734375,12.41827953125,14.0643734375Q12.33853953125,14.2518734375,12.33853953125,14.4556734375Q12.33853953125,14.4932734375,12.34136953125,14.5307734375Q12.35168953125,14.6679734375,12.39866953125,14.7971734375Q12.44564953125,14.9264734375,12.52579953125,15.0382734375Q12.60593953125,15.1500734375,12.71328953125,15.2360734375Q12.82064953125,15.3220734375,12.94722953125,15.3759734375Q13.65884953125,15.6785734375,14.19866953125,15.7820734375Q14.36046953125,15.8130734375,14.52366953125,15.7905734375Q14.68686953125,15.7680734375,14.83426953125,15.6943734375L17.190669531250002,14.5161734375L17.190769531249998,14.5161734375L19.40036953125,15.7446734375L19.40036953125,18.2814734375Q19.40036953125,18.7586734375,19.04326953125,19.0287734375Q18.70576953125,19.2840734375,18.29436953125,19.1451734375Q14.39526953125,17.8292734375,11.76986953125,16.0535734375Z" fill-rule="evenodd" fill-opacity="1"/></g><g><path d="M3.293268,19.2925L3.292893,19.2929Q3.152241,19.433500000000002,3.076121,19.6173Q3,19.801099999999998,3,20Q3,20.1989,3.07612,20.3827Q3.152241,20.5665,3.292893,20.7071Q3.4335459999999998,20.8478,3.617317,20.9239Q3.801088,21,4,21Q4.198912,21,4.382683,20.9239Q4.566454,20.8478,4.707107,20.7071L20.7071,4.707107Q20.8478,4.566454,20.9239,4.382683Q21,4.198912,21,4Q21,3.801088,20.9239,3.617317Q20.8478,3.4335459999999998,20.7071,3.292894Q20.5665,3.152241,20.3827,3.076121Q20.1989,3,20,3Q19.9741,3,19.9483,3.0013389999999998Q19.762999999999998,3.010937,19.5935,3.086334Q19.4241,3.16173,19.2929,3.292893L19.2925,3.293268L3.293268,19.2925Z" fill-rule="evenodd" fill-opacity="1"/></g></g></svg>