<svg xmlns="http://www.w3.org/2000/svg" xmlns:xlink="http://www.w3.org/1999/xlink" version="1.1" viewBox="0 0 24 24"><defs><clipPath id="master_svg0_304_63302"><rect x="0" y="0" width="24" height="24" rx="0"/></clipPath></defs><g clip-path="url(#master_svg0_304_63302)"><g><path d="M8.324651718750001,3.16943359375L5.84007171875,3.16943359375Q4.39408471875,3.16943359375,3.53514571875,4.28075659375Q2.64240171875,5.43581359375,3.11966671875,6.82201359375Q5.16854171875,12.77267359375,8.20131171875,15.74473359375Q11.231091718750001,18.714033593750003,17.29556171875,20.71933359375Q18.682461718749998,21.17803359375,19.842461718750002,20.31693359375Q20.98406171875,19.46953359375,20.98406171875,18.03053359375L20.98406171875,15.59523359375Q20.98406171875,14.43673359375,19.95886171875,13.87808359375L17.79436171875,12.69872359375Q16.888361718749998,12.20514359375,15.96176171875,12.65926359375L13.96856171875,13.63593359375Q12.73185171875,13.31149359375,11.67918171875,12.27991359375Q10.63847171875,11.26001359375,10.30252171875,10.06363359375L11.28977171875,8.12857359375Q11.76533171875,7.19662359375,11.249441718749999,6.285863593749999L10.05118171875,4.17054060375Q9.484001718750001,3.16943359375,8.324651718750001,3.16943359375ZM5.1175817187499995,5.50382359375Q5.37603171875,5.16943359375,5.84007171875,5.16943359375L8.318421718749999,5.16943359375L9.49476171875,7.24605359375L8.35392171875,9.482153593749999Q8.277351718750001,9.632243593750001,8.25418171875,9.79913359375Q8.23102171875,9.96603359375,8.26382171875,10.131303593750001Q8.65853171875,12.119953593750001,10.279321718750001,13.70833359375Q11.89624171875,15.29283359375,13.90870171875,15.67113359375Q14.06766171875,15.70103359375,14.22796171875,15.67923359375Q14.38816171875,15.65753359375,14.53346171875,15.58633359375L16.839761718749997,14.45623359375L18.98406171875,15.62453359375L18.98406171875,18.03053359375Q18.98406171875,18.46333359375,18.65036171875,18.711033593750003Q18.324361718749998,18.95303359375,17.92356171875,18.82043359375Q12.29955171875,16.96083359375,9.60118171875,14.31633359375Q6.90580171875,11.67489359375,5.0107117187500005,6.170903593749999Q4.88475471875,5.80506359375,5.1175817187499995,5.50382359375Z" fill-rule="evenodd" fill-opacity="1"/></g><g><path d="M14.606061203125,7.81617953125L14.605979203124999,7.81625953125Q14.463913203125,7.95547953125,14.385941203125,8.13846953125Q14.307968203125,8.321469531249999,14.305959203125,8.520369531250001L14.305908203125,8.530469531249999Q14.305908203125,8.54944953125,14.306628203125,8.568409531250001Q14.313703203125,8.75472953125,14.387448203125,8.92597953125Q14.461192203125,9.097229531250001,14.591696203125,9.23039953125Q14.732758203125,9.374339531250001,14.918564203125,9.45239953125Q15.104369203125,9.530469531249999,15.305908203125,9.530469531249999Q15.326743703125,9.530469531249999,15.347561203125,9.52959953125Q15.532893203124999,9.521869531250001,15.703124203125,9.44818953125Q15.873356203125,9.37450953125,16.005837203125,9.24467953125L16.005919203125,9.24459953125L20.161478203125,5.17214453125L20.161898203125,5.17173153125Q20.305848203125,5.03066953125,20.383908203125,4.84486353125Q20.461978203125,4.65905853125,20.461978203125,4.457519696006Q20.461978203125,4.43668403125,20.461108203125,4.41586653125Q20.453378203125,4.23053453125,20.379698203125,4.06030353125Q20.306018203125,3.8900715312500003,20.176188203125,3.75759053125Q20.035128203124998,3.61364953125,19.849318203125,3.53558453125Q19.663508203124998,3.45751953125,19.461978203125,3.45751953125Q19.441138203125,3.45751953125,19.420318203125,3.45838753125Q19.234988203125,3.46611353125,19.064758203125,3.53979453125Q18.894528203125,3.6134755312499998,18.762048203125,3.74330753125L18.761958203125,3.74338753125L14.606061203125,7.81617953125Z" fill-rule="evenodd" fill-opacity="1"/></g><g><path d="M14.605978203125,5.17173053125L18.761998203125,9.244649531250001Q18.902188203125,9.38202953125,19.083908203125,9.456229531249999Q19.265638203125,9.53043953125,19.461928203124998,9.53043953125L19.472028203125,9.53037953125Q19.670928203125,9.52837953125,19.853918203124998,9.45039953125Q20.036908203125,9.372429531249999,20.176138203125,9.23036953125Q20.313528203125,9.09016953125,20.387728203125,8.90844953125Q20.461928203124998,8.726729531250001,20.461928203124998,8.53043953125L20.461928203124998,8.53005953125L20.461878203125,8.52033953125Q20.459868203124998,8.32142953125,20.381888203125,8.13843953125Q20.303918203125,7.95544953125,20.161858203125,7.81621953125L20.161698203125,7.81606953125L16.005838203125,3.74330853125Q15.865646203125,3.60591953125,15.683922203125,3.5317195312500003Q15.502197203125,3.45751953125,15.305908102379,3.45751953125L15.295809903125,3.45757053125Q15.096908203125,3.45957953125,14.913915203125,3.53755153125Q14.730921203125,3.61552353125,14.591697203125,3.75758953125Q14.454308203125,3.89778153125,14.380108203125,4.07950553125Q14.305908203125,4.26123053125,14.305908203125,4.45751953125L14.305959203125,4.46761783125Q14.307968203125,4.66651953125,14.385940203125,4.84951253125Q14.463912203125,5.03250653125,14.605978203125,5.17173053125Z" fill-rule="evenodd" fill-opacity="1"/></g></g></svg>