<svg xmlns="http://www.w3.org/2000/svg" xmlns:xlink="http://www.w3.org/1999/xlink" fill="none" version="1.1" width="15.000000953674316" height="15.000000953674316" viewBox="0 0 15.000000953674316 15.000000953674316"><g><path d="M7.5,15C3.35775,15,0,11.6423,0,7.5C0,3.35775,3.35775,0,7.5,0C11.6422,0,15,3.35775,15,7.5C15,11.6422,11.6422,15,7.5,15ZM8.25,8.25L8.25,7.5L10.5,7.5L10.5,6L8.5605,6L10.152,4.40925L9.09075,3.348L7.5,4.9395L5.90925,3.348L4.848,4.41L6.4395,6L4.5,6L4.5,7.5L6.75,7.5L6.75,8.25L4.5,8.25L4.5,9.75L6.75,9.75L6.75,11.25L8.25,11.25L8.25,9.75L10.5,9.75L10.5,8.25L8.25,8.25Z" fill="#FFFFFF" fill-opacity="1"/></g></svg>