<svg xmlns="http://www.w3.org/2000/svg" xmlns:xlink="http://www.w3.org/1999/xlink" version="1.1" viewBox="0 0 9.333333015441907 11.377777099609386"><g style="mix-blend-mode:passthrough" transform="matrix(1,-1.1256860345937574e-15,1.1256860345937574e-15,-1,-1.2807804785750952e-14,22.75555419921877)"><path d="M4.66667,11.377777099609386C4.66667,11.377777099609386,9.33333,17.400737099609387,9.33333,17.400737099609387C9.33333,17.400737099609387,6.27022,16.715737099609385,6.27022,16.715737099609385C6.27022,16.715737099609385,6.221,16.736707099609387,6.221,16.736707099609387C6.221,16.736707099609387,6.18286,17.017527099609385,6.18286,17.017527099609385C5.74152,19.839917099609387,3.91226,22.090977099609386,1.55816,22.755577099609386C2.30701,21.681177099609386,2.60023,21.396077099609386,2.87227,19.868837099609387C3.05362,18.850667099609385,3.13639,17.805497099609386,3.12057,16.733327099609387C3.12057,16.733327099609387,3.203,16.732447099609384,3.203,16.732447099609384C3.203,16.732447099609384,3.16553,16.715737099609385,3.16553,16.715737099609385C3.16553,16.715737099609385,0,17.400737099609387,0,17.400737099609387C0,17.400737099609387,4.66667,11.377777099609386,4.66667,11.377777099609386C4.66667,11.377777099609386,4.66667,11.377777099609386,4.66667,11.377777099609386Z" fill-rule="evenodd" fill-opacity="1"/></g></svg>