<svg xmlns="http://www.w3.org/2000/svg" xmlns:xlink="http://www.w3.org/1999/xlink" version="1.1" viewBox="0 0 32 32"><defs><clipPath id="master_svg0_5429_73663"><rect x="0" y="0" width="32" height="32" rx="8"/></clipPath><clipPath id="master_svg1_5429_73668"><rect x="7" y="7" width="18" height="18" rx="0"/></clipPath></defs><g style="mix-blend-mode:passthrough" clip-path="url(#master_svg0_5429_73663)"><g style="mix-blend-mode:passthrough"></g><g clip-path="url(#master_svg1_5429_73668)"><g><path d="M9.626396,22.490299999999998L9.626396,22.8367Q9.626396,22.639,9.485893,22.502499999999998Q9.354553,22.375,9.173205,22.375L22.8259,22.375Q22.6445,22.375,22.513199999999998,22.502499999999998Q22.372700000000002,22.639,22.372700000000002,22.8367L22.372700000000002,22.4924Q22.372700000000002,22.4678,22.374299999999998,22.443199999999997Q22.3979,22.084899999999998,22.157899999999998,21.6824Q21.9251,21.292,21.472099999999998,21.005000000000003Q20.865000000000002,20.6203,19.892899999999997,20.4456L20.0255,19.7074L19.9294,20.4512Q19.3399,20.3751,18.71434,20.2153Q17.2668,19.845599999999997,17.09983,19.1986Q17.114919999999998,19.2559,17.14125,19.3047Q17.08659,19.2035,17.06474,19.0907Q17.013170000000002,18.82444,17.06425,18.262230000000002Q17.14376,17.386879999999998,17.59617,16.63313Q17.84671,16.2157,18.38391,15.62387Q18.63583,15.34633,18.7157,15.23429Q19.0532,14.76072,19.0758,14.22965L19.8251,14.2615L19.0751,14.2615L19.0785,14.256319999999999Q19.0858,14.27918,19.0978,14.29559Q19.0945,14.291080000000001,19.0641,14.25976Q19.0565,14.251909999999999,19.0491,14.243839999999999L19.0487,14.24339L19.602,13.737020000000001L19.0641,14.259699999999999Q19.018900000000002,14.21322,18.9919,14.18182L18.9908,14.18065Q18.74992,13.89994,18.81299,13.4877Q18.86666,13.13607,18.881700000000002,12.86332Q18.9251,12.07618,18.83203,11.55119Q18.82889,11.53347,18.826610000000002,11.51562Q18.815649999999998,11.43009,18.78237,11.30785Q18.67248,10.90367,18.442059999999998,10.6358L19.0107,10.14671L18.45847,10.65425Q18.301450000000003,10.48342,17.82782,10.25657Q16.78651,9.757835,15.18636,9.638682Q14.81793,9.611252,14.14438,9.645678Q14.00678,9.652482,13.9658,9.663101Q14.092970000000001,9.630157,14.13059,9.439686Q14.14032,9.390474,14.12959,9.345145Q14.12809,9.338784,14.12787,9.338202Q14.13109,9.34661,14.14351,9.374438L14.14356,9.374552Q14.26966,9.656507,14.177579999999999,9.96393Q14.147,10.06603,14.089179999999999,10.15558Q13.95288,10.36666,13.66734,10.60214Q13.19847,11.00073,13.17562,11.46866Q13.17338,11.51464,13.16553,11.559989999999999Q13.00525,12.48607,13.18995,13.45786Q13.25525,13.78418,13.13001,14.04544Q13.06546,14.1801,12.95425,14.27976L12.954229999999999,14.279779999999999Q12.90874,14.32055,12.89604,14.3338L12.90145,14.324919999999999Q12.924299999999999,14.28819,12.92429,14.27497L12.17429,14.2759L12.923300000000001,14.237300000000001Q12.950610000000001,14.767389999999999,13.283439999999999,15.23435Q13.363199999999999,15.346260000000001,13.61488,15.62355L13.05951,16.12761L13.59022,15.597660000000001L13.59056,15.59799Q13.60319,15.61065,13.615210000000001,15.62389Q14.15241,16.21576,14.40292,16.63314Q14.85531,17.386850000000003,14.93485,18.26219Q14.9859,18.8246,14.93431,19.0908Q14.91244,19.2036,14.857800000000001,19.3047Q14.8844,19.2554,14.89861,19.2012Q14.720320000000001,19.8477,13.28999,20.213900000000002Q12.70356,20.3641,12.06903,20.4515L12.06943,20.4514L11.96241,19.7091L12.08724,20.4486Q11.14294,20.608,10.54053,20.9884Q10.089690000000001,21.2732,9.853384,21.668Q9.606045,22.0813,9.625374,22.4511Q9.626396,22.4707,9.626396,22.490299999999998ZM8.126396,22.490299999999998L8.87639618,22.490299999999998L8.127419,22.529400000000003Q8.084234,21.703200000000002,8.566286,20.8977Q8.986272,20.195999999999998,9.739603,19.7202Q10.59649,19.179000000000002,11.837579999999999,18.9695Q11.84647,18.968,11.8554,18.9668Q11.85845,18.9663,11.864370000000001,18.9655Q12.41423,18.8898,12.917919999999999,18.76079Q13.425360000000001,18.63086,13.61862,18.51397Q13.629010000000001,18.50769,13.63008,18.50685Q13.61505,18.51867,13.59652,18.538449999999997Q13.4958,18.646,13.44755,18.82115Q13.479040000000001,18.70089,13.53823,18.5914L14.19801,18.948L13.46172,18.80528Q13.4728,18.74816,13.440999999999999,18.397930000000002Q13.39253,17.86447,13.1168,17.405079999999998Q12.942350000000001,17.11443,12.50449,16.63201L13.05985,16.12795L12.52915,16.657899999999998L12.52881,16.65757Q12.516169999999999,16.64491,12.50415,16.63167Q12.19302,16.28887,12.06196,16.10497Q11.47512,15.28164,11.42528,14.314499999999999Q11.42431,14.295670000000001,11.42429,14.27682Q11.4235,13.63738,11.95313,13.16273L11.95315,13.16271L12.4537,13.72124L11.77739,13.39704Q11.68617,13.58733,11.71633,13.73794Q11.48078,12.49861,11.6875,11.30418L12.42651,11.43209L11.67741,11.39551Q11.71232,10.68038,12.204740000000001,10.00267Q12.44394,9.673447,12.71298,9.444905Q12.81898,9.357488,12.82905,9.341901L13.459109999999999,9.748738L12.74065,9.533551Q12.6728,9.76007,12.773769999999999,9.98583L12.77372,9.98572Q12.57961,9.550759,12.65901,9.149068Q12.80407,8.414525,13.589559999999999,8.211053Q13.77927,8.161898,14.067820000000001,8.147633Q14.83541,8.108402,15.297740000000001,8.142824Q17.17964,8.282956,18.47576,8.9037362Q19.2102,9.255481,19.5628,9.63918Q19.571199999999997,9.648272,19.5792,9.657633Q20.030900000000003,10.18273,20.2297,10.9138Q20.290300000000002,11.13635,20.3144,11.325L19.5705,11.42031L20.308999999999997,11.289439999999999Q20.4324,11.98536,20.3794,12.945879999999999Q20.3604,13.29088,20.2957,13.71455Q20.3369,13.4458,20.1291,13.20374L20.1281,13.2026L20.1398,13.21435Q20.1476,13.22239,20.1552,13.23066L20.1556,13.231110000000001L19.6024,13.73747L20.1406,13.21519Q20.408,13.49078,20.5061,13.7959Q20.5751,14.010010000000001,20.5751,14.2615Q20.5751,14.277429999999999,20.5744,14.29335Q20.533,15.26896,19.9371,16.10503Q19.8059,16.28904,19.4946,16.63203Q19.056800000000003,17.11439,18.8823,17.405070000000002Q18.60656,17.86446,18.5581,18.39797Q18.52628,18.748179999999998,18.53737,18.80544L17.80105,18.9481L18.46085,18.591459999999998Q18.5197,18.70035,18.55223,18.82377Q18.507469999999998,18.65038,18.4024,18.53831Q18.38391,18.51858,18.36893,18.506819999999998Q18.37013,18.507759999999998,18.38072,18.51416Q18.57525,18.631619999999998,19.0855,18.76195Q19.622700000000002,18.8991,20.1217,18.9636Q20.14,18.966,20.158099999999997,18.9693Q21.419600000000003,19.1959,22.275,19.738Q23.0302,20.2165,23.446199999999997,20.9143Q23.9253,21.7177,23.8711,22.541600000000003L23.122700000000002,22.4924L23.872700000000002,22.4924L23.872700000000002,22.8367Q23.872700000000002,23.2732,23.5583,23.5786Q23.2531,23.875,22.8259,23.875L9.173205,23.875Q8.745968,23.875,8.440763,23.5785Q8.126396,23.2731,8.126396,22.8367L8.126396,22.490299999999998Z" fill-opacity="1"/></g></g></g></svg>