<svg xmlns="http://www.w3.org/2000/svg" xmlns:xlink="http://www.w3.org/1999/xlink" version="1.1" viewBox="0 0 32 32"><defs><clipPath id="master_svg0_5429_73686"><rect x="0" y="0" width="32" height="32" rx="8"/></clipPath><clipPath id="master_svg1_5429_73688"><rect x="7" y="7" width="18" height="18" rx="0"/></clipPath></defs><g style="mix-blend-mode:passthrough" clip-path="url(#master_svg0_5429_73686)"><g style="mix-blend-mode:passthrough"></g><g clip-path="url(#master_svg1_5429_73688)"><g><path d="M7.75,20L7.75,12Q7.75,10.860913,8.5554563,10.0554563Q9.360913,9.25,10.5,9.25L21.5,9.25Q22.6391,9.25,23.444499999999998,10.0554563Q24.25,10.860914,24.25,12L24.25,20Q24.25,21.1391,23.444499999999998,21.944499999999998Q22.6391,22.75,21.5,22.75L10.5,22.75Q9.360914,22.75,8.5554563,21.944499999999998Q7.75,21.1391,7.75,20ZM9.25,20Q9.25,20.5178,9.61612,20.8839Q9.98223,21.25,10.5,21.25L21.5,21.25Q22.0178,21.25,22.3839,20.8839Q22.75,20.5178,22.75,20L22.75,12Q22.75,11.48223,22.3839,11.11612Q22.0178,10.75,21.5,10.75L10.5,10.75Q9.98223,10.75,9.61612,11.11612Q9.25,11.48223,9.25,12L9.25,20Z" fill-opacity="1"/></g><g><path d="M12.625,14.875Q12.625,15.18565,12.844675,15.40532Q13.06435,15.625,13.375,15.625Q13.68565,15.625,13.90532,15.40532Q14.125,15.18565,14.125,14.875Q14.125,14.56435,13.90532,14.344675Q13.68565,14.125,13.375,14.125Q13.06435,14.125,12.844675,14.344675Q12.625,14.56435,12.625,14.875L12.625,14.875ZM11.125,14.875Q11.125,13.94303,11.7840153,13.2840151Q12.44303,12.625,13.375,12.625Q14.30697,12.625,14.96598,13.2840152Q15.625,13.94303,15.625,14.875Q15.625,15.80697,14.96598,16.465980000000002Q14.30697,17.125,13.375,17.125Q12.44303,17.125,11.7840153,16.465980000000002Q11.125,15.80697,11.125,14.875L11.125,14.875Z" fill-opacity="1"/></g><g><path d="M10.375,18.625Q10.375,17.38236,11.253681,16.503681Q12.13236,15.625,13.375,15.625Q14.61764,15.625,15.49632,16.503681Q16.375,17.38236,16.375,18.625Q16.375,18.69887,16.360590000000002,18.77132Q16.34618,18.84377,16.31791,18.91201Q16.28964,18.98026,16.2486,19.04168Q16.20756,19.1031,16.15533,19.15533Q16.1031,19.20756,16.04168,19.2486Q15.980260000000001,19.28964,15.91201,19.31791Q15.84377,19.34618,15.77132,19.360590000000002Q15.69887,19.375,15.625,19.375Q15.55113,19.375,15.47868,19.360590000000002Q15.40623,19.34618,15.33799,19.31791Q15.269739999999999,19.28964,15.20832,19.2486Q15.146899999999999,19.20756,15.09467,19.15533Q15.04244,19.1031,15.0014,19.04168Q14.96036,18.98026,14.93209,18.91201Q14.90382,18.84377,14.88941,18.77132Q14.875,18.69887,14.875,18.625Q14.875,18.00368,14.43566,17.56434Q13.99632,17.125,13.375,17.125Q12.75368,17.125,12.31434,17.56434Q11.875,18.00368,11.875,18.625Q11.875,18.69887,11.860589000000001,18.77132Q11.846178,18.84377,11.81791,18.91201Q11.789641,18.98026,11.748602,19.04168Q11.707563,19.1031,11.65533,19.15533Q11.603097,19.20756,11.541678,19.2486Q11.480258,19.28964,11.412013,19.31791Q11.343767,19.34618,11.271318,19.360590000000002Q11.1988685,19.375,11.125,19.375Q11.0511315,19.375,10.978682,19.360590000000002Q10.906233,19.34618,10.837987,19.31791Q10.769742,19.28964,10.708322,19.2486Q10.646903,19.20756,10.59467,19.15533Q10.542437,19.1031,10.501398,19.04168Q10.460359,18.98026,10.43209,18.91201Q10.403822,18.84377,10.389410999999999,18.77132Q10.375,18.69887,10.375,18.625ZM11.875,18.625Q11.875,18.69887,11.860589000000001,18.77132Q11.846178,18.84377,11.81791,18.91201Q11.789641,18.98026,11.748602,19.04168Q11.707563,19.1031,11.65533,19.15533Q11.603097,19.20756,11.541678,19.2486Q11.480258,19.28964,11.412013,19.31791Q11.343767,19.34618,11.271318,19.360590000000002Q11.1988685,19.375,11.125,19.375Q11.0511315,19.375,10.978682,19.360590000000002Q10.906233,19.34618,10.837987,19.31791Q10.769742,19.28964,10.708322,19.2486Q10.646903,19.20756,10.59467,19.15533Q10.542437,19.1031,10.501398,19.04168Q10.460359,18.98026,10.43209,18.91201Q10.403822,18.84377,10.389410999999999,18.77132Q10.375,18.69887,10.375,18.625Q10.375,18.55113,10.389410999999999,18.47868Q10.403822,18.40623,10.43209,18.33799Q10.460359,18.26974,10.501398,18.20832Q10.542437,18.1469,10.59467,18.09467Q10.646903,18.04244,10.708322,18.0014Q10.769742,17.96036,10.837987,17.93209Q10.906233,17.90382,10.978682,17.88941Q11.0511315,17.875,11.125,17.875Q11.1988685,17.875,11.271318,17.88941Q11.343767,17.90382,11.412013,17.93209Q11.480258,17.96036,11.541678,18.0014Q11.603097,18.04244,11.65533,18.09467Q11.707563,18.1469,11.748602,18.20832Q11.789641,18.26974,11.81791,18.33799Q11.846178,18.40623,11.860589000000001,18.47868Q11.875,18.55113,11.875,18.625ZM16.375,18.625Q16.375,18.69887,16.360590000000002,18.77132Q16.34618,18.84377,16.31791,18.91201Q16.28964,18.98026,16.2486,19.04168Q16.20756,19.1031,16.15533,19.15533Q16.1031,19.20756,16.04168,19.2486Q15.980260000000001,19.28964,15.91201,19.31791Q15.84377,19.34618,15.77132,19.360590000000002Q15.69887,19.375,15.625,19.375Q15.55113,19.375,15.47868,19.360590000000002Q15.40623,19.34618,15.33799,19.31791Q15.269739999999999,19.28964,15.20832,19.2486Q15.146899999999999,19.20756,15.09467,19.15533Q15.04244,19.1031,15.0014,19.04168Q14.96036,18.98026,14.93209,18.91201Q14.90382,18.84377,14.88941,18.77132Q14.875,18.69887,14.875,18.625Q14.875,18.55113,14.88941,18.47868Q14.90382,18.40623,14.93209,18.33799Q14.96036,18.26974,15.0014,18.20832Q15.04244,18.1469,15.09467,18.09467Q15.146899999999999,18.04244,15.20832,18.0014Q15.269739999999999,17.96036,15.33799,17.93209Q15.40623,17.90382,15.47868,17.88941Q15.55113,17.875,15.625,17.875Q15.69887,17.875,15.77132,17.88941Q15.84377,17.90382,15.91201,17.93209Q15.980260000000001,17.96036,16.04168,18.0014Q16.1031,18.04244,16.15533,18.09467Q16.20756,18.1469,16.2486,18.20832Q16.28964,18.26974,16.31791,18.33799Q16.34618,18.40623,16.360590000000002,18.47868Q16.375,18.55113,16.375,18.625Z" fill-opacity="1"/></g><g><path d="M20.5,15.25L17.5,15.25Q17.4261315,15.25,17.353682,15.235589000000001Q17.281233,15.221178,17.212987,15.19291Q17.144742,15.164641,17.083322,15.123602Q17.021903000000002,15.082563,16.96967,15.03033Q16.917437,14.978097,16.876398000000002,14.916678Q16.835359,14.855258,16.80709,14.787013Q16.778822,14.718767,16.764411,14.646318Q16.75,14.5738685,16.75,14.5Q16.75,14.4261315,16.764411,14.353682Q16.778822,14.281233,16.80709,14.212987Q16.835359,14.144742,16.876398000000002,14.083322Q16.917437,14.021903,16.96967,13.96967Q17.021903000000002,13.917437,17.083322,13.876398Q17.144742,13.835359,17.212987,13.80709Q17.281233,13.778822,17.353682,13.764410999999999Q17.4261315,13.75,17.5,13.75L20.5,13.75Q20.57387,13.75,20.64632,13.764410999999999Q20.71877,13.778822,20.78701,13.80709Q20.85526,13.835359,20.91668,13.876398Q20.9781,13.917437,21.03033,13.96967Q21.08256,14.021903,21.1236,14.083322Q21.16464,14.144742,21.19291,14.212987Q21.22118,14.281233,21.235590000000002,14.353682Q21.25,14.4261315,21.25,14.5Q21.25,14.5738685,21.235590000000002,14.646318Q21.22118,14.718767,21.19291,14.787013Q21.16464,14.855258,21.1236,14.916678Q21.08256,14.978097,21.03033,15.03033Q20.9781,15.082563,20.91668,15.123602Q20.85526,15.164641,20.78701,15.19291Q20.71877,15.221178,20.64632,15.235589000000001Q20.57387,15.25,20.5,15.25ZM21.25,14.5Q21.25,14.5738685,21.235590000000002,14.646318Q21.22118,14.718767,21.19291,14.787013Q21.16464,14.855258,21.1236,14.916678Q21.08256,14.978097,21.03033,15.03033Q20.9781,15.082563,20.91668,15.123602Q20.85526,15.164641,20.78701,15.19291Q20.71877,15.221178,20.64632,15.235589000000001Q20.57387,15.25,20.5,15.25Q20.42613,15.25,20.35368,15.235589000000001Q20.28123,15.221178,20.21299,15.19291Q20.14474,15.164641,20.08332,15.123602Q20.0219,15.082563,19.96967,15.03033Q19.91744,14.978097,19.8764,14.916678Q19.83536,14.855258,19.80709,14.787013Q19.77882,14.718767,19.764409999999998,14.646318Q19.75,14.5738685,19.75,14.5Q19.75,14.4261315,19.764409999999998,14.353682Q19.77882,14.281233,19.80709,14.212987Q19.83536,14.144742,19.8764,14.083322Q19.91744,14.021903,19.96967,13.96967Q20.0219,13.917437,20.08332,13.876398Q20.14474,13.835359,20.21299,13.80709Q20.28123,13.778822,20.35368,13.764410999999999Q20.42613,13.75,20.5,13.75Q20.57387,13.75,20.64632,13.764410999999999Q20.71877,13.778822,20.78701,13.80709Q20.85526,13.835359,20.91668,13.876398Q20.9781,13.917437,21.03033,13.96967Q21.08256,14.021903,21.1236,14.083322Q21.16464,14.144742,21.19291,14.212987Q21.22118,14.281233,21.235590000000002,14.353682Q21.25,14.4261315,21.25,14.5ZM18.25,14.5Q18.25,14.5738685,18.235589,14.646318Q18.221178,14.718767,18.19291,14.787013Q18.164641,14.855258,18.123601999999998,14.916678Q18.082563,14.978097,18.03033,15.03033Q17.978096999999998,15.082563,17.916678,15.123602Q17.855258,15.164641,17.787013,15.19291Q17.718767,15.221178,17.646318,15.235589000000001Q17.5738685,15.25,17.5,15.25Q17.4261315,15.25,17.353682,15.235589000000001Q17.281233,15.221178,17.212987,15.19291Q17.144742,15.164641,17.083322,15.123602Q17.021903000000002,15.082563,16.96967,15.03033Q16.917437,14.978097,16.876398000000002,14.916678Q16.835359,14.855258,16.80709,14.787013Q16.778822,14.718767,16.764411,14.646318Q16.75,14.5738685,16.75,14.5Q16.75,14.4261315,16.764411,14.353682Q16.778822,14.281233,16.80709,14.212987Q16.835359,14.144742,16.876398000000002,14.083322Q16.917437,14.021903,16.96967,13.96967Q17.021903000000002,13.917437,17.083322,13.876398Q17.144742,13.835359,17.212987,13.80709Q17.281233,13.778822,17.353682,13.764410999999999Q17.4261315,13.75,17.5,13.75Q17.5738685,13.75,17.646318,13.764410999999999Q17.718767,13.778822,17.787013,13.80709Q17.855258,13.835359,17.916678,13.876398Q17.978096999999998,13.917437,18.03033,13.96967Q18.082563,14.021903,18.123601999999998,14.083322Q18.164641,14.144742,18.19291,14.212987Q18.221178,14.281233,18.235589,14.353682Q18.25,14.4261315,18.25,14.5Z" fill-opacity="1"/></g><g><path d="M20.5,18.25L18.25,18.25Q18.1761315,18.25,18.103682,18.235589Q18.031233,18.221178,17.962987,18.19291Q17.894742,18.164641,17.833322,18.123601999999998Q17.771903000000002,18.082563,17.71967,18.03033Q17.667437,17.978096999999998,17.626398000000002,17.916678Q17.585359,17.855258,17.55709,17.787013Q17.528822,17.718767,17.514411,17.646318Q17.5,17.5738685,17.5,17.5Q17.5,17.4261315,17.514411,17.353682Q17.528822,17.281233,17.55709,17.212987Q17.585359,17.144742,17.626398000000002,17.083322Q17.667437,17.021903000000002,17.71967,16.96967Q17.771903000000002,16.917437,17.833322,16.876398000000002Q17.894742,16.835359,17.962987,16.80709Q18.031233,16.778822,18.103682,16.764411Q18.1761315,16.75,18.25,16.75L20.5,16.75Q20.57387,16.75,20.64632,16.764411Q20.71877,16.778822,20.78701,16.80709Q20.85526,16.835359,20.91668,16.876398000000002Q20.9781,16.917437,21.03033,16.96967Q21.08256,17.021903000000002,21.1236,17.083322Q21.16464,17.144742,21.19291,17.212987Q21.22118,17.281233,21.235590000000002,17.353682Q21.25,17.4261315,21.25,17.5Q21.25,17.5738685,21.235590000000002,17.646318Q21.22118,17.718767,21.19291,17.787013Q21.16464,17.855258,21.1236,17.916678Q21.08256,17.978096999999998,21.03033,18.03033Q20.9781,18.082563,20.91668,18.123601999999998Q20.85526,18.164641,20.78701,18.19291Q20.71877,18.221178,20.64632,18.235589Q20.57387,18.25,20.5,18.25ZM21.25,17.5Q21.25,17.5738685,21.235590000000002,17.646318Q21.22118,17.718767,21.19291,17.787013Q21.16464,17.855258,21.1236,17.916678Q21.08256,17.978096999999998,21.03033,18.03033Q20.9781,18.082563,20.91668,18.123601999999998Q20.85526,18.164641,20.78701,18.19291Q20.71877,18.221178,20.64632,18.235589Q20.57387,18.25,20.5,18.25Q20.42613,18.25,20.35368,18.235589Q20.28123,18.221178,20.21299,18.19291Q20.14474,18.164641,20.08332,18.123601999999998Q20.0219,18.082563,19.96967,18.03033Q19.91744,17.978096999999998,19.8764,17.916678Q19.83536,17.855258,19.80709,17.787013Q19.77882,17.718767,19.76441,17.646318Q19.75,17.5738685,19.75,17.5Q19.75,17.4261315,19.76441,17.353682Q19.77882,17.281233,19.80709,17.212987Q19.83536,17.144742,19.8764,17.083322Q19.91744,17.021903000000002,19.96967,16.96967Q20.0219,16.917437,20.08332,16.876398000000002Q20.14474,16.835359,20.21299,16.80709Q20.28123,16.778822,20.35368,16.764411Q20.42613,16.75,20.5,16.75Q20.57387,16.75,20.64632,16.764411Q20.71877,16.778822,20.78701,16.80709Q20.85526,16.835359,20.91668,16.876398000000002Q20.9781,16.917437,21.03033,16.96967Q21.08256,17.021903000000002,21.1236,17.083322Q21.16464,17.144742,21.19291,17.212987Q21.22118,17.281233,21.235590000000002,17.353682Q21.25,17.4261315,21.25,17.5ZM19,17.5Q19,17.5738685,18.985589,17.646318Q18.971178,17.718767,18.94291,17.787013Q18.914641,17.855258,18.873601999999998,17.916678Q18.832563,17.978096999999998,18.78033,18.03033Q18.728096999999998,18.082563,18.666678,18.123601999999998Q18.605258,18.164641,18.537013,18.19291Q18.468767,18.221178,18.396318,18.235589Q18.3238685,18.25,18.25,18.25Q18.1761315,18.25,18.103682,18.235589Q18.031233,18.221178,17.962987,18.19291Q17.894742,18.164641,17.833322,18.123601999999998Q17.771903000000002,18.082563,17.71967,18.03033Q17.667437,17.978096999999998,17.626398000000002,17.916678Q17.585359,17.855258,17.55709,17.787013Q17.528822,17.718767,17.514411,17.646318Q17.5,17.5738685,17.5,17.5Q17.5,17.4261315,17.514411,17.353682Q17.528822,17.281233,17.55709,17.212987Q17.585359,17.144742,17.626398000000002,17.083322Q17.667437,17.021903000000002,17.71967,16.96967Q17.771903000000002,16.917437,17.833322,16.876398000000002Q17.894742,16.835359,17.962987,16.80709Q18.031233,16.778822,18.103682,16.764411Q18.1761315,16.75,18.25,16.75Q18.3238685,16.75,18.396318,16.764411Q18.468767,16.778822,18.537013,16.80709Q18.605258,16.835359,18.666678,16.876398000000002Q18.728096999999998,16.917437,18.78033,16.96967Q18.832563,17.021903000000002,18.873601999999998,17.083322Q18.914641,17.144742,18.94291,17.212987Q18.971178,17.281233,18.985589,17.353682Q19,17.4261315,19,17.5Z" fill-opacity="1"/></g></g></g></svg>