<svg xmlns="http://www.w3.org/2000/svg" xmlns:xlink="http://www.w3.org/1999/xlink" version="1.1" viewBox="0 0 32 32"><defs><clipPath id="master_svg0_5429_73670"><rect x="0" y="0" width="32" height="32" rx="8"/></clipPath><clipPath id="master_svg1_5429_73672"><rect x="7" y="7" width="18" height="18" rx="0"/></clipPath></defs><g style="mix-blend-mode:passthrough" clip-path="url(#master_svg0_5429_73670)"><g style="mix-blend-mode:passthrough"></g><g clip-path="url(#master_svg1_5429_73672)"><g><rect x="7" y="7" width="18" height="18" rx="0" fill-opacity="0.009999999776482582"/></g><g><path d="M20.5,12.25Q22.05331,12.25,23.15165,13.348346Q24.25,14.44669,24.25,16Q24.25,17.55331,23.15165,18.65165Q22.05331,19.75,20.5,19.75L20.5,18.25Q21.431987,18.25,22.09099,17.590989999999998Q22.75,16.93199,22.75,16Q22.75,15.068010000000001,22.09099,14.40901Q21.431987,13.75,20.5,13.75L20.5,12.25Z" fill-opacity="1"/></g><g><path d="M20.5,12.25Q22.05331,12.25,23.15165,13.348346Q24.25,14.44669,24.25,16Q24.25,17.55331,23.15165,18.65165Q22.05331,19.75,20.5,19.75L20.5,18.25Q21.431987,18.25,22.09099,17.590989999999998Q22.75,16.93199,22.75,16Q22.75,15.068010000000001,22.09099,14.40901Q21.431987,13.75,20.5,13.75L20.5,12.25Z" fill-opacity="1"/></g><g><path d="M11.5,19.75Q9.9467,19.75,8.84835,18.65165Q7.75,17.55331,7.75,16Q7.75,14.44669,8.84835,13.348346Q9.9467,12.25,11.5,12.25L11.5,13.75Q10.56802,13.75,9.90901,14.40901Q9.25,15.068010000000001,9.25,16Q9.25,16.93198,9.90901,17.590989999999998Q10.56802,18.25,11.5,18.25L11.5,19.75Z" fill-opacity="1"/></g><g><path d="M11.5,19.75Q9.9467,19.75,8.84835,18.65165Q7.75,17.55331,7.75,16Q7.75,14.44669,8.84835,13.348346Q9.9467,12.25,11.5,12.25L11.5,13.75Q10.56802,13.75,9.90901,14.40901Q9.25,15.068010000000001,9.25,16Q9.25,16.93198,9.90901,17.590989999999998Q10.56802,18.25,11.5,18.25L11.5,19.75Z" fill-opacity="1"/></g><g><path d="M16,22.75Q17.5533,22.75,18.65165,21.651600000000002Q19.75,20.5533,19.75,19L19.75,13Q19.75,11.4467,18.65165,10.34835Q17.5533,9.25,16,9.25Q14.4467,9.25,13.34835,10.34835Q12.25,11.4467,12.25,13L12.25,16L12.25,17.875L12.25,18.8125L12.25,19Q12.25,19.073900000000002,12.235589000000001,19.1463Q12.221178,19.2188,12.19291,19.287Q12.164641,19.3553,12.123602,19.4167Q12.082563,19.478099999999998,12.03033,19.5303Q11.978097,19.5826,11.916678,19.6236Q11.855258,19.6646,11.787013,19.6929Q11.718767,19.7212,11.646318,19.735599999999998Q11.5738685,19.75,11.5,19.75Q11.4261315,19.75,11.353682,19.735599999999998Q11.281233,19.7212,11.212987,19.6929Q11.144742,19.6646,11.083322,19.6236Q11.021903,19.5826,10.96967,19.5303Q10.917437,19.478099999999998,10.876398,19.4167Q10.835359,19.3553,10.80709,19.287Q10.778822,19.2188,10.764410999999999,19.1463Q10.75,19.073900000000002,10.75,19L10.75,18.8125L10.75,17.875L10.75,16L10.75,13Q10.75,10.82538,12.287692,9.287689Q13.82538,7.75,16,7.75Q18.17462,7.75,19.712310000000002,9.287689Q21.25,10.82538,21.25,13L21.25,19Q21.25,21.174599999999998,19.712310000000002,22.7123Q18.17462,24.25,16,24.25Q15.92613,24.25,15.85368,24.235599999999998Q15.78123,24.2212,15.71299,24.1929Q15.644739999999999,24.1646,15.58332,24.1236Q15.521899999999999,24.0826,15.46967,24.0303Q15.41744,23.978099999999998,15.3764,23.9167Q15.33536,23.8553,15.30709,23.787Q15.27882,23.7188,15.26441,23.6463Q15.25,23.573900000000002,15.25,23.5Q15.25,23.426099999999998,15.26441,23.3537Q15.27882,23.2812,15.30709,23.213Q15.33536,23.1447,15.3764,23.0833Q15.41744,23.021900000000002,15.46967,22.9697Q15.521899999999999,22.9174,15.58332,22.8764Q15.644739999999999,22.8354,15.71299,22.8071Q15.78123,22.7788,15.85368,22.764400000000002Q15.92613,22.75,16,22.75ZM16.75,23.5Q16.75,23.573900000000002,16.735590000000002,23.6463Q16.72118,23.7188,16.69291,23.787Q16.66464,23.8553,16.6236,23.9167Q16.58256,23.978099999999998,16.53033,24.0303Q16.4781,24.0826,16.41668,24.1236Q16.35526,24.1646,16.287010000000002,24.1929Q16.21877,24.2212,16.14632,24.235599999999998Q16.07387,24.25,16,24.25Q15.92613,24.25,15.85368,24.235599999999998Q15.78123,24.2212,15.71299,24.1929Q15.644739999999999,24.1646,15.58332,24.1236Q15.521899999999999,24.0826,15.46967,24.0303Q15.41744,23.978099999999998,15.3764,23.9167Q15.33536,23.8553,15.30709,23.787Q15.27882,23.7188,15.26441,23.6463Q15.25,23.573900000000002,15.25,23.5Q15.25,23.426099999999998,15.26441,23.3537Q15.27882,23.2812,15.30709,23.213Q15.33536,23.1447,15.3764,23.0833Q15.41744,23.021900000000002,15.46967,22.9697Q15.521899999999999,22.9174,15.58332,22.8764Q15.644739999999999,22.8354,15.71299,22.8071Q15.78123,22.7788,15.85368,22.764400000000002Q15.92613,22.75,16,22.75Q16.07387,22.75,16.14632,22.764400000000002Q16.21877,22.7788,16.287010000000002,22.8071Q16.35526,22.8354,16.41668,22.8764Q16.4781,22.9174,16.53033,22.9697Q16.58256,23.021900000000002,16.6236,23.0833Q16.66464,23.1447,16.69291,23.213Q16.72118,23.2812,16.735590000000002,23.3537Q16.75,23.426099999999998,16.75,23.5ZM12.25,19Q12.25,19.073900000000002,12.235589000000001,19.1463Q12.221178,19.2188,12.19291,19.287Q12.164641,19.3553,12.123602,19.4167Q12.082563,19.478099999999998,12.03033,19.5303Q11.978097,19.5826,11.916678,19.6236Q11.855258,19.6646,11.787013,19.6929Q11.718767,19.7212,11.646318,19.735599999999998Q11.5738685,19.75,11.5,19.75Q11.4261315,19.75,11.353682,19.735599999999998Q11.281233,19.7212,11.212987,19.6929Q11.144742,19.6646,11.083322,19.6236Q11.021903,19.5826,10.96967,19.5303Q10.917437,19.478099999999998,10.876398,19.4167Q10.835359,19.3553,10.80709,19.287Q10.778822,19.2188,10.764410999999999,19.1463Q10.75,19.073900000000002,10.75,19Q10.75,18.926099999999998,10.764410999999999,18.8537Q10.778822,18.7812,10.80709,18.713Q10.835359,18.6447,10.876398,18.5833Q10.917437,18.521900000000002,10.96967,18.46967Q11.021903,18.41744,11.083322,18.3764Q11.144742,18.33536,11.212987,18.307090000000002Q11.281233,18.27882,11.353682,18.264409999999998Q11.4261315,18.25,11.5,18.25Q11.5738685,18.25,11.646318,18.264409999999998Q11.718767,18.27882,11.787013,18.307090000000002Q11.855258,18.33536,11.916678,18.3764Q11.978097,18.41744,12.03033,18.46967Q12.082563,18.521900000000002,12.123602,18.5833Q12.164641,18.6447,12.19291,18.713Q12.221178,18.7812,12.235589000000001,18.8537Q12.25,18.926099999999998,12.25,19Z" fill-opacity="1"/></g></g></g></svg>