<svg xmlns="http://www.w3.org/2000/svg" xmlns:xlink="http://www.w3.org/1999/xlink" version="1.1"  viewBox="0 0 9.333333015441907 11.377777099609386"><g style="mix-blend-mode:passthrough" transform="matrix(1,-1.1256860345937574e-15,1.1256860345937574e-15,1,-1.181025613629206e-29,0)"><path d="M4.66667,1.049160758270773e-14C4.66667,1.049160758270773e-14,9.33333,6.022960000000011,9.33333,6.022960000000011C9.33333,6.022960000000011,6.27022,5.3379600000000105,6.27022,5.3379600000000105C6.27022,5.3379600000000105,6.221,5.358930000000011,6.221,5.358930000000011C6.221,5.358930000000011,6.18286,5.639750000000011,6.18286,5.639750000000011C5.74152,8.46214000000001,3.91226,10.713200000000011,1.55816,11.377800000000011C2.30701,10.30340000000001,2.60023,10.01830000000001,2.87227,8.49106000000001C3.05362,7.47289000000001,3.13639,6.4277200000000105,3.12057,5.355550000000011C3.12057,5.355550000000011,3.203,5.35467000000001,3.203,5.35467000000001C3.203,5.35467000000001,3.16553,5.3379600000000105,3.16553,5.3379600000000105C3.16553,5.3379600000000105,0,6.022960000000011,0,6.022960000000011C0,6.022960000000011,4.66667,1.049160758270773e-14,4.66667,1.049160758270773e-14C4.66667,1.049160758270773e-14,4.66667,1.049160758270773e-14,4.66667,1.049160758270773e-14Z" fill-rule="evenodd" fill="#F53F3F" fill-opacity="1"/></g></svg>