<svg xmlns="http://www.w3.org/2000/svg" xmlns:xlink="http://www.w3.org/1999/xlink" version="1.1" viewBox="0 0 32 32"><defs><clipPath id="master_svg0_5429_73679"><rect x="0" y="0" width="32" height="32" rx="8"/></clipPath><clipPath id="master_svg1_5429_73681"><rect x="7" y="7" width="18" height="18" rx="0"/></clipPath></defs><g style="mix-blend-mode:passthrough" clip-path="url(#master_svg0_5429_73679)"><g style="mix-blend-mode:passthrough"></g><g clip-path="url(#master_svg1_5429_73681)"><g><rect x="7" y="7" width="18" height="18" rx="0" fill-opacity="0.009999999776482582"/></g><g><path d="M23.6009,23.500861035156248L15.35093,9.25083803515625L16,8.87506103515625L16.649070000000002,9.25083803515625L8.39907,23.500861035156248L7.75,23.12506103515625L7.75,22.37506103515625L24.25,22.37506103515625L24.25,23.12506103515625L23.6009,23.500861035156248ZM24.8991,22.749261035156252Q25,22.92366103515625,25,23.12506103515625Q25,23.198961035156252,24.9856,23.27136103515625Q24.9712,23.34386103515625,24.9429,23.41206103515625Q24.9146,23.48036103515625,24.8736,23.54176103515625Q24.8326,23.603161035156248,24.7803,23.65536103515625Q24.7281,23.70766103515625,24.6667,23.74866103515625Q24.6053,23.78966103515625,24.537,23.81796103515625Q24.4688,23.84626103515625,24.3963,23.860661035156248Q24.3239,23.87506103515625,24.25,23.87506103515625L7.7499999701977,23.87506103515625Q7.548557,23.87506103515625,7.374223,23.77416103515625Q7.310295,23.737161035156248,7.254816,23.688361035156248Q7.199337,23.639561035156248,7.154439,23.58096103515625Q7.109541,23.522261035156248,7.076949,23.45596103515625Q7.044357,23.38966103515625,7.025324,23.31836103515625Q7.006291,23.24696103515625,7.001548,23.17326103515625Q6.996805,23.09946103515625,7.006534,23.02626103515625Q7.016264,22.95306103515625,7.040092,22.88316103515625Q7.063919,22.813261035156252,7.10093,22.749261035156252L15.35093,8.49928403515625Q15.451139999999999,8.32619903515625,15.624220000000001,8.22599103515625Q15.68815,8.18898003515625,15.75807,8.16515303515625Q15.82799,8.14132503515625,15.90121,8.13159503515625Q15.97444,8.12186603515625,16.04815,8.12660903515625Q16.12187,8.131352035156251,16.19325,8.15038503515625Q16.26462,8.16941803515625,16.33091,8.20201003515625Q16.397199999999998,8.23460203515625,16.45586,8.27950003515625Q16.51451,8.32439803515625,16.563290000000002,8.37987703515625Q16.61206,8.43535603515625,16.649070000000002,8.49928403515625L24.8991,22.749261035156252Z" fill-opacity="1"/></g><g><path d="M15.25,20.50006103515625L15.25,20.12506103515625Q15.25,20.05119253515625,15.264410999999999,19.97874303515625Q15.278822,19.90629403515625,15.30709,19.83804803515625Q15.335359,19.76980303515625,15.376398,19.70838303515625Q15.417437,19.646964035156252,15.46967,19.59473103515625Q15.521903,19.54249803515625,15.583322,19.501459035156252Q15.644742,19.46042003515625,15.712987,19.43215103515625Q15.781233,19.40388303515625,15.853682,19.38947203515625Q15.9261315,19.37506103515625,16,19.37506103515625Q16.0738685,19.37506103515625,16.146318,19.38947203515625Q16.218767,19.40388303515625,16.287013,19.43215103515625Q16.355258,19.46042003515625,16.416678,19.501459035156252Q16.478096999999998,19.54249803515625,16.53033,19.59473103515625Q16.582563,19.646964035156252,16.623601999999998,19.70838303515625Q16.664641,19.76980303515625,16.69291,19.83804803515625Q16.721178,19.90629403515625,16.735589,19.97874303515625Q16.75,20.05119253515625,16.75,20.12506103515625L16.75,20.50006103515625Q16.75,20.57392903515625,16.735589,20.64637903515625Q16.721178,20.71882803515625,16.69291,20.78707303515625Q16.664641,20.85531903515625,16.623601999999998,20.91673903515625Q16.582563,20.978158035156248,16.53033,21.03039103515625Q16.478096999999998,21.08262403515625,16.416678,21.123663035156248Q16.355258,21.16470103515625,16.287013,21.19297103515625Q16.218767,21.22124103515625,16.146318,21.23565103515625Q16.0738685,21.25006103515625,16,21.25006103515625Q15.9261315,21.25006103515625,15.853682,21.23565103515625Q15.781233,21.22124103515625,15.712987,21.19297103515625Q15.644742,21.16470103515625,15.583322,21.123663035156248Q15.521903,21.08262403515625,15.46967,21.03039103515625Q15.417437,20.978158035156248,15.376398,20.91673903515625Q15.335359,20.85531903515625,15.30709,20.78707303515625Q15.278822,20.71882803515625,15.264410999999999,20.64637903515625Q15.25,20.57392903515625,15.25,20.50006103515625ZM16.75,20.50006103515625Q16.75,20.57392903515625,16.735589,20.64637903515625Q16.721178,20.71882803515625,16.69291,20.78707303515625Q16.664641,20.85531903515625,16.623601999999998,20.91673903515625Q16.582563,20.978158035156248,16.53033,21.03039103515625Q16.478096999999998,21.08262403515625,16.416678,21.123663035156248Q16.355258,21.16470103515625,16.287013,21.19297103515625Q16.218767,21.22124103515625,16.146318,21.23565103515625Q16.0738685,21.25006103515625,16,21.25006103515625Q15.9261315,21.25006103515625,15.853682,21.23565103515625Q15.781233,21.22124103515625,15.712987,21.19297103515625Q15.644742,21.16470103515625,15.583322,21.123663035156248Q15.521903,21.08262403515625,15.46967,21.03039103515625Q15.417437,20.978158035156248,15.376398,20.91673903515625Q15.335359,20.85531903515625,15.30709,20.78707303515625Q15.278822,20.71882803515625,15.264410999999999,20.64637903515625Q15.25,20.57392903515625,15.25,20.50006103515625Q15.25,20.42619203515625,15.264410999999999,20.35374303515625Q15.278822,20.28129403515625,15.30709,20.21304843515625Q15.335359,20.14480283515625,15.376398,20.08338333515625Q15.417437,20.021964035156252,15.46967,19.96973103515625Q15.521903,19.91749803515625,15.583322,19.876459035156252Q15.644742,19.83542003515625,15.712987,19.80715103515625Q15.781233,19.77888303515625,15.853682,19.76447203515625Q15.9261315,19.75006103515625,16,19.75006103515625Q16.0738685,19.75006103515625,16.146318,19.76447203515625Q16.218767,19.77888303515625,16.287013,19.80715103515625Q16.355258,19.83542003515625,16.416678,19.876459035156252Q16.478096999999998,19.91749803515625,16.53033,19.96973103515625Q16.582563,20.021964035156252,16.623601999999998,20.08338333515625Q16.664641,20.14480283515625,16.69291,20.21304843515625Q16.721178,20.28129403515625,16.735589,20.35374303515625Q16.75,20.42619203515625,16.75,20.50006103515625ZM16.75,20.12506103515625Q16.75,20.19892953515625,16.735589,20.27137903515625Q16.721178,20.34382803515625,16.69291,20.41207403515625Q16.664641,20.48031903515625,16.623601999999998,20.54173903515625Q16.582563,20.603158035156248,16.53033,20.65539103515625Q16.478096999999998,20.70762403515625,16.416678,20.748663035156248Q16.355258,20.78970203515625,16.287013,20.81797103515625Q16.218767,20.84623903515625,16.146318,20.86065003515625Q16.0738685,20.87506103515625,16,20.87506103515625Q15.9261315,20.87506103515625,15.853682,20.86065003515625Q15.781233,20.84623903515625,15.712987,20.81797103515625Q15.644742,20.78970203515625,15.583322,20.748663035156248Q15.521903,20.70762403515625,15.46967,20.65539103515625Q15.417437,20.603158035156248,15.376398,20.54173903515625Q15.335359,20.48031903515625,15.30709,20.41207403515625Q15.278822,20.34382803515625,15.264410999999999,20.27137903515625Q15.25,20.19892953515625,15.25,20.12506103515625Q15.25,20.05119253515625,15.264410999999999,19.97874303515625Q15.278822,19.90629403515625,15.30709,19.83804803515625Q15.335359,19.76980303515625,15.376398,19.70838303515625Q15.417437,19.646964035156252,15.46967,19.59473103515625Q15.521903,19.54249803515625,15.583322,19.501459035156252Q15.644742,19.46042003515625,15.712987,19.43215103515625Q15.781233,19.40388303515625,15.853682,19.38947203515625Q15.9261315,19.37506103515625,16,19.37506103515625Q16.0738685,19.37506103515625,16.146318,19.38947203515625Q16.218767,19.40388303515625,16.287013,19.43215103515625Q16.355258,19.46042003515625,16.416678,19.501459035156252Q16.478096999999998,19.54249803515625,16.53033,19.59473103515625Q16.582563,19.646964035156252,16.623601999999998,19.70838303515625Q16.664641,19.76980303515625,16.69291,19.83804803515625Q16.721178,19.90629403515625,16.735589,19.97874303515625Q16.75,20.05119253515625,16.75,20.12506103515625Z" fill-opacity="1"/></g><g><path d="M15.253113,17.875684140625L15.25,14.125866729625Q15.249939,14.051998240625,15.26429,13.979537140625Q15.278641,13.907076140625,15.306852,13.838807140625Q15.335064,13.770538140625,15.376052,13.709084140625Q15.41704,13.647631140625,15.46923,13.595354140625Q15.521419,13.543078140625,15.582805,13.501988140625Q15.64419,13.460898140625,15.712412,13.432573140625Q15.780635,13.404248140625,15.853072,13.389777140625Q15.9255089,13.375306140625,15.999377411,13.375244140625Q16.0732459,13.375183140625,16.145707,13.389534140625Q16.218168,13.403885140625,16.286437,13.432096140625Q16.354706,13.460308140625,16.41616,13.501296140625Q16.477613,13.542284140625,16.52989,13.594474140625Q16.582166,13.646663140625,16.623256,13.708049140625Q16.664346,13.769434140625,16.692671,13.837656140625Q16.720996,13.905879140625,16.735467,13.978316140625Q16.749938,14.050753040625,16.75,14.124621551625L16.753113,17.874434140625Q16.753174,17.948304140624998,16.738823,18.020764140625Q16.724472,18.093224140625,16.69626,18.161494140625Q16.668049,18.229764140625,16.627061,18.291214140625Q16.586072,18.352674140625,16.533883,18.404944140625Q16.481693,18.457224140625,16.420308,18.498314140625Q16.358923,18.539404140625,16.2907,18.567724140625Q16.222478,18.596054140625,16.150041,18.610524140625Q16.0776039,18.624994140625,16.00373538,18.625054140625Q15.9298669,18.625114140625,15.857406,18.610764140625Q15.784945,18.596414140625,15.716676,18.568204140625Q15.648406,18.539994140624998,15.586953,18.499004140625Q15.525499,18.458014140625,15.473223,18.405824140625Q15.420947,18.353634140625,15.379857,18.292254140625Q15.338767,18.230864140625002,15.310442,18.162644140624998Q15.282117,18.094424140625,15.267646,18.021984140625Q15.253174,17.949544140625,15.253113,17.875684140625ZM16.753113,17.875054140625Q16.753113,17.948924140625,16.738702,18.021374140625Q16.724291,18.093824140625,16.696022,18.162064140625Q16.667754,18.230314140625,16.626715,18.291734140625Q16.585676,18.353154140625,16.533443,18.405384140625Q16.48121,18.457624140625,16.41979,18.498654140625Q16.358370999999998,18.539694140625002,16.290125,18.567964140625Q16.22188,18.596234140625,16.149431,18.610644140625Q16.0769813,18.625054140625,16.00311279,18.625054140625Q15.9292443,18.625054140625,15.856795,18.610644140625Q15.784346,18.596234140625,15.7161,18.567964140625Q15.647855,18.539694140625002,15.586435,18.498654140625Q15.525016,18.457624140625,15.472783,18.405384140625Q15.42055,18.353154140625,15.379511,18.291734140625Q15.338472,18.230314140625,15.310203,18.162064140625Q15.281935,18.093824140625,15.267524,18.021374140625Q15.253113,17.948924140625,15.253113,17.875054140625Q15.253113,17.801184140625,15.267524,17.728734140625Q15.281935,17.656294140625,15.310203,17.588044140625Q15.338472,17.519794140625,15.379511,17.458374140625Q15.42055,17.396954140625,15.472783,17.344724140625Q15.525016,17.292494140625,15.586435,17.251454140625Q15.647855,17.210414140625,15.7161,17.182144140625Q15.784346,17.153874140625,15.856795,17.139464140625Q15.9292443,17.125054140625,16.00311279,17.125054140625Q16.0769813,17.125054140625,16.149431,17.139464140625Q16.22188,17.153874140625,16.290125,17.182144140625Q16.358370999999998,17.210414140625,16.41979,17.251454140625Q16.48121,17.292494140625,16.533443,17.344724140625Q16.585676,17.396954140625,16.626715,17.458374140625Q16.667754,17.519794140625,16.696022,17.588044140625Q16.724291,17.656294140625,16.738702,17.728734140625Q16.753113,17.801184140625,16.753113,17.875054140625ZM16.75,14.125244140625Q16.75,14.199112640625,16.735589,14.271562140625Q16.721178,14.344011140625,16.69291,14.412257140625Q16.664641,14.480502140625,16.623601999999998,14.541922140625Q16.582563,14.603341140625,16.53033,14.655574140625Q16.478096999999998,14.707807140625,16.416678,14.748846140625Q16.355258,14.789885140625,16.287013,14.818154140625Q16.218767,14.846422140625,16.146318,14.860833140625001Q16.0738685,14.875244140625,16,14.875244140625Q15.9261315,14.875244140625,15.853682,14.860833140625001Q15.781233,14.846422140625,15.712987,14.818154140625Q15.644742,14.789885140625,15.583322,14.748846140625Q15.521903,14.707807140625,15.46967,14.655574140625Q15.417437,14.603341140625,15.376398,14.541922140625Q15.335359,14.480502140625,15.30709,14.412257140625Q15.278822,14.344011140625,15.264410999999999,14.271562140625Q15.25,14.199112640625,15.25,14.125244140625Q15.25,14.051375640625,15.264410999999999,13.978926140625Q15.278822,13.906477140625,15.30709,13.838231140625Q15.335359,13.769986140625,15.376398,13.708566140625Q15.417437,13.647147140625,15.46967,13.594914140625Q15.521903,13.542681140625,15.583322,13.501642140625Q15.644742,13.460603140625,15.712987,13.432334140625Q15.781233,13.404066140625,15.853682,13.389655140624999Q15.9261315,13.375244140625,16,13.375244140625Q16.0738685,13.375244140625,16.146318,13.389655140624999Q16.218767,13.404066140625,16.287013,13.432334140625Q16.355258,13.460603140625,16.416678,13.501642140625Q16.478096999999998,13.542681140625,16.53033,13.594914140625Q16.582563,13.647147140625,16.623601999999998,13.708566140625Q16.664641,13.769986140625,16.69291,13.838231140625Q16.721178,13.906477140625,16.735589,13.978926140625Q16.75,14.051375640625,16.75,14.125244140625Z" fill-opacity="1"/></g></g></g></svg>