<svg xmlns="http://www.w3.org/2000/svg" xmlns:xlink="http://www.w3.org/1999/xlink" version="1.1" viewBox="0 0 24 24"><defs><clipPath id="master_svg0_94_22861"><rect x="0" y="0" width="24" height="24" rx="0"/></clipPath></defs><g clip-path="url(#master_svg0_94_22861)"><g><path d="M4.5966249999999995,20.2732328125C3.512808,20.2711328125,2.728681,19.2375328125,3.018625,18.1932328125L5.381625,9.8671928125C5.582295,9.164672812500001,6.223005000000001,8.6792428125,6.953625,8.6761928125L8.519625,8.6761928125L8.519625,6.908192812499999C8.519625,6.4939828125000005,8.855415,6.158192812499999,9.269625,6.158192812499999C9.683835,6.158192812499999,10.019625,6.4939828125000005,10.019625,6.908192812499999L10.019625,8.6761928125L13.980625,8.6761928125L13.980625,6.908192812499999C13.958425,6.4787828125,14.300625,6.1184528125,14.730625,6.1184528125C15.160625,6.1184528125,15.502825,6.4787828125,15.480625,6.908192812499999L15.480625,8.6761928125L17.041625,8.6761928125C17.772225,8.680682812499999,18.412725000000002,9.1653528125,18.615625,9.8671928125L20.972625,18.1932328125C21.116725,18.6843328125,21.017925,19.2148328125,20.706625,19.6212328125C20.398925,20.0333328125,19.914025,20.2752328125,19.399625,20.2732328125L4.5966249999999995,20.2732328125ZM6.821625,10.2731928125L4.464625,18.5992328125C4.4519850000000005,18.6386328125,4.459865,18.6817328125,4.485625,18.7142328125C4.512065,18.748532812500002,4.553295,18.768232812500003,4.5966249999999995,18.767232812499998L19.396625,18.767232812499998C19.436725,18.7675328125,19.474325,18.7476328125,19.496625,18.7142328125C19.525525,18.6834328125,19.536525,18.6399328125,19.525625,18.5992328125L17.162625,10.2731928125C17.146025,10.2152828125,17.093825000000002,10.174802812500001,17.033625,10.1731928125L6.945625,10.1731928125C6.885475,10.177862812499999,6.834505,10.2192728125,6.817625,10.277192812500001L6.821625,10.2731928125ZM9.145624999999999,14.4372328125C9.145995,12.8614128125,10.423665,11.5841928125,11.999625,11.5841928125C13.575925,11.5845628125,14.853625,12.8622328125,14.853625,14.4382328125C14.853825,16.013932812500002,13.576625,17.291632812499998,12.000625,17.2922328125C10.425865,17.291132812500003,9.148935,16.015932812499997,9.145624999999999,14.4412328125L9.145624999999999,14.4372328125ZM10.645625,14.4372328125C10.646175,15.1844328125,11.252385,15.7897328125,11.999625,15.7892328125C12.746825,15.7886328125,13.352225,15.1824328125,13.351625,14.4352328125C13.351025,13.6879528125,12.744825,13.0826428125,11.997625,13.0831928125C11.249915,13.0848428125,10.645745,13.6934928125,10.649625,14.4412328125L10.645625,14.4372328125ZM19.975625,8.0421928125L19.975625,7.2781928125C19.845525,6.0303728125,18.739525,5.1169728125,17.489625,5.2251928125L6.499625,5.2251928125C5.250465,5.1181328125,4.145685,6.031222812499999,4.015625,7.2781928125L4.015625,8.0421928125C4.015625,8.4564028125,3.6798349999999997,8.7921928125,3.265625,8.7921928125C2.851411,8.7921928125,2.515625,8.4564028125,2.515625,8.0421928125L2.515625,7.2781928125C2.643886,5.2027728125,4.4211849999999995,3.6187408125,6.497625,3.7291939225L17.487625,3.7291939225C19.565925,3.6175198125,21.346225,5.2010328125,21.477625,7.2781928125L21.477625,8.0421928125C21.448925,8.4352028125,21.121625,8.7393828125,20.727625,8.7393828125C20.333525,8.7393828125,20.006325,8.4352028125,19.977625,8.0421928125L19.975625,8.0421928125Z" fill-opacity="1"/></g></g></svg>