<svg width="16" height="16" viewBox="0 0 16 16"  xmlns="http://www.w3.org/2000/svg">
<path fill-rule="evenodd" clip-rule="evenodd" d="M3 2C2.44772 2 2 2.44772 2 3V13C2 13.5523 2.44772 14 3 14H13C13.5523 14 14 13.5523 14 13V3C14 2.44772 13.5523 2 13 2H3ZM7.2 4C7.08954 4 7 4.08954 7 4.2V8C7 8.15738 7.0741 8.30557 7.2 8.4L11.04 11.28C11.1284 11.3463 11.2537 11.3284 11.32 11.24L11.68 10.76C11.7463 10.6716 11.7284 10.5463 11.64 10.48L8.2 7.9C8.0741 7.80557 8 7.65738 8 7.5V4.2C8 4.08954 7.91046 4 7.8 4H7.2Z" />
</svg>
