<svg xmlns="http://www.w3.org/2000/svg" xmlns:xlink="http://www.w3.org/1999/xlink" version="1.1" viewBox="0 0 24 24"><g style="mix-blend-mode:passthrough"><g style="opacity:0.00009999999747378752;"><rect x="0" y="0" width="24" height="24" rx="0" fill="#000000" fill-opacity="1"/></g><g style="mix-blend-mode:passthrough"><g style="mix-blend-mode:passthrough"><path d="M21.233,8.868439882812499C21.7508,8.868439882812499,22.1552,9.2944598828125,22.2802,9.953369882812499L22.2805,9.9552698828125C22.2917,10.0140598828125,22.5,11.1220298828125,22.5,12.0115098828125C22.5,12.8959298828125,22.2936,13.9977298828125,22.2807,14.0649298828125L22.28,14.0684298828125C22.1549,14.7273298828125,21.7499,15.1534298828125,21.2479,15.1534298828125L21.1432,15.1534298828125C19.7434,15.1534298828125,18.6048,16.2920298828125,18.6048,17.6918298828125C18.6048,18.1090298828125,18.7893,18.5712298828125,18.8221,18.6507298828125C18.8253,18.6585298828125,18.8283,18.6653298828125,18.8317,18.6731298828125C19.0795,19.2453298828125,18.8854,19.9423298828125,18.3763,20.3078298828125C18.3672,20.3144298828125,18.3581,20.3204298828125,18.3486,20.3265298828125C18.3319,20.3373298828125,18.3147,20.3475298828125,18.2973,20.3572298828125L15.6943,21.7916298828125C15.6657,21.8074298828125,15.6368,21.8219298828125,15.6063,21.8337298828125C15.4495,21.8945298828125,15.2802,21.9266298828125,15.1022,21.9266298828125C14.6848,21.9266298828125,14.2771,21.7518298828125,14.0114,21.4615298828125C14.0106,21.4607298828125,14.0101,21.4602298828125,14.0094,21.4593298828125C13.72,21.1407298828125,12.7216,20.2387298828125,11.9462,20.2387298828125C11.23113,20.2387298828125,10.25783,21.0437298828125,9.89645,21.4333298828125C9.89513,21.4348298828125,9.8942,21.4358298828125,9.89289,21.4372298828125C9.5038,21.8607298828125,8.787189999999999,22.0131298828125,8.25548,21.7815298828125C8.25253,21.7802298828125,8.24989,21.7790298828125,8.24696,21.7777298828125C8.22368,21.7671298828125,8.200859999999999,21.7556298828125,8.17857,21.7431298828125L5.67781,20.3400298828125C5.64928,20.3240298828125,5.62216,20.3074298828125,5.59605,20.2877298828125C5.10628,19.9178298828125,4.92453,19.2321298828125,5.17101,18.6658298828125C5.1731300000000005,18.6610298828125,5.174939999999999,18.6568298828125,5.17698,18.6519298828125C5.20401,18.5870298828125,5.39525,18.1137298828125,5.39525,17.6918298828125C5.39525,16.2919298828125,4.2566500000000005,15.1533298828125,2.85683,15.1533298828125L2.767,15.1533298828125C2.2504530000000003,15.1533298828125,1.846779,14.7290298828125,1.720824,14.0725298828125C1.720046,14.0684298828125,1.7193640000000001,14.0649298828125,1.718581,14.0609298828125C1.699527,13.9622298828125,1.5,12.8816298828125,1.5,12.0114798828125C1.5,11.1376798828125,1.7006809999999999,10.052939882812499,1.718741,9.9593598828125C1.71942,9.9558398828125,1.719995,9.9528798828125,1.720669,9.949369882812501C1.846447,9.2927298828125,2.250199,8.8684698828125,2.75069,8.8684698828125L2.85683,8.8684698828125C4.2566500000000005,8.8684698828125,5.39525,7.7298998828125,5.39525,6.3296498828125C5.39525,5.9090998828125,5.20775,5.4427998828124995,5.17722,5.369229882812499C5.17457,5.3628398828125,5.17206,5.3570998828125,5.1693,5.3507498828125C4.92102,4.7790498828125,5.11435,4.0805398828125,5.62298,3.7153398828124997C5.63315,3.7080398828125,5.64324,3.7013898828125003,5.6538,3.6946598828125C5.67045,3.6840598828125,5.68744,3.6740198828125,5.70474,3.6645398828125L8.35659,2.2116128828125C8.384879999999999,2.1961138828125,8.41417,2.1815394828125,8.44431,2.1700586828125C8.969940000000001,1.9698718828125,9.65243,2.1265847828125,10.03273,2.5256478828125L10.03419,2.5271848828125C10.32013,2.8258728828125,11.29883,3.6750498828125,12.0538,3.6750498828125C12.7984,3.6750498828125,13.7738,2.8441798828125,14.0593,2.5502968828125C14.0605,2.5490948828125,14.0613,2.5482908828125,14.0624,2.5470848828125C14.4501,2.1447764828125,15.1562,1.9982931828125,15.6793,2.2148018828125C15.6916,2.2199038828125,15.7034,2.2254398828125,15.7154,2.2313048828125C15.7292,2.2380358828125,15.7427,2.2451278828125,15.7561,2.2525758828125L18.318,3.6790298828125003C18.3479,3.6956398828125003,18.3768,3.7133398828125,18.404,3.7339998828125003C18.8917,4.1044898828125,19.0737,4.786269882812499,18.8311,5.3493398828125C18.8271,5.358639882812501,18.8235,5.3669598828125,18.8197,5.376329882812501C18.7849,5.4619598828125,18.6048,5.922109882812499,18.6048,6.3296198828125C18.6048,7.7298698828125,19.7434,8.868439882812499,21.1432,8.868439882812499L21.233,8.868439882812499ZM8.21884,11.9972698828125C8.21884,9.9375698828125,9.89479,8.2615998828125,11.9545,8.2615998828125C14.0142,8.2615998828125,15.6902,9.9375698828125,15.6902,11.9972698828125C15.6902,14.0573298828125,14.0142,15.7325298828125,11.9545,15.7325298828125C9.89482,15.7325298828125,8.21884,14.0573298828125,8.21884,11.9972698828125ZM11.9545,14.2094298828125C13.1747,14.2094298828125,14.1671,13.2171298828125,14.1671,11.9972698828125C14.1671,10.7781398828125,13.1747,9.785429882812501,11.9545,9.7854098828125C10.73426,9.7854098828125,9.74262,10.7781398828125,9.74262,11.9972698828125C9.74262,13.2171298828125,10.73426,14.2094298828125,11.9545,14.2094298828125Z" fill-rule="evenodd" fill-opacity="1"/></g></g></g></svg>