<svg width="16" height="16" viewBox="0 0 16 16"  xmlns="http://www.w3.org/2000/svg">
<path fill-rule="evenodd" clip-rule="evenodd" d="M3 2C2.44772 2 2 2.44772 2 3V13C2 13.5523 2.44772 14 3 14H13C13.5523 14 14 13.5523 14 13V3C14 2.44772 13.5523 2 13 2H3ZM4.7 5.8999C4.58954 5.8999 4.5 5.98945 4.5 6.0999V7.0499C4.5 7.16036 4.58954 7.2499 4.7 7.2499H11.3C11.4105 7.2499 11.5 7.16036 11.5 7.0499V6.0999C11.5 5.98945 11.4105 5.8999 11.3 5.8999H4.7ZM4.5 9.0999C4.5 8.98945 4.58954 8.8999 4.7 8.8999H5.65C5.76046 8.8999 5.85 8.98945 5.85 9.0999V10.0499C5.85 10.1604 5.76046 10.2499 5.65 10.2499H4.7C4.58954 10.2499 4.5 10.1604 4.5 10.0499V9.0999ZM7.2 8.8999C7.08954 8.8999 7 8.98945 7 9.0999V10.0499C7 10.1604 7.08954 10.2499 7.2 10.2499H8.15C8.26046 10.2499 8.35 10.1604 8.35 10.0499V9.0999C8.35 8.98945 8.26046 8.8999 8.15 8.8999H7.2Z" />
</svg>
