<svg xmlns="http://www.w3.org/2000/svg" xmlns:xlink="http://www.w3.org/1999/xlink" fill="none" version="1.1" width="16" height="16" viewBox="0 0 16 16"><defs><clipPath id="master_svg0_39_07752"><rect x="0" y="0" width="16" height="16" rx="0"/></clipPath></defs><g clip-path="url(#master_svg0_39_07752)"><g><rect x="0" y="0" width="16" height="16" rx="0" fill="#FFFFFF" fill-opacity="0.009999999776482582"/></g><g><path d="M1.5,3.3336591875C1.5,2.9654691875,1.791015,2.6669921875,2.15,2.6669921875L13.85,2.6669921875C14.209,2.6669921875,14.5,2.9654691875,14.5,3.3336591875L14.5,12.6669921875C14.5,13.0351921875,14.209,13.3336921875,13.85,13.3336921875L2.15,13.3336921875C1.791015,13.3336921875,1.5,13.0351921875,1.5,12.6669921875L1.5,3.3336591875Z" fill="#005BD9" fill-opacity="1"/></g><g><path d="" fill="#FFFFFF" fill-opacity="1"/><path d="M12,11.1669921875L10,11.1669921875Q9.9507543,11.1669921875,9.9024549,11.1573851875Q9.854155,11.147777187500001,9.808658,11.1289321875Q9.763161,11.1100861875,9.722215,11.0827271875Q9.681269,11.0553671875,9.646447,11.0205451875Q9.611625,10.9857231875,9.584265,10.9447771875Q9.556906,10.9038311875,9.53806,10.8583341875Q9.519214999999999,10.8128371875,9.509607,10.7645372875Q9.5,10.7162378875,9.5,10.6669921875Q9.5,10.6177464875,9.509607,10.5694470875Q9.519214999999999,10.5211471875,9.53806,10.4756501875Q9.556906,10.4301531875,9.584265,10.3892071875Q9.611625,10.3482611875,9.646447,10.3134391875Q9.681269,10.2786171875,9.722215,10.2512571875Q9.763161,10.2238981875,9.808658,10.2050521875Q9.854155,10.186207187499999,9.9024549,10.1765991875Q9.9507543,10.1669921875,10,10.1669921875L12,10.1669921875Q12.04925,10.1669921875,12.09754,10.1765991875Q12.14584,10.186207187499999,12.19134,10.2050521875Q12.23684,10.2238981875,12.27778,10.2512571875Q12.31873,10.2786171875,12.35355,10.3134391875Q12.38838,10.3482611875,12.41573,10.3892071875Q12.44309,10.4301531875,12.46194,10.4756501875Q12.48078,10.5211471875,12.49039,10.5694470875Q12.5,10.6177464875,12.5,10.6669921875Q12.5,10.7162378875,12.49039,10.7645372875Q12.48078,10.8128371875,12.46194,10.8583341875Q12.44309,10.9038311875,12.41573,10.9447771875Q12.38838,10.9857231875,12.35355,11.0205451875Q12.31873,11.0553671875,12.27779,11.0827271875Q12.23684,11.1100861875,12.19134,11.1289321875Q12.14584,11.147777187500001,12.09754,11.1573851875Q12.04925,11.1669921875,12,11.1669921875ZM12.5,10.6669921875Q12.5,10.7162378875,12.49039,10.7645372875Q12.48078,10.8128371875,12.46194,10.8583341875Q12.44309,10.9038311875,12.41573,10.9447771875Q12.38838,10.9857231875,12.35355,11.0205451875Q12.31873,11.0553671875,12.27779,11.0827271875Q12.23684,11.1100861875,12.19134,11.1289321875Q12.14584,11.147777187500001,12.09754,11.1573851875Q12.04925,11.1669921875,12,11.1669921875Q11.95075,11.1669921875,11.90245,11.1573851875Q11.85416,11.147777187500001,11.80866,11.1289321875Q11.76316,11.1100861875,11.72221,11.0827271875Q11.68127,11.0553671875,11.64645,11.0205451875Q11.61162,10.9857231875,11.58426,10.9447771875Q11.55691,10.9038311875,11.53806,10.8583341875Q11.51921,10.8128371875,11.50961,10.7645372875Q11.5,10.7162378875,11.5,10.6669921875Q11.5,10.6177464875,11.50961,10.5694470875Q11.51921,10.5211471875,11.53806,10.4756501875Q11.55691,10.4301531875,11.58426,10.3892071875Q11.61162,10.3482611875,11.64645,10.3134391875Q11.68127,10.2786171875,11.72221,10.2512571875Q11.76316,10.2238981875,11.80866,10.2050521875Q11.85416,10.186207187499999,11.90245,10.1765991875Q11.95075,10.1669921875,12,10.1669921875Q12.04925,10.1669921875,12.09754,10.1765991875Q12.14584,10.186207187499999,12.19134,10.2050521875Q12.23684,10.2238981875,12.27778,10.2512571875Q12.31873,10.2786171875,12.35355,10.3134391875Q12.38838,10.3482611875,12.41573,10.3892071875Q12.44309,10.4301531875,12.46194,10.4756501875Q12.48078,10.5211471875,12.49039,10.5694470875Q12.5,10.6177464875,12.5,10.6669921875ZM10.5,10.6669921875Q10.5,10.7162378875,10.490393,10.7645372875Q10.480785000000001,10.8128371875,10.46194,10.8583341875Q10.443094,10.9038311875,10.415735,10.9447771875Q10.388375,10.9857231875,10.353553,11.0205451875Q10.318731,11.0553671875,10.277785,11.0827271875Q10.236839,11.1100861875,10.191342,11.1289321875Q10.145845,11.147777187500001,10.0975451,11.1573851875Q10.0492457,11.1669921875,10,11.1669921875Q9.9507543,11.1669921875,9.9024549,11.1573851875Q9.854155,11.147777187500001,9.808658,11.1289321875Q9.763161,11.1100861875,9.722215,11.0827271875Q9.681269,11.0553671875,9.646447,11.0205451875Q9.611625,10.9857231875,9.584265,10.9447771875Q9.556906,10.9038311875,9.53806,10.8583341875Q9.519214999999999,10.8128371875,9.509607,10.7645372875Q9.5,10.7162378875,9.5,10.6669921875Q9.5,10.6177464875,9.509607,10.5694470875Q9.519214999999999,10.5211471875,9.53806,10.4756501875Q9.556906,10.4301531875,9.584265,10.3892071875Q9.611625,10.3482611875,9.646447,10.3134391875Q9.681269,10.2786171875,9.722215,10.2512571875Q9.763161,10.2238981875,9.808658,10.2050521875Q9.854155,10.186207187499999,9.9024549,10.1765991875Q9.9507543,10.1669921875,10,10.1669921875Q10.0492457,10.1669921875,10.0975451,10.1765991875Q10.145845,10.186207187499999,10.191342,10.2050521875Q10.236839,10.2238981875,10.277785,10.2512571875Q10.318731,10.2786171875,10.353553,10.3134391875Q10.388375,10.3482611875,10.415735,10.3892071875Q10.443094,10.4301531875,10.46194,10.4756501875Q10.480785000000001,10.5211471875,10.490393,10.5694470875Q10.5,10.6177464875,10.5,10.6669921875Z" fill="#FFFFFF" fill-opacity="1"/></g><g style="mix-blend-mode:passthrough"><rect x="1.5" y="6" width="13.000000953674316" height="1" rx="0" fill="#FFFFFF" fill-opacity="1"/></g></g></svg>