<svg xmlns="http://www.w3.org/2000/svg" xmlns:xlink="http://www.w3.org/1999/xlink" fill="none" version="1.1" viewBox="0 0 13 13"><g style="mix-blend-mode:passthrough"><g transform="matrix(-1.8369701465288538e-16,1,-1,-1.8369701465288538e-16,13.000000000000005,-12.999999999999998)"><ellipse cx="19.5" cy="6.500000000000003" rx="6.5" ry="6.5" fill="#E5E6EB" fill-opacity="1"/></g><g style="mix-blend-mode:passthrough" transform="matrix(-1.8369701465288538e-16,1,-1,-1.8369701465288538e-16,15.002679824829103,-5.198972702026365)"><path d="M10.258573263427735,5.600401561401367C10.403036263427735,5.452017561401367,10.616437263427734,5.232823561401367,10.765547263427734,5.079664561401367C10.858342263427735,4.984350261401367,11.011189263427735,4.976363761401367,11.103976263427734,5.0716845614013675C11.630616263427735,5.612700561401367,13.279216263427735,7.306283561401367,14.045456263427734,8.093443561401367C14.268796263427735,8.322883561401367,14.268826263427734,8.683433561401367,14.045456263427734,8.912833561401367C13.279196263427735,9.699763561401367,11.630566263427735,11.392863561401366,11.103916263427735,11.933723561401367C11.011113263427735,12.029033561401366,10.858290263427735,12.020993561401367,10.765509263427735,11.925663561401368C10.616422263427735,11.772483561401367,10.403054263427734,11.553263561401367,10.258613263427735,11.404853561401367C10.169296663427735,11.313083561401367,10.173621163427734,11.168093561401367,10.262951263427734,11.076333561401366C10.841167263427735,10.482403561401366,12.768556263427735,8.502643561401367,12.768556263427735,8.502643561401367C12.768556263427735,8.502643561401367,10.841121263427734,6.522843561401367,10.262890263427735,5.928903561401367C10.173550963427735,5.837132561401367,10.169232763427734,5.692168561401367,10.258573263427735,5.600401561401367" fill="#4E5969" fill-opacity="1"/></g></g></svg>