<svg xmlns="http://www.w3.org/2000/svg" xmlns:xlink="http://www.w3.org/1999/xlink" version="1.1" viewBox="0 0 120 120"><g><g><rect x="32" y="32" width="56" height="56" rx="0" fill="#FFFFFF" fill-opacity="0.009999999776482582"/></g><g><g><path d="M36.833333015441895,43.6666630154419Q36.833333015441895,42.285954015441895,37.809643715441894,41.309643815441895Q38.78595501544189,40.333333015441895,40.1666630154419,40.333333015441895L79.8333330154419,40.333333015441895Q81.21403301544188,40.333333015441895,82.1903330154419,41.309643715441894Q83.1666330154419,42.2859530154419,83.1666330154419,43.6666630154419L83.1666330154419,76.3333330154419Q83.1666330154419,77.71403301544188,82.1903330154419,78.6903330154419Q81.21403301544188,79.6666330154419,79.8333330154419,79.6666330154419L40.1666630154419,79.6666330154419Q38.785951015441896,79.6666330154419,37.80964411544189,78.6903330154419Q36.833333015441895,77.71403301544188,36.833333015441895,76.3333330154419L36.833333015441895,43.6666630154419ZM38.833333015441895,43.6666630154419L38.833333015441895,76.3333330154419Q38.833333015441895,76.8856330154419,39.2238530154419,77.2761330154419Q39.614383015441895,77.6666330154419,40.1666630154419,77.6666330154419L79.8333330154419,77.6666330154419Q80.3856330154419,77.6666330154419,80.7761330154419,77.2761330154419Q81.1666330154419,76.8856330154419,81.1666330154419,76.3333330154419L81.1666330154419,43.6666630154419Q81.1666330154419,43.114383015441895,80.7761330154419,42.7238530154419Q80.3856330154419,42.333333015441895,79.8333330154419,42.333333015441895L40.1666630154419,42.333333015441895Q39.614383015441895,42.333333015441895,39.2238530154419,42.7238530154419Q38.833333015441895,43.114383015441895,38.833333015441895,43.6666630154419Z" fill="#C9CDD4" fill-opacity="1"/></g><g><ellipse cx="48.91666603088379" cy="51.249999046325684" rx="1.75" ry="1.75" fill="#C9CDD4" fill-opacity="1"/><ellipse cx="48.91666603088379" cy="51.249999046325684" rx="1.75" ry="1.75" fill-opacity="0" stroke-opacity="1" stroke="#C9CDD4" fill="none" stroke-width="2" stroke-linecap="ROUND" stroke-linejoin="round"/></g><g><path d="M49.50003301544189,59.999999046325684L55.333333015441895,64.66666904632568L62.333333015441895,56.499999046325684L82.1666330154419,71.66669904632569L82.1666330154419,76.33329904632569C82.1666330154419,77.62199904632568,81.1220330154419,78.66669904632568,79.8333330154419,78.66669904632568L40.1666630154419,78.66669904632568C38.87800301544189,78.66669904632568,37.833333015441895,77.62199904632568,37.833333015441895,76.33329904632569L37.833333015441895,71.66669904632569L49.50003301544189,59.999999046325684Z" fill="#C9CDD4" fill-opacity="1"/><path d="M37.126226015441894,70.95959904632568L48.792933015441896,59.29288904632568Q48.85763301544189,59.228179046325685,48.9329330154419,59.176289046325685Q49.00833301544189,59.124399046325685,49.091933015441896,59.087059046325685Q49.1754330154419,59.04970904632568,49.264433015441895,59.02814904632568Q49.35333301544189,59.006589046325686,49.4447330154419,59.001529046325686Q49.536033015441895,58.996469046325686,49.626833015441896,59.00807904632568Q49.71763301544189,59.01968904632568,49.8047330154419,59.04757904632568Q49.89193301544189,59.075469046325686,49.97263301544189,59.11871904632569Q50.0532330154419,59.161959046325684,50.12473301544189,59.21912904632568L55.9580330154419,63.88579904632569L55.333333015441895,64.66666904632568L54.5740330154419,64.01586904632569L61.5740330154419,55.849208046325685Q61.63593301544189,55.77709904632568,61.7101330154419,55.717915046325686Q61.78443301544189,55.658731046325684,61.8685330154419,55.61458704632568Q61.95263301544189,55.570443046325686,62.043533015441895,55.54291804632568Q62.1344330154419,55.515393046325684,62.22883301544189,55.50547104632568Q62.32333301544189,55.495549046325685,62.41793301544189,55.50358504632568Q62.512533015441896,55.511621046325686,62.6040330154419,55.53732804632568Q62.69543301544189,55.56303404632568,62.78043301544189,55.605492046325686Q62.86533301544189,55.64795004632568,62.940833015441896,55.70564104632568L82.77413301544189,70.87229904632568Q82.86563301544189,70.94229904632569,82.9389330154419,71.03129904632569Q83.01213301544189,71.12029904632568,83.06313301544189,71.22359904632569Q83.1142330154419,71.32699904632568,83.14043301544189,71.43919904632568Q83.1666330154419,71.55139904632568,83.1666330154419,71.66669904632569L83.1666330154419,76.33329904632569Q83.1666330154419,77.71399904632568,82.1903330154419,78.69039904632568Q81.21403301544188,79.66669904632568,79.8333330154419,79.66669904632568L40.1666630154419,79.66669904632568Q38.785951015441896,79.66669904632568,37.809643815441895,78.69039904632568Q36.833333015441895,77.71399904632568,36.833333015441895,76.33329904632569L36.833333015441895,71.66669904632569Q36.833333015441895,71.46779904632568,36.9094530154419,71.28399904632569Q36.98557401544189,71.10019904632568,37.126226015441894,70.95959904632568ZM38.540440015441895,72.37379904632569L37.833333015441895,71.66669904632569L38.833333015441895,71.66669904632569L38.833333015441895,76.33329904632569Q38.833333015441895,76.88559904632568,39.2238530154419,77.27609904632568Q39.614383015441895,77.66669904632568,40.1666630154419,77.66669904632568L79.8333330154419,77.66669904632568Q80.3856330154419,77.66669904632568,80.7761330154419,77.27609904632568Q81.1666330154419,76.88559904632568,81.1666330154419,76.33329904632569L81.1666330154419,71.66669904632569L82.1666330154419,71.66669904632569L81.55923301544189,72.46099904632568L61.72583301544189,57.294357046325686L62.333333015441895,56.499999046325684L63.09263301544189,57.15079004632568L56.09263301544189,65.31745904632568Q56.029833015441895,65.39060904632568,55.95433301544189,65.45044904632569Q55.8788330154419,65.51028904632568,55.793333015441895,65.55460904632568Q55.707733015441896,65.59892904632568,55.615233015441895,65.62608904632569Q55.52283301544189,65.65325904632569,55.42693301544189,65.66227904632568Q55.33093301544189,65.67128904632568,55.235133015441896,65.66182904632568Q55.139233015441896,65.65235904632569,55.046933015441894,65.62475904632568Q54.954533015441896,65.59715904632569,54.86923301544189,65.55243904632569Q54.7838330154419,65.50772904632568,54.70863301544189,65.44752904632568L48.875333015441896,60.780869046325684L49.50003301544189,59.999999046325684L50.2071330154419,60.707109046325684L38.540440015441895,72.37379904632569Z" fill="#C9CDD4" fill-opacity="1"/></g></g></g></svg>