<svg xmlns="http://www.w3.org/2000/svg" xmlns:xlink="http://www.w3.org/1999/xlink" version="1.1" viewBox="0 0 16 16"><g style="mix-blend-mode:passthrough"><g style="mix-blend-mode:passthrough"><path d="M7.5,2C7.22386,2,7,2.223858,7,2.5L7,7L2.5,7C2.223858,7,2,7.22386,2,7.5L2,8.5C2,8.77614,2.223858,9,2.5,9L7,9L7,13.5C7,13.7761,7.22386,14,7.5,14L8.5,14C8.77614,14,9,13.7761,9,13.5L9,9L13.5,9C13.7761,9,14,8.77614,14,8.5L14,7.5C14,7.22386,13.7761,7,13.5,7L9,7L9,2.5C9,2.223858,8.77614,2,8.5,2L7.5,2Z" fill-rule="evenodd" fill-opacity="1"/></g></g></svg>