<svg xmlns="http://www.w3.org/2000/svg" xmlns:xlink="http://www.w3.org/1999/xlink" version="1.1" viewBox="0 0 32 32"><g style="mix-blend-mode:passthrough"><g style="mix-blend-mode:passthrough"><path d="M22.3296,11.876615L21.5636,11.233827C21.1404,10.879101,20.5098,10.9341858,20.1545,11.356907L14.76004,17.78223L12.32347,15.685089999999999C11.91149,15.3305,11.2917,15.36993,10.927985,15.77388L10.257021,16.51906C10.252742,16.52381,10.248507,16.52861,10.244317,16.533450000000002C9.882712,16.95089,9.9279799,17.58244,10.345422,17.94404L14.32356,21.39C14.328710000000001,21.3945,14.3339,21.398899999999998,14.33914,21.4033C14.76389,21.7563,15.39437,21.6981,15.74738,21.2733L15.86738,21.1289L22.4526,13.28527L22.453,13.28524C22.808,12.86216,22.7528,12.23141,22.3296,11.876615Z" fill-rule="evenodd" fill-opacity="1"/></g></g></svg>