<svg xmlns="http://www.w3.org/2000/svg" xmlns:xlink="http://www.w3.org/1999/xlink" version="1.1" viewBox="0 0 20 20"><defs><clipPath id="master_svg0_25_01803"><rect x="0" y="0" width="20" height="20" rx="0"/></clipPath></defs><g clip-path="url(#master_svg0_25_01803)"><g style="mix-blend-mode:passthrough"><g><path d="M13.2704,17.209245312500002L13.1919,17.2191453125C11.46498,17.2877453125,8.992280000000001,15.8846453125,6.57845,13.4609853125L5.68553,12.5680653125C3.2717099999999997,10.144425312500001,1.897983,7.6913553125,2.00591858,5.9938253125C2.0844169,4.7967253125,3.7427,3.6486823125,4.74355,3.5505589925C5.234170000000001,3.5014974125,5.44023,3.7369933125,5.50891,3.8743653125C6.16634,4.8261553125,7.02982,6.5138753125,7.08869,7.1418653125L7.08869,7.1909253125L7.07888,7.2301753125C6.98076,7.5736053125,6.71583,7.7600353125,6.49014,7.9170353125C6.18596,8.1329053125,6.00934,8.2702753125,6.01915,8.613705312499999C6.01915,8.7216453125,6.15652,9.1926353125,7.75593,10.821475312499999L8.43298,11.5083353125C10.02257,13.0684953125,10.49356,13.2058653125,10.6015,13.2156753125C10.95474,13.2353053125,11.10193,13.0684953125,11.32761,12.7643153125C11.49442,12.5386253125,11.69066,12.2835053125,12.0439,12.1951953125L12.093,12.1853853125L12.142,12.1951953125C12.7798,12.2736953125,14.4774,13.1568053125,15.4586,13.8338453125C15.596,13.9123453125,15.8511,14.1478453125,15.7235,14.7365453125C15.5175,15.6589453125,14.4087,17.1013453125,13.2704,17.209245312500002Z" fill-opacity="1"/></g><g><path d="M17.82337622177124,3.97227L16.02772622177124,2.176621C15.79223622177124,1.9411261,15.419366221771241,1.9411261,15.18386622177124,2.176621C14.948376221771241,2.412117,14.948376221771241,2.784984,15.18386622177124,3.02048L15.959036221771239,3.79565L12.69154622177124,3.79565C11.71031622177124,3.79565,10.90570622177124,4.590450000000001,10.90570622177124,5.5814900000000005C10.90570622177124,6.57253,11.70049622177124,7.36733,12.69154622177124,7.36733L12.91722622177124,7.36733C13.241036221771239,7.36733,13.51577622177124,7.63226,13.51577622177124,7.96588C13.51577622177124,8.28969,13.25084622177124,8.56443,12.91722622177124,8.56443L8.87455622177124,8.56443C8.55075022177124,8.56443,8.27600622177124,8.829360000000001,8.27600622177124,9.162980000000001C8.27600622177124,9.4966,8.54093822177124,9.76153,8.87455622177124,9.76153L12.91722622177124,9.76153C13.89845622177124,9.76153,14.703066221771241,8.96674,14.703066221771241,7.97569C14.703066221771241,6.98465,13.908266221771239,6.18985,12.91722622177124,6.18985L12.69154622177124,6.18985C12.36773622177124,6.18985,12.09299622177124,5.92492,12.09299622177124,5.5913C12.09299622177124,5.2675,12.35792622177124,4.99275,12.69154622177124,4.99275L15.959036221771239,4.99275L15.18386622177124,5.76792C14.948376221771241,6.00342,14.948376221771241,6.37629,15.18386622177124,6.61178C15.419366221771241,6.84728,15.79223622177124,6.84728,16.02772622177124,6.61178L17.82337622177124,4.816129999999999C18.058876221771243,4.58064,18.058876221771243,4.19796,17.82337622177124,3.97227ZM16.55759622177124,4.38439L16.55759622177124,4.4040099999999995L16.55759622177124,4.38439Z" fill-opacity="1"/></g></g></g></svg>