<svg width="16" height="16" viewBox="0 0 16 16"  xmlns="http://www.w3.org/2000/svg">
<path fill-rule="evenodd" clip-rule="evenodd" d="M2.6398 2.86002H13.3598V13.14H2.6398V2.86002ZM13.6659 1.52002C14.2369 1.52002 14.6998 2.01748 14.6998 2.63113V13.3689C14.6998 13.9826 14.2369 14.48 13.6659 14.48H2.33376C1.76272 14.48 1.2998 13.9826 1.2998 13.3689V2.63113C1.2998 2.01748 1.76272 1.52002 2.33376 1.52002H13.6659ZM4.5 6.10002C4.5 5.98957 4.58954 5.90002 4.7 5.90002H11.3C11.4105 5.90002 11.5 5.98957 11.5 6.10002V7.05002C11.5 7.16048 11.4105 7.25002 11.3 7.25002H4.7C4.58954 7.25002 4.5 7.16048 4.5 7.05002V6.10002ZM4.5 9.10002C4.5 8.98957 4.58954 8.90002 4.7 8.90002H5.65C5.76046 8.90002 5.85 8.98957 5.85 9.10002V10.05C5.85 10.1605 5.76046 10.25 5.65 10.25H4.7C4.58954 10.25 4.5 10.1605 4.5 10.05V9.10002ZM7 9.10002C7 8.98957 7.08954 8.90002 7.2 8.90002H8.15C8.26046 8.90002 8.35 8.98957 8.35 9.10002V10.05C8.35 10.1605 8.26046 10.25 8.15 10.25H7.2C7.08954 10.25 7 10.1605 7 10.05V9.10002Z" />
</svg>
