<svg xmlns="http://www.w3.org/2000/svg">
<path d="M7.88945 11.2569H7.83752C6.64879 11.1925 5.04273 10.0178 3.54148 8.11245L2.98724 7.40861C1.48598 5.50625 0.699478 3.64553 0.883594 2.43314C1.012 1.57862 2.22339 0.856934 2.91454 0.856934C3.25444 0.856934 3.37908 1.03537 3.42157 1.14144C3.8134 1.87205 4.29777 3.14194 4.29966 3.59795V3.62967L4.28927 3.65941C4.20241 3.89931 4.00979 4.01431 3.8389 4.11542C3.61418 4.24925 3.48671 4.33649 3.47066 4.58828C3.46689 4.66462 3.5292 5.01257 4.51965 6.29336L4.94359 6.83066C5.93688 8.0609 6.24846 8.19374 6.3221 8.20464C6.56193 8.23934 6.67428 8.1293 6.84613 7.93103C6.97831 7.78035 7.12655 7.60885 7.37204 7.57118L7.4032 7.56623L7.43341 7.57317C7.86585 7.66932 8.97243 8.41877 9.60126 8.9749C9.6919 9.03735 9.85053 9.22571 9.72495 9.64008C9.52856 10.2914 8.67124 11.2569 7.88945 11.2569Z" />
<path fill-rule="evenodd" clip-rule="evenodd" d="M11.1286 1.17527L11.1286 4.38396C11.1286 4.55105 10.9931 4.6865 10.826 4.6865L10.2209 4.6865C10.0539 4.6865 9.91841 4.55105 9.91841 4.38396L9.91836 2.83469L7.76385 4.98928C7.64571 5.10743 7.45415 5.10743 7.336 4.98928L6.90815 4.56143C6.79 4.44328 6.79 4.25172 6.90814 4.13357L8.9587 2.08258L7.61733 2.08288C7.45024 2.08288 7.31479 1.94743 7.31479 1.78035L7.31479 1.17527C7.31479 1.00818 7.45024 0.872729 7.61733 0.872729L10.826 0.872729C10.9931 0.872729 11.1286 1.00818 11.1286 1.17527Z"/>
</svg>
