<svg width="16" height="16" viewBox="0 0 16 16" xmlns="http://www.w3.org/2000/svg">
<path fill-rule="evenodd" clip-rule="evenodd" d="M3 2C2.44772 2 2 2.44772 2 3V13C2 13.5523 2.44772 14 3 14H13C13.5523 14 14 13.5523 14 13V3C14 2.44772 13.5523 2 13 2H3ZM6.95996 5.91606C6.95996 5.34085 7.42663 4.87439 8.00163 4.87439C8.57663 4.87439 9.04329 5.34085 9.04329 5.91606C9.04329 6.49126 8.57663 6.95772 8.00163 6.95772C7.42663 6.95772 6.95996 6.49126 6.95996 5.91606ZM8 4.04126C6.96458 4.04126 6.125 4.88063 6.125 5.91626C6.125 6.95188 6.96458 7.79126 8 7.79126C9.03542 7.79126 9.875 6.95188 9.875 5.91626C9.875 4.88063 9.03542 4.04126 8 4.04126ZM6.88779 9.24954H6.88958H9.11042H9.11221C9.86974 9.24954 10.5 9.24954 10.5 10.0412V10.7079H5.5V10.0412C5.5 9.24954 6.13026 9.24954 6.88779 9.24954ZM6.8904 8.41626C5.66331 8.41626 4.66748 8.79855 4.66748 10.0413V11.1663C4.66748 11.3733 4.83415 11.5413 5.03831 11.5413H10.9633C11.1675 11.5413 11.3341 11.3733 11.3341 11.1663V10.0413C11.3341 8.79855 10.3383 8.41626 9.11123 8.41626H6.8904Z" />
</svg>
