<svg xmlns="http://www.w3.org/2000/svg" xmlns:xlink="http://www.w3.org/1999/xlink" fill="none" version="1.1" width="16" height="16" viewBox="0 0 16 16"><defs><clipPath id="master_svg0_1_13171"><rect x="0" y="0" width="16" height="16" rx="0"/></clipPath></defs><g clip-path="url(#master_svg0_1_13171)"><g><path d="M14.333328247070312,11.983335876464844L10.333328247070312,11.983335876464844Q10.269308847070313,11.983335876464844,10.206519247070313,11.970845876464844Q10.143730247070312,11.958356876464844,10.084584247070312,11.933857876464844Q10.025438247070312,11.909357876464844,9.972207247070312,11.873790876464843Q9.918977247070313,11.838223876464843,9.873709247070313,11.792954876464844Q9.828440247070313,11.747686876464844,9.792873247070313,11.694456876464844Q9.757306247070312,11.641225876464844,9.732806247070313,11.582079876464844Q9.708307247070312,11.522933876464844,9.695818247070312,11.460144876464843Q9.683328247070312,11.397355276464843,9.683328247070312,11.333335876464844Q9.683328247070312,11.269316476464844,9.695818247070312,11.206526876464844Q9.708307247070312,11.143737876464844,9.732806247070313,11.084591876464843Q9.757306247070312,11.025445876464843,9.792873247070313,10.972214876464843Q9.828440247070313,10.918984876464844,9.873709247070313,10.873716876464844Q9.918977247070313,10.828447876464844,9.972207247070312,10.792880876464844Q10.025438247070312,10.757313876464844,10.084584247070312,10.732813876464844Q10.143730247070312,10.708314876464843,10.206519247070313,10.695825876464843Q10.269308847070313,10.683335876464843,10.333328247070312,10.683335876464843L14.333328247070312,10.683335876464843Q14.397348247070312,10.683335876464843,14.460138247070311,10.695825876464843Q14.522928247070313,10.708314876464843,14.582068247070312,10.732813876464844Q14.641218247070313,10.757313876464844,14.694448247070312,10.792880876464844Q14.747678247070311,10.828447876464844,14.792948247070314,10.873716876464844Q14.838218247070312,10.918984876464844,14.873778247070312,10.972214876464843Q14.909348247070312,11.025445876464843,14.933848247070312,11.084591876464843Q14.958348247070312,11.143737876464844,14.970838247070311,11.206526876464844Q14.983328247070313,11.269316476464844,14.983328247070313,11.333335876464844Q14.983328247070313,11.397355276464843,14.970838247070311,11.460144876464843Q14.958348247070312,11.522933876464844,14.933848247070312,11.582079876464844Q14.909348247070312,11.641225876464844,14.873778247070312,11.694456876464844Q14.838218247070312,11.747686876464844,14.792948247070314,11.792954876464844Q14.747678247070311,11.838223876464843,14.694448247070312,11.873790876464843Q14.641218247070313,11.909357876464844,14.582068247070312,11.933857876464844Q14.522928247070313,11.958356876464844,14.460138247070311,11.970845876464844Q14.397348247070312,11.983335876464844,14.333328247070312,11.983335876464844ZM14.983328247070313,11.333335876464844Q14.983328247070313,11.397355276464843,14.970838247070311,11.460144876464843Q14.958348247070312,11.522933876464844,14.933848247070312,11.582079876464844Q14.909348247070312,11.641225876464844,14.873778247070312,11.694456876464844Q14.838218247070312,11.747686876464844,14.792948247070314,11.792954876464844Q14.747678247070311,11.838223876464843,14.694448247070312,11.873790876464843Q14.641218247070313,11.909357876464844,14.582068247070312,11.933857876464844Q14.522928247070313,11.958356876464844,14.460138247070311,11.970845876464844Q14.397348247070312,11.983335876464844,14.333328247070312,11.983335876464844Q14.269308247070313,11.983335876464844,14.206518247070314,11.970845876464844Q14.143728247070312,11.958356876464844,14.084588247070313,11.933857876464844Q14.025438247070312,11.909357876464844,13.972208247070313,11.873790876464843Q13.918978247070312,11.838223876464843,13.873708247070311,11.792954876464844Q13.828438247070313,11.747686876464844,13.792868247070313,11.694456876464844Q13.757308247070313,11.641225876464844,13.732808247070313,11.582079876464844Q13.708308247070313,11.522933876464844,13.695818247070314,11.460144876464843Q13.683328247070312,11.397355276464843,13.683328247070312,11.333335876464844Q13.683328247070312,11.269316476464844,13.695818247070314,11.206526876464844Q13.708308247070313,11.143737876464844,13.732808247070313,11.084591876464843Q13.757308247070313,11.025445876464843,13.792868247070313,10.972214876464843Q13.828438247070313,10.918984876464844,13.873708247070311,10.873716876464844Q13.918978247070312,10.828447876464844,13.972208247070313,10.792880876464844Q14.025438247070312,10.757313876464844,14.084588247070313,10.732813876464844Q14.143728247070312,10.708314876464843,14.206518247070314,10.695825876464843Q14.269308247070313,10.683335876464843,14.333328247070312,10.683335876464843Q14.397348247070312,10.683335876464843,14.460138247070311,10.695825876464843Q14.522928247070313,10.708314876464843,14.582068247070312,10.732813876464844Q14.641218247070313,10.757313876464844,14.694448247070312,10.792880876464844Q14.747678247070311,10.828447876464844,14.792948247070314,10.873716876464844Q14.838218247070312,10.918984876464844,14.873778247070312,10.972214876464843Q14.909348247070312,11.025445876464843,14.933848247070312,11.084591876464843Q14.958348247070312,11.143737876464844,14.970838247070311,11.206526876464844Q14.983328247070313,11.269316476464844,14.983328247070313,11.333335876464844ZM10.983328247070313,11.333335876464844Q10.983328247070313,11.397355276464843,10.970838247070313,11.460144876464843Q10.958349247070313,11.522933876464844,10.933850247070312,11.582079876464844Q10.909350247070313,11.641225876464844,10.873783247070312,11.694456876464844Q10.838216247070312,11.747686876464844,10.792947247070312,11.792954876464844Q10.747679247070312,11.838223876464843,10.694449247070313,11.873790876464843Q10.641218247070313,11.909357876464844,10.582072247070313,11.933857876464844Q10.522926247070313,11.958356876464844,10.460137247070312,11.970845876464844Q10.397347647070312,11.983335876464844,10.333328247070312,11.983335876464844Q10.269308847070313,11.983335876464844,10.206519247070313,11.970845876464844Q10.143730247070312,11.958356876464844,10.084584247070312,11.933857876464844Q10.025438247070312,11.909357876464844,9.972207247070312,11.873790876464843Q9.918977247070313,11.838223876464843,9.873709247070313,11.792954876464844Q9.828440247070313,11.747686876464844,9.792873247070313,11.694456876464844Q9.757306247070312,11.641225876464844,9.732806247070313,11.582079876464844Q9.708307247070312,11.522933876464844,9.695818247070312,11.460144876464843Q9.683328247070312,11.397355276464843,9.683328247070312,11.333335876464844Q9.683328247070312,11.269316476464844,9.695818247070312,11.206526876464844Q9.708307247070312,11.143737876464844,9.732806247070313,11.084591876464843Q9.757306247070312,11.025445876464843,9.792873247070313,10.972214876464843Q9.828440247070313,10.918984876464844,9.873709247070313,10.873716876464844Q9.918977247070313,10.828447876464844,9.972207247070312,10.792880876464844Q10.025438247070312,10.757313876464844,10.084584247070312,10.732813876464844Q10.143730247070312,10.708314876464843,10.206519247070313,10.695825876464843Q10.269308847070313,10.683335876464843,10.333328247070312,10.683335876464843Q10.397347647070312,10.683335876464843,10.460137247070312,10.695825876464843Q10.522926247070313,10.708314876464843,10.582072247070313,10.732813876464844Q10.641218247070313,10.757313876464844,10.694449247070313,10.792880876464844Q10.747679247070312,10.828447876464844,10.792947247070312,10.873716876464844Q10.838216247070312,10.918984876464844,10.873783247070312,10.972214876464843Q10.909350247070313,11.025445876464843,10.933850247070312,11.084591876464843Q10.958349247070313,11.143737876464844,10.970838247070313,11.206526876464844Q10.983328247070313,11.269316476464844,10.983328247070313,11.333335876464844Z" fill="#FFFFFF" fill-opacity="1"/></g><g><path d="M13.126442752929687,9.207063123535157L14.792971752929688,10.873734123535156Q14.838241752929687,10.919004123535156,14.873801752929687,10.972234123535156Q14.909371752929687,11.025464123535157,14.933871752929686,11.084604123535156Q14.958361752929687,11.143754123535157,14.970851752929688,11.206534123535157Q14.983341752929688,11.269324123535156,14.983341752929688,11.333344123535156Q14.983341752929688,11.397364123535157,14.970851752929688,11.460144123535157Q14.958351752929687,11.522934123535157,14.933861752929687,11.582084123535155Q14.909361752929687,11.641224123535157,14.873791752929687,11.694454123535156Q14.838221752929687,11.747684123535157,14.792961752929688,11.792954123535157L13.126290752929687,13.459614123535156Q13.081022752929687,13.504884123535156,13.027792752929688,13.540454123535156Q12.974561752929688,13.576024123535156,12.915415752929688,13.600514123535156Q12.856269752929688,13.625014123535156,12.793480752929687,13.637504123535155Q12.730691152929687,13.649994123535157,12.666671752929688,13.649994123535157Q12.602652352929688,13.649994123535157,12.539862752929688,13.637504123535155Q12.477073752929687,13.625014123535156,12.417927752929687,13.600514123535156Q12.358781752929687,13.576024123535156,12.305550752929687,13.540454123535156Q12.252320752929688,13.504884123535156,12.207052752929688,13.459614123535156Q12.161783752929688,13.414344123535155,12.126216752929688,13.361114123535156Q12.090649752929687,13.307884123535157,12.066149752929688,13.248744123535156Q12.041650752929687,13.189594123535157,12.029161752929687,13.126804123535155Q12.016671752929687,13.064014123535156,12.016671752929687,12.999994123535156Q12.016671752929687,12.935974123535157,12.029161752929687,12.873184123535156Q12.041650752929687,12.810394123535156,12.066149752929688,12.751254123535157Q12.090649752929687,12.692104123535156,12.126216752929688,12.638874123535157Q12.161783752929688,12.585644123535156,12.207052752929688,12.540374123535155L13.873721752929688,10.873714123535157L14.333341752929687,11.333334123535156L13.873701752929687,11.792934123535156L12.207167752929687,10.126265123535156Q12.161900752929688,10.080995123535157,12.126335752929688,10.027763123535156Q12.090770752929688,9.974531123535156,12.066273752929687,9.915384123535157Q12.041776752929687,9.856237123535156,12.029289752929687,9.793447123535156Q12.016802752929687,9.730657523535156,12.016805752929688,9.666638093935155Q12.016807752929687,9.602618723535157,12.029299752929688,9.539830123535156Q12.041791752929688,9.477041123535157,12.066293752929688,9.417896123535156Q12.090794752929687,9.358751123535157,12.126364752929687,9.305522123535157Q12.161933752929688,9.252293123535157,12.207204752929687,9.207026123535156Q12.252474752929688,9.161759123535155,12.305706752929687,9.126194123535157Q12.358937752929688,9.090629123535157,12.418084752929687,9.066132123535157Q12.477232752929687,9.041636123535156,12.540021752929688,9.029149123535156Q12.602811852929687,9.016662123535156,12.666831290929688,9.016664123535156Q12.730850652929687,9.016667123535155,12.793639752929687,9.029159123535155Q12.856428752929688,9.041651123535157,12.915573752929687,9.066152123535156Q12.974718752929688,9.090654123535156,13.027947752929688,9.126223123535157Q13.081176752929688,9.161793123535157,13.126442752929687,9.207063123535157ZM13.316804752929688,9.666664123535156Q13.316804752929688,9.730683523535156,13.304315752929687,9.793473123535156Q13.291825752929688,9.856262123535156,13.267326752929687,9.915408123535157Q13.242827752929687,9.974554123535157,13.207260752929688,10.027785123535157Q13.171692752929687,10.081015123535156,13.126424752929687,10.126283123535156Q13.081155752929687,10.171552123535156,13.027925752929688,10.207119123535156Q12.974695752929687,10.242686123535156,12.915549752929687,10.267186123535156Q12.856402752929688,10.291685123535157,12.793613752929687,10.304174123535157Q12.730824652929687,10.316664123535157,12.666805266929687,10.316664123535157Q12.602785852929687,10.316664123535157,12.539996752929687,10.304174123535157Q12.477207752929688,10.291685123535157,12.418060752929687,10.267186123535156Q12.358914752929687,10.242686123535156,12.305684752929688,10.207119123535156Q12.252454752929687,10.171552123535156,12.207185752929687,10.126283123535156Q12.161917752929687,10.081015123535156,12.126349752929688,10.027785123535157Q12.090782752929687,9.974554123535157,12.066283752929687,9.915408123535157Q12.041784752929688,9.856262123535156,12.029294752929687,9.793473123535156Q12.016805752929688,9.730683523535156,12.016805752929688,9.666664123535156Q12.016805752929688,9.602644723535157,12.029294752929687,9.539855123535157Q12.041784752929688,9.477066123535156,12.066283752929687,9.417920123535156Q12.090782752929687,9.358774123535156,12.126349752929688,9.305543123535156Q12.161917752929687,9.252313123535156,12.207185752929687,9.207045123535156Q12.252454752929687,9.161776123535157,12.305684752929688,9.126209123535157Q12.358914752929687,9.090642123535156,12.418060752929687,9.066142123535156Q12.477207752929688,9.041643123535156,12.539996752929687,9.029154123535156Q12.602785852929687,9.016664123535156,12.666805266929687,9.016664123535156Q12.730824652929687,9.016664123535156,12.793613752929687,9.029154123535156Q12.856402752929688,9.041643123535156,12.915549752929687,9.066142123535156Q12.974695752929687,9.090642123535156,13.027925752929688,9.126209123535157Q13.081155752929687,9.161776123535157,13.126424752929687,9.207045123535156Q13.171692752929687,9.252313123535156,13.207260752929688,9.305543123535156Q13.242827752929687,9.358774123535156,13.267326752929687,9.417920123535156Q13.291825752929688,9.477066123535156,13.304315752929687,9.539855123535157Q13.316804752929688,9.602644723535157,13.316804752929688,9.666664123535156ZM13.316671752929688,12.999994123535156Q13.316671752929688,13.064014123535156,13.304181752929688,13.126804123535155Q13.291692752929688,13.189594123535157,13.267193752929687,13.248744123535156Q13.242693752929688,13.307884123535157,13.207126752929687,13.361114123535156Q13.171559752929687,13.414344123535155,13.126290752929687,13.459614123535156Q13.081022752929687,13.504884123535156,13.027792752929688,13.540454123535156Q12.974561752929688,13.576024123535156,12.915415752929688,13.600514123535156Q12.856269752929688,13.625014123535156,12.793480752929687,13.637504123535155Q12.730691152929687,13.649994123535157,12.666671752929688,13.649994123535157Q12.602652352929688,13.649994123535157,12.539862752929688,13.637504123535155Q12.477073752929687,13.625014123535156,12.417927752929687,13.600514123535156Q12.358781752929687,13.576024123535156,12.305550752929687,13.540454123535156Q12.252320752929688,13.504884123535156,12.207052752929688,13.459614123535156Q12.161783752929688,13.414344123535155,12.126216752929688,13.361114123535156Q12.090649752929687,13.307884123535157,12.066149752929688,13.248744123535156Q12.041650752929687,13.189594123535157,12.029161752929687,13.126804123535155Q12.016671752929687,13.064014123535156,12.016671752929687,12.999994123535156Q12.016671752929687,12.935974123535157,12.029161752929687,12.873184123535156Q12.041650752929687,12.810404123535157,12.066149752929688,12.751254123535157Q12.090649752929687,12.692104123535156,12.126216752929688,12.638874123535157Q12.161783752929688,12.585644123535156,12.207052752929688,12.540374123535155Q12.252320752929688,12.495114123535156,12.305550752929687,12.459544123535157Q12.358781752929687,12.423974123535157,12.417927752929687,12.399474123535157Q12.477073752929687,12.374974123535157,12.539862752929688,12.362484123535156Q12.602652352929688,12.349994123535156,12.666671752929688,12.349994123535156Q12.730691152929687,12.349994123535156,12.793480752929687,12.362484123535156Q12.856269752929688,12.374974123535157,12.915415752929688,12.399474123535157Q12.974561752929688,12.423974123535157,13.027792752929688,12.459544123535157Q13.081022752929687,12.495114123535156,13.126290752929687,12.540374123535155Q13.171559752929687,12.585644123535156,13.207126752929687,12.638874123535157Q13.242693752929688,12.692104123535156,13.267193752929687,12.751254123535157Q13.291692752929688,12.810404123535157,13.304181752929688,12.873184123535156Q13.316671752929688,12.935974123535157,13.316671752929688,12.999994123535156Z" fill="#FFFFFF" fill-opacity="1"/></g><g><path d="M9.490201752929687,14.316635876464844L2.6666717529296875,14.316635876464844Q1.9832187529296874,14.316635876464844,1.4999487529296875,13.833435876464844Q1.0166717529296876,13.350135876464844,1.0166717529296876,12.666635876464843L1.0166717529296876,3.3333358764648438Q1.0166717529296876,2.649884876464844,1.4999457529296876,2.1666098764648436Q1.9832207529296875,1.6833358764648438,2.6666717529296875,1.6833358764648438L13.333371752929688,1.6833358764648438Q14.016771752929687,1.6833358764648438,14.500071752929687,2.1666128764648436Q14.983371752929688,2.6498828764648437,14.983371752929688,3.3333358764648438L14.983371752929688,8.666665876464844Q14.983371752929688,8.730685876464843,14.970871752929687,8.793475876464843Q14.958371752929688,8.856265876464843,14.933871752929688,8.915415876464845Q14.909371752929687,8.974555876464844,14.873771752929688,9.027785876464844Q14.838271752929687,9.081015876464843,14.792971752929688,9.126285876464845Q14.747671752929687,9.171555876464843,14.694471752929687,9.207125876464843Q14.641271752929688,9.242695876464843,14.582071752929687,9.267185876464843Q14.522971752929687,9.291685876464843,14.460171752929687,9.304175876464843Q14.397371752929688,9.316665876464842,14.333371752929688,9.316665876464842Q14.269271752929688,9.316665876464842,14.206571752929687,9.304175876464843Q14.143771752929688,9.291685876464843,14.084571752929687,9.267195876464843Q14.025471752929688,9.242695876464843,13.972171752929688,9.207125876464843Q13.918971752929687,9.171555876464843,13.873671752929688,9.126285876464845Q13.828471752929687,9.081015876464843,13.792871752929688,9.027785876464844Q13.757271752929688,8.974555876464844,13.732771752929688,8.915415876464845Q13.708271752929688,8.856265876464843,13.695871752929687,8.793475876464843Q13.683371752929688,8.730685876464843,13.683371752929688,8.666665876464844L13.683371752929688,3.3333358764648438Q13.683371752929688,2.9833358764648437,13.333371752929688,2.9833358764648437L2.6666717529296875,2.9833358764648437Q2.3166717529296874,2.9833358764648437,2.3166717529296874,3.3333358764648438L2.3166717529296874,12.666635876464843Q2.3166717529296874,13.016635876464843,2.6666717529296875,13.016635876464843L9.490201752929687,13.016635876464843Q9.554221752929688,13.016635876464843,9.617011752929688,13.029135876464844Q9.679801752929688,13.041635876464843,9.738951752929687,13.066135876464843Q9.798091752929688,13.090635876464845,9.851321752929687,13.126235876464843Q9.904551752929688,13.161735876464844,9.949821752929687,13.207035876464843Q9.995091752929687,13.252335876464844,10.030661752929687,13.305535876464845Q10.066231752929687,13.358735876464843,10.090721752929687,13.417935876464844Q10.115221752929687,13.477035876464845,10.127711752929688,13.539835876464844Q10.140201752929688,13.602635876464843,10.140201752929688,13.666635876464843Q10.140201752929688,13.730735876464843,10.127711752929688,13.793435876464844Q10.115221752929687,13.856235876464844,10.090721752929687,13.915435876464844Q10.066231752929687,13.974535876464843,10.030661752929687,14.027835876464843Q9.995091752929687,14.081035876464844,9.949821752929687,14.126335876464843Q9.904551752929688,14.171535876464844,9.851321752929687,14.207135876464843Q9.798091752929688,14.242735876464844,9.738951752929687,14.267235876464843Q9.679801752929688,14.291735876464843,9.617011752929688,14.304135876464844Q9.554221752929688,14.316635876464844,9.490201752929687,14.316635876464844ZM10.140201752929688,13.666635876464843Q10.140201752929688,13.730735876464843,10.127711752929688,13.793435876464844Q10.115221752929687,13.856235876464844,10.090721752929687,13.915435876464844Q10.066231752929687,13.974535876464843,10.030661752929687,14.027835876464843Q9.995091752929687,14.081035876464844,9.949821752929687,14.126335876464843Q9.904551752929688,14.171535876464844,9.851321752929687,14.207135876464843Q9.798091752929688,14.242735876464844,9.738951752929687,14.267235876464843Q9.679801752929688,14.291735876464843,9.617011752929688,14.304135876464844Q9.554221752929688,14.316635876464844,9.490201752929687,14.316635876464844Q9.426181752929686,14.316635876464844,9.363391752929687,14.304135876464844Q9.300601752929687,14.291735876464843,9.241461752929688,14.267235876464843Q9.182311752929689,14.242735876464844,9.129081752929688,14.207135876464843Q9.075851752929687,14.171535876464844,9.030581752929688,14.126335876464843Q8.985311752929688,14.081035876464844,8.949751752929687,14.027835876464843Q8.914181752929688,13.974535876464843,8.889681752929688,13.915435876464844Q8.865181752929686,13.856235876464844,8.852691752929687,13.793435876464844Q8.840201752929687,13.730735876464843,8.840201752929687,13.666635876464843Q8.840201752929687,13.602635876464843,8.852691752929687,13.539835876464844Q8.865181752929686,13.477035876464845,8.889681752929688,13.417935876464844Q8.914181752929688,13.358735876464843,8.949751752929687,13.305535876464845Q8.985311752929688,13.252335876464844,9.030581752929688,13.207035876464843Q9.075851752929687,13.161735876464844,9.129081752929688,13.126235876464843Q9.182311752929689,13.090635876464845,9.241461752929688,13.066135876464843Q9.300601752929687,13.041635876464843,9.363391752929687,13.029135876464844Q9.426181752929686,13.016635876464843,9.490201752929687,13.016635876464843Q9.554221752929688,13.016635876464843,9.617011752929688,13.029135876464844Q9.679801752929688,13.041635876464843,9.738951752929687,13.066135876464843Q9.798091752929688,13.090635876464845,9.851321752929687,13.126235876464843Q9.904551752929688,13.161735876464844,9.949821752929687,13.207035876464843Q9.995091752929687,13.252335876464844,10.030661752929687,13.305535876464845Q10.066231752929687,13.358735876464843,10.090721752929687,13.417935876464844Q10.115221752929687,13.477035876464845,10.127711752929688,13.539835876464844Q10.140201752929688,13.602635876464843,10.140201752929688,13.666635876464843ZM14.983371752929688,8.666665876464844Q14.983371752929688,8.730685876464843,14.970871752929687,8.793475876464843Q14.958371752929688,8.856265876464843,14.933871752929688,8.915415876464845Q14.909371752929687,8.974555876464844,14.873771752929688,9.027785876464844Q14.838271752929687,9.081015876464843,14.792971752929688,9.126285876464845Q14.747671752929687,9.171555876464843,14.694471752929687,9.207125876464843Q14.641271752929688,9.242695876464843,14.582071752929687,9.267185876464843Q14.522971752929687,9.291685876464843,14.460171752929687,9.304175876464843Q14.397371752929688,9.316665876464842,14.333371752929688,9.316665876464842Q14.269271752929688,9.316665876464842,14.206571752929687,9.304175876464843Q14.143771752929688,9.291685876464843,14.084571752929687,9.267195876464843Q14.025471752929688,9.242695876464843,13.972171752929688,9.207125876464843Q13.918971752929687,9.171555876464843,13.873671752929688,9.126285876464845Q13.828471752929687,9.081015876464843,13.792871752929688,9.027785876464844Q13.757271752929688,8.974555876464844,13.732771752929688,8.915415876464845Q13.708271752929688,8.856265876464843,13.695871752929687,8.793475876464843Q13.683371752929688,8.730685876464843,13.683371752929688,8.666665876464844Q13.683371752929688,8.602645876464845,13.695871752929687,8.539855876464845Q13.708271752929688,8.477065876464843,13.732771752929688,8.417925876464844Q13.757271752929688,8.358775876464843,13.792871752929688,8.305545876464844Q13.828471752929687,8.252315876464845,13.873671752929688,8.207045876464843Q13.918971752929687,8.161785876464844,13.972171752929688,8.126215876464844Q14.025471752929688,8.090645876464844,14.084571752929687,8.066145876464844Q14.143771752929688,8.041645876464845,14.206571752929687,8.029155876464845Q14.269271752929688,8.016665876464844,14.333371752929688,8.016665876464844Q14.397371752929688,8.016665876464844,14.460171752929687,8.029155876464845Q14.522971752929687,8.041645876464845,14.582071752929687,8.066145876464844Q14.641271752929688,8.090645876464844,14.694471752929687,8.126215876464844Q14.747671752929687,8.161775876464844,14.792971752929688,8.207045876464843Q14.838271752929687,8.252315876464845,14.873771752929688,8.305545876464844Q14.909371752929687,8.358775876464843,14.933871752929688,8.417925876464844Q14.958371752929688,8.477065876464843,14.970871752929687,8.539855876464845Q14.983371752929688,8.602645876464845,14.983371752929688,8.666665876464844Z" fill="#FFFFFF" fill-opacity="1"/></g><g><path d="M8.83268,5.41612L7.16601,7.416119999999999Q7.125030000000001,7.4653,7.0752299999999995,7.50554Q7.02544,7.545780000000001,6.96876,7.5755300000000005Q6.91207,7.60529,6.85067,7.62341Q6.78927,7.6415299999999995,6.72551,7.64733Q6.66176,7.65313,6.5981000000000005,7.64637Q6.53443,7.63962,6.47331,7.62058Q6.41219,7.60153,6.35596,7.570930000000001Q6.29973,7.54033,6.2505500000000005,7.49934Q6.20515,7.4615100000000005,6.16732,7.416119999999999L4.500656,5.41612Q4.459672,5.366939,4.42907,5.310707Q4.398468,5.254475,4.379424,5.193354Q4.360381,5.132233,4.353627,5.0685704Q4.346873,5.00490826,4.352669,4.9411518Q4.358466,4.877395,4.376588,4.815995Q4.394711,4.754594,4.424465,4.697909Q4.454218,4.641223,4.494459,4.591432Q4.534699,4.54164,4.58388,4.500656Q4.633061,4.459672,4.689293,4.42907Q4.745525,4.398468,4.806646,4.379424Q4.867767,4.360381,4.9314296,4.353627Q4.99509174,4.346873,5.0588482,4.352669Q5.122605,4.358466,5.184005,4.376588Q5.245406,4.394711,5.302091,4.424465Q5.358777,4.454218,5.408568,4.494459Q5.45836,4.534699,5.499344,4.58388L7.16601,6.58388L6.66667,7L6.16732,6.58388L7.83399,4.58388Q7.874969999999999,4.534699,7.9247700000000005,4.494459Q7.97456,4.454218,8.03124,4.424465Q8.08793,4.394711,8.149329999999999,4.376588Q8.21073,4.358466,8.27448,4.352669Q8.338239999999999,4.346873,8.4019,4.353627Q8.46557,4.360381,8.52669,4.379424Q8.587810000000001,4.398468,8.64404,4.42907Q8.70027,4.459672,8.74945,4.500656Q8.79863,4.54164,8.83887,4.591432Q8.87911,4.641223,8.90887,4.697909Q8.93862,4.754594,8.95674,4.815995Q8.97487,4.877395,8.98066,4.9411518Q8.986460000000001,5.00490826,8.97971,5.0685704Q8.97295,5.132233,8.95391,5.193354Q8.93486,5.254475,8.90426,5.310707Q8.873660000000001,5.366939,8.83268,5.41612ZM8.98333,5Q8.98333,5.0640194,8.970839999999999,5.126809Q8.95835,5.189598,8.93385,5.248744Q8.90936,5.30789,8.87379,5.361121Q8.83822,5.414351,8.79295,5.459619Q8.747679999999999,5.504888,8.69445,5.540455Q8.64122,5.576022,8.58208,5.600522Q8.52293,5.625021,8.460139999999999,5.63751Q8.39735,5.65,8.33333,5.65Q8.26931,5.65,8.20652,5.63751Q8.143740000000001,5.625021,8.08459,5.600522Q8.02544,5.576022,7.9722100000000005,5.540455Q7.9189799999999995,5.504888,7.87371,5.459619Q7.82845,5.414351,7.79288,5.361121Q7.75731,5.30789,7.732810000000001,5.248744Q7.70831,5.189598,7.695819999999999,5.126809Q7.68333,5.0640194,7.68333,5Q7.68333,4.9359806,7.695819999999999,4.873191Q7.70831,4.810402,7.732810000000001,4.751256Q7.75731,4.69211,7.79288,4.638879Q7.82845,4.585649,7.87371,4.540381Q7.9189799999999995,4.495112,7.9722100000000005,4.459545Q8.02544,4.423978,8.08459,4.399478Q8.143740000000001,4.374979,8.20652,4.36249Q8.26931,4.35,8.33333,4.35Q8.39735,4.35,8.460139999999999,4.36249Q8.52293,4.374979,8.58208,4.399478Q8.64122,4.423978,8.69445,4.459545Q8.747679999999999,4.495112,8.79295,4.540381Q8.83822,4.585649,8.87379,4.638879Q8.90936,4.69211,8.93385,4.751256Q8.95835,4.810402,8.970839999999999,4.873191Q8.98333,4.9359806,8.98333,5ZM5.65,5Q5.65,5.0640194,5.63751,5.126809Q5.625021,5.189598,5.600522,5.248744Q5.576022,5.30789,5.540455,5.361121Q5.504888,5.414351,5.459619,5.459619Q5.414351,5.504888,5.361121,5.540455Q5.30789,5.576022,5.248744,5.600522Q5.189598,5.625021,5.126809,5.63751Q5.0640194,5.65,5,5.65Q4.9359806,5.65,4.873191,5.63751Q4.810402,5.625021,4.751256,5.600522Q4.69211,5.576022,4.638879,5.540455Q4.585649,5.504888,4.540381,5.459619Q4.495112,5.414351,4.459545,5.361121Q4.423978,5.30789,4.399478,5.248744Q4.374979,5.189598,4.36249,5.126809Q4.35,5.0640194,4.35,5Q4.35,4.9359806,4.36249,4.873191Q4.374979,4.810402,4.399478,4.751256Q4.423978,4.69211,4.459545,4.638879Q4.495112,4.585649,4.540381,4.540381Q4.585649,4.495112,4.638879,4.459545Q4.69211,4.423978,4.751256,4.399478Q4.810402,4.374979,4.873191,4.36249Q4.9359806,4.35,5,4.35Q5.0640194,4.35,5.126809,4.36249Q5.189598,4.374979,5.248744,4.399478Q5.30789,4.423978,5.361121,4.459545Q5.414351,4.495112,5.459619,4.540381Q5.504888,4.585649,5.540455,4.638879Q5.576022,4.69211,5.600522,4.751256Q5.625021,4.810402,5.63751,4.873191Q5.65,4.9359806,5.65,5Z" fill="#FFFFFF" fill-opacity="1"/></g><g><path d="M8.666671752929688,9.65L4.6666717529296875,9.65Q4.602652352929687,9.65,4.539862752929688,9.63751Q4.477073752929687,9.625021,4.417927752929687,9.600522Q4.358781752929687,9.576022,4.305550752929688,9.540455Q4.252320752929688,9.504888,4.2070527529296875,9.459619Q4.161783752929687,9.414351,4.126216752929688,9.361121Q4.0906497529296875,9.30789,4.066149752929688,9.248744Q4.041650752929687,9.189598,4.029161752929688,9.126809Q4.016671752929687,9.0640194,4.016671752929687,9Q4.016671752929687,8.9359806,4.029161752929688,8.873191Q4.041650752929687,8.810402,4.066149752929688,8.751256Q4.0906497529296875,8.69211,4.126216752929688,8.638879Q4.161783752929687,8.585649,4.2070527529296875,8.540381Q4.252320752929688,8.495112,4.305550752929688,8.459545Q4.358781752929687,8.423978,4.417927752929687,8.399478Q4.477073752929687,8.374979,4.539862752929688,8.36249Q4.602652352929687,8.35,4.6666717529296875,8.35L8.666671752929688,8.35Q8.730691752929687,8.35,8.793481752929686,8.36249Q8.856271752929688,8.374979,8.915411752929687,8.399478Q8.974561752929688,8.423978,9.027791752929687,8.459545Q9.081021752929686,8.495112,9.126291752929689,8.540381Q9.171561752929687,8.585649,9.207121752929687,8.638879Q9.242691752929687,8.69211,9.267191752929687,8.751256Q9.291691752929687,8.810402,9.304181752929686,8.873191Q9.316671752929688,8.9359806,9.316671752929688,9Q9.316671752929688,9.0640194,9.304181752929686,9.126809Q9.291691752929687,9.189598,9.267191752929687,9.248744Q9.242691752929687,9.30789,9.207121752929687,9.361121Q9.171561752929687,9.414351,9.126291752929689,9.459619Q9.081021752929686,9.504888,9.027791752929687,9.540455Q8.974561752929688,9.576022,8.915411752929687,9.600522Q8.856271752929688,9.625021,8.793481752929686,9.63751Q8.730691752929687,9.65,8.666671752929688,9.65ZM9.316671752929688,9Q9.316671752929688,9.0640194,9.304181752929686,9.126809Q9.291691752929687,9.189598,9.267191752929687,9.248744Q9.242691752929687,9.30789,9.207121752929687,9.361121Q9.171561752929687,9.414351,9.126291752929689,9.459619Q9.081021752929686,9.504888,9.027791752929687,9.540455Q8.974561752929688,9.576022,8.915411752929687,9.600522Q8.856271752929688,9.625021,8.793481752929686,9.63751Q8.730691752929687,9.65,8.666671752929688,9.65Q8.602651752929688,9.65,8.539861752929689,9.63751Q8.477071752929687,9.625021,8.417931752929688,9.600522Q8.358781752929687,9.576022,8.305551752929688,9.540455Q8.252321752929687,9.504888,8.207051752929686,9.459619Q8.161781752929688,9.414351,8.126211752929688,9.361121Q8.090651752929688,9.30789,8.066151752929688,9.248744Q8.041651752929688,9.189598,8.029161752929689,9.126809Q8.016671752929687,9.0640194,8.016671752929687,9Q8.016671752929687,8.9359806,8.029161752929689,8.873191Q8.041651752929688,8.810402,8.066151752929688,8.751256Q8.090651752929688,8.69211,8.126211752929688,8.638879Q8.161781752929688,8.585649,8.207051752929686,8.540381Q8.252321752929687,8.495112,8.305551752929688,8.459545Q8.358781752929687,8.423978,8.417931752929688,8.399478Q8.477071752929687,8.374979,8.539861752929689,8.36249Q8.602651752929688,8.35,8.666671752929688,8.35Q8.730691752929687,8.35,8.793481752929686,8.36249Q8.856271752929688,8.374979,8.915411752929687,8.399478Q8.974561752929688,8.423978,9.027791752929687,8.459545Q9.081021752929686,8.495112,9.126291752929689,8.540381Q9.171561752929687,8.585649,9.207121752929687,8.638879Q9.242691752929687,8.69211,9.267191752929687,8.751256Q9.291691752929687,8.810402,9.304181752929686,8.873191Q9.316671752929688,8.9359806,9.316671752929688,9ZM5.316671752929688,9Q5.316671752929688,9.0640194,5.304181752929687,9.126809Q5.291692752929688,9.189598,5.267193752929687,9.248744Q5.2426937529296875,9.30789,5.207126752929687,9.361121Q5.171559752929688,9.414351,5.1262907529296875,9.459619Q5.081022752929687,9.504888,5.027792752929687,9.540455Q4.974561752929688,9.576022,4.915415752929688,9.600522Q4.856269752929688,9.625021,4.793480752929687,9.63751Q4.730691152929688,9.65,4.6666717529296875,9.65Q4.602652352929687,9.65,4.539862752929688,9.63751Q4.477073752929687,9.625021,4.417927752929687,9.600522Q4.358781752929687,9.576022,4.305550752929688,9.540455Q4.252320752929688,9.504888,4.2070527529296875,9.459619Q4.161783752929687,9.414351,4.126216752929688,9.361121Q4.0906497529296875,9.30789,4.066149752929688,9.248744Q4.041650752929687,9.189598,4.029161752929688,9.126809Q4.016671752929687,9.0640194,4.016671752929687,9Q4.016671752929687,8.9359806,4.029161752929688,8.873191Q4.041650752929687,8.810402,4.066149752929688,8.751256Q4.0906497529296875,8.69211,4.126216752929688,8.638879Q4.161783752929687,8.585649,4.2070527529296875,8.540381Q4.252320752929688,8.495112,4.305550752929688,8.459545Q4.358781752929687,8.423978,4.417927752929687,8.399478Q4.477073752929687,8.374979,4.539862752929688,8.36249Q4.602652352929687,8.35,4.6666717529296875,8.35Q4.730691152929688,8.35,4.793480752929687,8.36249Q4.856269752929688,8.374979,4.915415752929688,8.399478Q4.974561752929688,8.423978,5.027792752929687,8.459545Q5.081022752929687,8.495112,5.1262907529296875,8.540381Q5.171559752929688,8.585649,5.207126752929687,8.638879Q5.2426937529296875,8.69211,5.267193752929687,8.751256Q5.291692752929688,8.810402,5.304181752929687,8.873191Q5.316671752929688,8.9359806,5.316671752929688,9Z" fill="#FFFFFF" fill-opacity="1"/></g><g><path d="M8.666671752929688,7.65L4.6666717529296875,7.65Q4.602652352929687,7.65,4.539862752929688,7.63751Q4.477073752929687,7.625021,4.417927752929687,7.600522Q4.358781752929687,7.576022,4.305550752929688,7.540455Q4.252320752929688,7.504888,4.2070527529296875,7.459619Q4.161783752929687,7.414351,4.126216752929688,7.361121Q4.0906497529296875,7.30789,4.066149752929688,7.248744Q4.041650752929687,7.189598,4.029161752929688,7.126809Q4.016671752929687,7.0640194,4.016671752929687,7Q4.016671752929687,6.9359806,4.029161752929688,6.873191Q4.041650752929687,6.810402,4.066149752929688,6.751256Q4.0906497529296875,6.69211,4.126216752929688,6.638879Q4.161783752929687,6.585649,4.2070527529296875,6.540381Q4.252320752929688,6.495112,4.305550752929688,6.459545Q4.358781752929687,6.423978,4.417927752929687,6.399478Q4.477073752929687,6.374979,4.539862752929688,6.36249Q4.602652352929687,6.35,4.6666717529296875,6.35L8.666671752929688,6.35Q8.730691752929687,6.35,8.793481752929686,6.36249Q8.856271752929688,6.374979,8.915411752929687,6.399478Q8.974561752929688,6.423978,9.027791752929687,6.459545Q9.081021752929686,6.495112,9.126291752929689,6.540381Q9.171561752929687,6.585649,9.207121752929687,6.638879Q9.242691752929687,6.69211,9.267191752929687,6.751256Q9.291691752929687,6.810402,9.304181752929686,6.873191Q9.316671752929688,6.9359806,9.316671752929688,7Q9.316671752929688,7.0640194,9.304181752929686,7.126809Q9.291691752929687,7.189598,9.267191752929687,7.248744Q9.242691752929687,7.30789,9.207121752929687,7.361121Q9.171561752929687,7.414351,9.126291752929689,7.459619Q9.081021752929686,7.504888,9.027791752929687,7.540455Q8.974561752929688,7.576022,8.915411752929687,7.600522Q8.856271752929688,7.625021,8.793481752929686,7.63751Q8.730691752929687,7.65,8.666671752929688,7.65ZM9.316671752929688,7Q9.316671752929688,7.0640194,9.304181752929686,7.126809Q9.291691752929687,7.189598,9.267191752929687,7.248744Q9.242691752929687,7.30789,9.207121752929687,7.361121Q9.171561752929687,7.414351,9.126291752929689,7.459619Q9.081021752929686,7.504888,9.027791752929687,7.540455Q8.974561752929688,7.576022,8.915411752929687,7.600522Q8.856271752929688,7.625021,8.793481752929686,7.63751Q8.730691752929687,7.65,8.666671752929688,7.65Q8.602651752929688,7.65,8.539861752929689,7.63751Q8.477071752929687,7.625021,8.417931752929688,7.600522Q8.358781752929687,7.576022,8.305551752929688,7.540455Q8.252321752929687,7.504888,8.207051752929686,7.459619Q8.161781752929688,7.414351,8.126211752929688,7.361121Q8.090651752929688,7.30789,8.066151752929688,7.248744Q8.041651752929688,7.189598,8.029161752929689,7.126809Q8.016671752929687,7.0640194,8.016671752929687,7Q8.016671752929687,6.9359806,8.029161752929689,6.873191Q8.041651752929688,6.810402,8.066151752929688,6.751256Q8.090651752929688,6.69211,8.126211752929688,6.638879Q8.161781752929688,6.585649,8.207051752929686,6.540381Q8.252321752929687,6.495112,8.305551752929688,6.459545Q8.358781752929687,6.423978,8.417931752929688,6.399478Q8.477071752929687,6.374979,8.539861752929689,6.36249Q8.602651752929688,6.35,8.666671752929688,6.35Q8.730691752929687,6.35,8.793481752929686,6.36249Q8.856271752929688,6.374979,8.915411752929687,6.399478Q8.974561752929688,6.423978,9.027791752929687,6.459545Q9.081021752929686,6.495112,9.126291752929689,6.540381Q9.171561752929687,6.585649,9.207121752929687,6.638879Q9.242691752929687,6.69211,9.267191752929687,6.751256Q9.291691752929687,6.810402,9.304181752929686,6.873191Q9.316671752929688,6.9359806,9.316671752929688,7ZM5.316671752929688,7Q5.316671752929688,7.0640194,5.304181752929687,7.126809Q5.291692752929688,7.189598,5.267193752929687,7.248744Q5.2426937529296875,7.30789,5.207126752929687,7.361121Q5.171559752929688,7.414351,5.1262907529296875,7.459619Q5.081022752929687,7.504888,5.027792752929687,7.540455Q4.974561752929688,7.576022,4.915415752929688,7.600522Q4.856269752929688,7.625021,4.793480752929687,7.63751Q4.730691152929688,7.65,4.6666717529296875,7.65Q4.602652352929687,7.65,4.539862752929688,7.63751Q4.477073752929687,7.625021,4.417927752929687,7.600522Q4.358781752929687,7.576022,4.305550752929688,7.540455Q4.252320752929688,7.504888,4.2070527529296875,7.459619Q4.161783752929687,7.414351,4.126216752929688,7.361121Q4.0906497529296875,7.30789,4.066149752929688,7.248744Q4.041650752929687,7.189598,4.029161752929688,7.126809Q4.016671752929687,7.0640194,4.016671752929687,7Q4.016671752929687,6.9359806,4.029161752929688,6.873191Q4.041650752929687,6.810402,4.066149752929688,6.751256Q4.0906497529296875,6.69211,4.126216752929688,6.638879Q4.161783752929687,6.585649,4.2070527529296875,6.540381Q4.252320752929688,6.495112,4.305550752929688,6.459545Q4.358781752929687,6.423978,4.417927752929687,6.399478Q4.477073752929687,6.374979,4.539862752929688,6.36249Q4.602652352929687,6.35,4.6666717529296875,6.35Q4.730691152929688,6.35,4.793480752929687,6.36249Q4.856269752929688,6.374979,4.915415752929688,6.399478Q4.974561752929688,6.423978,5.027792752929687,6.459545Q5.081022752929687,6.495112,5.1262907529296875,6.540381Q5.171559752929688,6.585649,5.207126752929687,6.638879Q5.2426937529296875,6.69211,5.267193752929687,6.751256Q5.291692752929688,6.810402,5.304181752929687,6.873191Q5.316671752929688,6.9359806,5.316671752929688,7Z" fill="#FFFFFF" fill-opacity="1"/></g><g><path d="M6.016671752929687,11L6.016671752929687,7Q6.016671752929687,6.9359806,6.029161752929688,6.873191Q6.041650752929687,6.810402,6.066149752929688,6.751256Q6.0906497529296875,6.69211,6.126216752929688,6.638879Q6.161783752929687,6.585649,6.2070527529296875,6.540381Q6.252320752929688,6.495112,6.305550752929688,6.459545Q6.358781752929687,6.423978,6.417927752929687,6.399478Q6.477073752929687,6.374979,6.539862752929688,6.36249Q6.602652352929687,6.35,6.6666717529296875,6.35Q6.730691152929688,6.35,6.793480752929687,6.36249Q6.856269752929688,6.374979,6.915415752929688,6.399478Q6.974561752929688,6.423978,7.027792752929687,6.459545Q7.081022752929687,6.495112,7.1262907529296875,6.540381Q7.171559752929688,6.585649,7.207126752929687,6.638879Q7.2426937529296875,6.69211,7.267193752929687,6.751256Q7.291692752929688,6.810402,7.304181752929687,6.873191Q7.316671752929688,6.9359806,7.316671752929688,7L7.316671752929688,11Q7.316671752929688,11.06402,7.304181752929687,11.126809999999999Q7.291692752929688,11.1896,7.267193752929687,11.24874Q7.2426937529296875,11.30789,7.207126752929687,11.36112Q7.171559752929688,11.414349999999999,7.1262907529296875,11.459620000000001Q7.081022752929687,11.50489,7.027792752929687,11.54045Q6.974561752929688,11.57602,6.915415752929688,11.60052Q6.856269752929688,11.62502,6.793480752929687,11.637509999999999Q6.730691152929688,11.65,6.6666717529296875,11.65Q6.602652352929687,11.65,6.539862752929688,11.637509999999999Q6.477073752929687,11.62502,6.417927752929687,11.60052Q6.358781752929687,11.57602,6.305550752929688,11.54045Q6.252320752929688,11.50489,6.2070527529296875,11.459620000000001Q6.161783752929687,11.414349999999999,6.126216752929688,11.36112Q6.0906497529296875,11.30789,6.066149752929688,11.24874Q6.041650752929687,11.1896,6.029161752929688,11.126809999999999Q6.016671752929687,11.06402,6.016671752929687,11ZM7.316671752929688,11Q7.316671752929688,11.06402,7.304181752929687,11.126809999999999Q7.291692752929688,11.1896,7.267193752929687,11.24874Q7.2426937529296875,11.30789,7.207126752929687,11.36112Q7.171559752929688,11.414349999999999,7.1262907529296875,11.459620000000001Q7.081022752929687,11.50489,7.027792752929687,11.54045Q6.974561752929688,11.57602,6.915415752929688,11.60052Q6.856269752929688,11.62502,6.793480752929687,11.637509999999999Q6.730691152929688,11.65,6.6666717529296875,11.65Q6.602652352929687,11.65,6.539862752929688,11.637509999999999Q6.477073752929687,11.62502,6.417927752929687,11.60052Q6.358781752929687,11.57602,6.305550752929688,11.54045Q6.252320752929688,11.50489,6.2070527529296875,11.459620000000001Q6.161783752929687,11.414349999999999,6.126216752929688,11.36112Q6.0906497529296875,11.30789,6.066149752929688,11.24874Q6.041650752929687,11.1896,6.029161752929688,11.126809999999999Q6.016671752929687,11.06402,6.016671752929687,11Q6.016671752929687,10.93598,6.029161752929688,10.873190000000001Q6.041650752929687,10.8104,6.066149752929688,10.75126Q6.0906497529296875,10.69211,6.126216752929688,10.63888Q6.161783752929687,10.58565,6.2070527529296875,10.540379999999999Q6.252320752929688,10.49511,6.305550752929688,10.45954Q6.358781752929687,10.42398,6.417927752929687,10.39948Q6.477073752929687,10.37498,6.539862752929688,10.362490000000001Q6.602652352929687,10.35,6.6666717529296875,10.35Q6.730691152929688,10.35,6.793480752929687,10.362490000000001Q6.856269752929688,10.37498,6.915415752929688,10.39948Q6.974561752929688,10.42398,7.027792752929687,10.45954Q7.081022752929687,10.49511,7.1262907529296875,10.540379999999999Q7.171559752929688,10.58565,7.207126752929687,10.63888Q7.2426937529296875,10.69211,7.267193752929687,10.75126Q7.291692752929688,10.8104,7.304181752929687,10.873190000000001Q7.316671752929688,10.93598,7.316671752929688,11ZM7.316671752929688,7Q7.316671752929688,7.0640194,7.304181752929687,7.126809Q7.291692752929688,7.189598,7.267193752929687,7.248744Q7.2426937529296875,7.30789,7.207126752929687,7.361121Q7.171559752929688,7.414351,7.1262907529296875,7.459619Q7.081022752929687,7.504888,7.027792752929687,7.540455Q6.974561752929688,7.576022,6.915415752929688,7.600522Q6.856269752929688,7.625021,6.793480752929687,7.63751Q6.730691152929688,7.65,6.6666717529296875,7.65Q6.602652352929687,7.65,6.539862752929688,7.63751Q6.477073752929687,7.625021,6.417927752929687,7.600522Q6.358781752929687,7.576022,6.305550752929688,7.540455Q6.252320752929688,7.504888,6.2070527529296875,7.459619Q6.161783752929687,7.414351,6.126216752929688,7.361121Q6.0906497529296875,7.30789,6.066149752929688,7.248744Q6.041650752929687,7.189598,6.029161752929688,7.126809Q6.016671752929687,7.0640194,6.016671752929687,7Q6.016671752929687,6.9359806,6.029161752929688,6.873191Q6.041650752929687,6.810402,6.066149752929688,6.751256Q6.0906497529296875,6.69211,6.126216752929688,6.638879Q6.161783752929687,6.585649,6.2070527529296875,6.540381Q6.252320752929688,6.495112,6.305550752929688,6.459545Q6.358781752929687,6.423978,6.417927752929687,6.399478Q6.477073752929687,6.374979,6.539862752929688,6.36249Q6.602652352929687,6.35,6.6666717529296875,6.35Q6.730691152929688,6.35,6.793480752929687,6.36249Q6.856269752929688,6.374979,6.915415752929688,6.399478Q6.974561752929688,6.423978,7.027792752929687,6.459545Q7.081022752929687,6.495112,7.1262907529296875,6.540381Q7.171559752929688,6.585649,7.207126752929687,6.638879Q7.2426937529296875,6.69211,7.267193752929687,6.751256Q7.291692752929688,6.810402,7.304181752929687,6.873191Q7.316671752929688,6.9359806,7.316671752929688,7Z" fill="#FFFFFF" fill-opacity="1"/></g></g></svg>