<svg xmlns="http://www.w3.org/2000/svg" xmlns:xlink="http://www.w3.org/1999/xlink" version="1.1" viewBox="0 0 24 24"><g style="mix-blend-mode:passthrough"><g style="mix-blend-mode:passthrough"></g><g style="mix-blend-mode:passthrough"><path d="M14.5,20C14.7761,20,15,20.2238,15,20.5C15,20.5,15,21.5,15,21.5C15,21.7761,14.7761,22,14.5,22C14.5,22,9.5,22,9.5,22C9.22386,22,9,21.7761,9,21.5C9,21.5,9,20.5,9,20.5C9,20.2238,9.22386,20,9.5,20C9.5,20,14.5,20,14.5,20ZM13.5,1.5C13.7761,1.5,14,1.723857,14,1.999999C14,1.999999,14.0003,2.76025,14.0003,2.76025C17.4506,3.6771,20,6.91025,20,10.75805C20,10.75805,20,16.5,20,16.5C20,16.5,21.5,16.5,21.5,16.5C21.7761,16.5,22,16.7238,22,17C22,17,22,18,22,18C22,18.2761,21.7761,18.5,21.5,18.5C21.5,18.5,2.5,18.5,2.5,18.5C2.223858,18.5,2,18.2761,2,18C2,18,2,17,2,17C2,16.7238,2.223858,16.5,2.5,16.5C2.5,16.5,4,16.5,4,16.5C4,16.5,4,10.75805,4,10.75805C4,6.91006,6.54963,3.67679,10.00017,2.7601199999999997C10.00017,2.7601199999999997,10,1.999999,10,1.999999C10,1.723857,10.22386,1.5,10.5,1.5C10.5,1.5,13.5,1.5,13.5,1.5Z" fill-rule="evenodd" fill-opacity="1"/></g></g></svg>