<svg xmlns="http://www.w3.org/2000/svg" xmlns:xlink="http://www.w3.org/1999/xlink" version="1.1" width="7.927734375" height="6.6422119140625" viewBox="0 0 7.927734375 6.6422119140625"><g style="mix-blend-mode:passthrough"><path d="M7.70429171875,0.547883L7.22551171875,0.146141C6.96103171875,-0.0755619,6.56690171875,-0.0411333,6.34486171875,0.223068L2.97597171875,4.23574L1.45193171875,2.924C1.19443171875,2.70238,0.80707271875,2.72702,0.57974771875,2.97949L0.16039571875,3.44523C0.15771971875,3.4482,0.15507271875,3.4512,0.15245371875,3.45422C-0.07354878125,3.71513,-0.04525658125,4.10984,0.21564671875,4.33584L1.76508171875,5.67802L1.76301171875,5.68049L1.92031171875,5.81248L2.70198171875,6.48959C2.70520171875,6.49237,2.70844171875,6.49513,2.71172171875,6.49785C2.96909171875,6.71175,3.34734171875,6.6841,3.57122171875,6.44029C3.58153171875,6.42965,3.59153171875,6.41857,3.60121171875,6.40705L7.78119171875,1.42829L7.78143171875,1.42827C8.00331171875,1.16385,7.96882171875,0.769629,7.70429171875,0.547883Z" fill-rule="evenodd" fill-opacity="1"/></g></svg>