<svg xmlns="http://www.w3.org/2000/svg" xmlns:xlink="http://www.w3.org/1999/xlink" version="1.1" viewBox="0 0 24 24"><defs><clipPath id="master_svg0_94_22355"><rect x="0" y="0" width="24" height="24" rx="0"/></clipPath></defs><g clip-path="url(#master_svg0_94_22355)"><g><path d="M8.85,20.5L8.85,16Q8.85,15.9359806,8.86249,15.873191Q8.874979,15.810402,8.899478,15.751256Q8.923978,15.69211,8.959545,15.638879Q8.995112,15.585649,9.040381,15.540381Q9.085649,15.495112,9.138879,15.459545Q9.19211,15.423978,9.251256,15.399478Q9.310402,15.374979,9.373191,15.36249Q9.4359806,15.35,9.5,15.35L14.5,15.35Q14.56402,15.35,14.626809999999999,15.36249Q14.6896,15.374979,14.74874,15.399478Q14.80789,15.423978,14.86112,15.459545Q14.914349999999999,15.495112,14.959620000000001,15.540381Q15.00489,15.585649,15.04045,15.638879Q15.07602,15.69211,15.10052,15.751256Q15.12502,15.810402,15.137509999999999,15.873191Q15.15,15.9359806,15.15,16L15.15,20.5Q15.15,20.56402,15.137509999999999,20.62681Q15.12502,20.6896,15.10052,20.748739999999998Q15.07602,20.80789,15.04045,20.86112Q15.00489,20.91435,14.959620000000001,20.95962Q14.914349999999999,21.00489,14.86112,21.04045Q14.80789,21.07602,14.74874,21.10052Q14.6896,21.12502,14.626809999999999,21.13751Q14.56402,21.15,14.5,21.15L9.5,21.15Q9.4359806,21.15,9.373191,21.13751Q9.310402,21.12502,9.251256,21.10052Q9.19211,21.07602,9.138879,21.04046Q9.085649,21.00489,9.040381,20.95962Q8.995112,20.91435,8.959545,20.86112Q8.923978,20.80789,8.899478,20.748739999999998Q8.874979,20.6896,8.86249,20.62681Q8.85,20.56402,8.85,20.5ZM10.15,16.65L10.15,19.85L13.85,19.85L13.85,16.65L10.15,16.65Z" fill="#1D2129" fill-opacity="1"/></g><g><rect x="2.5" y="4" width="19" height="12" rx="2" fill-opacity="0" stroke-opacity="1" stroke="#1D2129" fill="none" stroke-width="1.2999999523162842"/></g><g><path d="M13,14.15L11,14.15Q10.9359806,14.15,10.873191,14.13751Q10.810402,14.125021,10.751256,14.100522Q10.69211,14.076022,10.638879,14.040455Q10.585649,14.004888,10.540381,13.959619Q10.495112,13.914351,10.459545,13.861121Q10.423978,13.80789,10.399478,13.748744Q10.374979,13.689598,10.36249,13.626809Q10.35,13.5640194,10.35,13.5Q10.35,13.4359806,10.36249,13.373191Q10.374979,13.310402,10.399478,13.251256Q10.423978,13.19211,10.459545,13.138879Q10.495112,13.085649,10.540381,13.040381Q10.585649,12.995112,10.638879,12.959545Q10.69211,12.923978,10.751256,12.899478Q10.810402,12.874979,10.873191,12.86249Q10.9359806,12.85,11,12.85L13,12.85Q13.06402,12.85,13.126809999999999,12.86249Q13.1896,12.874979,13.24874,12.899478Q13.30789,12.923978,13.36112,12.959545Q13.41435,12.995112,13.459620000000001,13.040381Q13.50489,13.085649,13.54046,13.138879Q13.57602,13.19211,13.60052,13.251256Q13.62502,13.310402,13.637509999999999,13.373191Q13.65,13.4359806,13.65,13.5Q13.65,13.5640194,13.637509999999999,13.626809Q13.62502,13.689598,13.60052,13.748744Q13.57602,13.80789,13.54046,13.861121Q13.50489,13.914351,13.459620000000001,13.959619Q13.41435,14.004888,13.36112,14.040455Q13.30789,14.076022,13.24874,14.100522Q13.1896,14.125021,13.126809999999999,14.13751Q13.06402,14.15,13,14.15ZM13.65,13.5Q13.65,13.5640194,13.637509999999999,13.626809Q13.62502,13.689598,13.60052,13.748744Q13.57602,13.80789,13.54046,13.861121Q13.50489,13.914351,13.459620000000001,13.959619Q13.41435,14.004888,13.36112,14.040455Q13.30789,14.076022,13.24874,14.100522Q13.1896,14.125021,13.126809999999999,14.13751Q13.06402,14.15,13,14.15Q12.93598,14.15,12.87319,14.13751Q12.8104,14.125021,12.75126,14.100522Q12.69211,14.076022,12.63888,14.040455Q12.58565,14.004888,12.54038,13.959619Q12.49511,13.914351,12.45954,13.861121Q12.42398,13.80789,12.39948,13.748744Q12.37498,13.689598,12.36249,13.626809Q12.35,13.5640194,12.35,13.5Q12.35,13.4359806,12.36249,13.373191Q12.37498,13.310402,12.39948,13.251256Q12.42398,13.19211,12.45954,13.138879Q12.49511,13.085649,12.54038,13.040381Q12.58565,12.995112,12.63888,12.959545Q12.69211,12.923978,12.75126,12.899478Q12.8104,12.874979,12.87319,12.86249Q12.93598,12.85,13,12.85Q13.06402,12.85,13.126809999999999,12.86249Q13.1896,12.874979,13.24874,12.899478Q13.30789,12.923978,13.36112,12.959545Q13.41435,12.995112,13.459620000000001,13.040381Q13.50489,13.085649,13.54046,13.138879Q13.57602,13.19211,13.60052,13.251256Q13.62502,13.310402,13.637509999999999,13.373191Q13.65,13.4359806,13.65,13.5ZM11.65,13.5Q11.65,13.5640194,11.63751,13.626809Q11.625021,13.689598,11.600522,13.748744Q11.576022,13.80789,11.540455,13.861121Q11.504888,13.914351,11.459619,13.959619Q11.414351,14.004888,11.361121,14.040455Q11.30789,14.076022,11.248744,14.100522Q11.189598,14.125021,11.126809,14.13751Q11.0640194,14.15,11,14.15Q10.9359806,14.15,10.873191,14.13751Q10.810402,14.125021,10.751256,14.100522Q10.69211,14.076022,10.638879,14.040455Q10.585649,14.004888,10.540381,13.959619Q10.495112,13.914351,10.459545,13.861121Q10.423978,13.80789,10.399478,13.748744Q10.374979,13.689598,10.36249,13.626809Q10.35,13.5640194,10.35,13.5Q10.35,13.4359806,10.36249,13.373191Q10.374979,13.310402,10.399478,13.251256Q10.423978,13.19211,10.459545,13.138879Q10.495112,13.085649,10.540381,13.040381Q10.585649,12.995112,10.638879,12.959545Q10.69211,12.923978,10.751256,12.899478Q10.810402,12.874979,10.873191,12.86249Q10.9359806,12.85,11,12.85Q11.0640194,12.85,11.126809,12.86249Q11.189598,12.874979,11.248744,12.899478Q11.30789,12.923978,11.361121,12.959545Q11.414351,12.995112,11.459619,13.040381Q11.504888,13.085649,11.540455,13.138879Q11.576022,13.19211,11.600522,13.251256Q11.625021,13.310402,11.63751,13.373191Q11.65,13.4359806,11.65,13.5Z" fill="#1D2129" fill-opacity="1"/></g><g><path d="M17,21.15L7,21.15Q6.9359806,21.15,6.873191,21.13751Q6.810402,21.125021,6.751256,21.100522Q6.69211,21.076022000000002,6.638879,21.040455Q6.585649,21.004888,6.540381,20.959619Q6.495112,20.914351,6.459545,20.861121Q6.423978,20.80789,6.399478,20.748744Q6.374979,20.689598,6.36249,20.626809Q6.35,20.5640194,6.35,20.5Q6.35,20.4359806,6.36249,20.373191Q6.374979,20.310402,6.399478,20.251256Q6.423978,20.19211,6.459545,20.138879Q6.495112,20.085649,6.540381,20.040381Q6.585649,19.995112,6.638879,19.959545Q6.69211,19.923977999999998,6.751256,19.899478Q6.810402,19.874979,6.873191,19.86249Q6.9359806,19.85,7,19.85L17,19.85Q17.064,19.85,17.1268,19.86249Q17.1896,19.874979,17.2487,19.899478Q17.3079,19.923977999999998,17.3611,19.959545Q17.4143,19.995112,17.459600000000002,20.040381Q17.5049,20.085649,17.5405,20.138879Q17.576,20.19211,17.6005,20.251256Q17.625,20.310402,17.6375,20.373191Q17.65,20.4359806,17.65,20.5Q17.65,20.5640194,17.6375,20.626809Q17.625,20.689598,17.6005,20.748744Q17.576,20.80789,17.5405,20.861121Q17.5049,20.914351,17.459600000000002,20.959619Q17.4143,21.004888,17.3611,21.040455Q17.3079,21.076022000000002,17.2487,21.100522Q17.1896,21.125021,17.1268,21.13751Q17.064,21.15,17,21.15ZM17.65,20.5Q17.65,20.5640194,17.6375,20.626809Q17.625,20.689598,17.6005,20.748744Q17.576,20.80789,17.5405,20.861121Q17.5049,20.914351,17.459600000000002,20.959619Q17.4143,21.004888,17.3611,21.040455Q17.3079,21.076022000000002,17.2487,21.100522Q17.1896,21.125021,17.1268,21.13751Q17.064,21.15,17,21.15Q16.93598,21.15,16.87319,21.13751Q16.8104,21.125021,16.751260000000002,21.100522Q16.69211,21.076022000000002,16.63888,21.040455Q16.58565,21.004888,16.54038,20.959619Q16.49511,20.914351,16.45954,20.861121Q16.42398,20.80789,16.39948,20.748744Q16.37498,20.689598,16.36249,20.626809Q16.35,20.5640194,16.35,20.5Q16.35,20.4359806,16.36249,20.373191Q16.37498,20.310402,16.39948,20.251256Q16.42398,20.19211,16.45954,20.138879Q16.49511,20.085649,16.54038,20.040381Q16.58565,19.995112,16.63888,19.959545Q16.69211,19.923977999999998,16.751260000000002,19.899478Q16.8104,19.874979,16.87319,19.86249Q16.93598,19.85,17,19.85Q17.064,19.85,17.1268,19.86249Q17.1896,19.874979,17.2487,19.899478Q17.3079,19.923977999999998,17.3611,19.959545Q17.4143,19.995112,17.459600000000002,20.040381Q17.5049,20.085649,17.5405,20.138879Q17.576,20.19211,17.6005,20.251256Q17.625,20.310402,17.6375,20.373191Q17.65,20.4359806,17.65,20.5ZM7.65,20.5Q7.65,20.5640194,7.63751,20.626809Q7.625021,20.689598,7.600522,20.748744Q7.576022,20.80789,7.540455,20.861121Q7.504888,20.914351,7.459619,20.959619Q7.414351,21.004888,7.361121,21.040455Q7.30789,21.076022000000002,7.248744,21.100522Q7.189598,21.125021,7.126809,21.13751Q7.0640194,21.15,7,21.15Q6.9359806,21.15,6.873191,21.13751Q6.810402,21.125021,6.751256,21.100522Q6.69211,21.076022000000002,6.638879,21.040455Q6.585649,21.004888,6.540381,20.959619Q6.495112,20.914351,6.459545,20.861121Q6.423978,20.80789,6.399478,20.748744Q6.374979,20.689598,6.36249,20.626809Q6.35,20.5640194,6.35,20.5Q6.35,20.4359806,6.36249,20.373191Q6.374979,20.310402,6.399478,20.251256Q6.423978,20.19211,6.459545,20.138879Q6.495112,20.085649,6.540381,20.040381Q6.585649,19.995112,6.638879,19.959545Q6.69211,19.923977999999998,6.751256,19.899478Q6.810402,19.874979,6.873191,19.86249Q6.9359806,19.85,7,19.85Q7.0640194,19.85,7.126809,19.86249Q7.189598,19.874979,7.248744,19.899478Q7.30789,19.923977999999998,7.361121,19.959545Q7.414351,19.995112,7.459619,20.040381Q7.504888,20.085649,7.540455,20.138879Q7.576022,20.19211,7.600522,20.251256Q7.625021,20.310402,7.63751,20.373191Q7.65,20.4359806,7.65,20.5Z" fill-opacity="1"/></g></g></svg>