<svg width="16" height="16" viewBox="0 0 16 16"  xmlns="http://www.w3.org/2000/svg">
<path fill-rule="evenodd" clip-rule="evenodd" d="M9.39045 1.79042C8.93733 1.68841 8.47182 1.63647 7.99997 1.63647C7.52801 1.63647 7.06239 1.68843 6.60917 1.7905L6.34766 1.84939L5.53255 3.70826L3.52488 3.48878L3.34339 3.68647C2.70792 4.37863 2.23117 5.2042 1.95171 6.10582L1.87292 6.35998L3.06768 8.00011L2.0296 9.42516L1.87292 9.64024L1.95171 9.8944C2.23117 10.796 2.70792 11.6216 3.34339 12.3138L3.52488 12.5114L5.53255 12.292L6.24001 13.9053L6.34766 14.1508L6.60917 14.2097C7.06239 14.3118 7.52801 14.3637 7.99997 14.3637C8.47182 14.3637 8.93733 14.3118 9.39045 14.2098L9.65194 14.1509L10.4674 12.292L12.4751 12.5114L12.6566 12.3138C13.2919 11.6217 13.7687 10.7962 14.0481 9.89472L14.1269 9.64059L12.9322 8.00011L13.9703 6.57471L14.1269 6.35963L14.0481 6.1055C13.7687 5.204 13.2919 4.37854 12.6566 3.68647L12.4751 3.48878L10.4674 3.70827L9.65194 1.8493L9.39045 1.79042ZM6.5 8C6.5 7.17157 7.17157 6.5 8 6.5C8.82843 6.5 9.5 7.17157 9.5 8C9.5 8.82843 8.82843 9.5 8 9.5C7.17157 9.5 6.5 8.82843 6.5 8ZM8 5.5C6.61929 5.5 5.5 6.61929 5.5 8C5.5 9.38071 6.61929 10.5 8 10.5C9.38071 10.5 10.5 9.38071 10.5 8C10.5 6.61929 9.38071 5.5 8 5.5Z" />
</svg>
