
<svg width="16" height="16" viewBox="0 0 16 16"  xmlns="http://www.w3.org/2000/svg">
<path fill-rule="evenodd" clip-rule="evenodd" d="M14.7 2.63113C14.7 2.01748 14.2371 1.52002 13.6661 1.52002H2.334C1.76296 1.52002 1.30005 2.01748 1.30005 2.63113V13.3689C1.30005 13.9826 1.76296 14.48 2.334 14.48H13.6661C14.2371 14.48 14.7 13.9826 14.7 13.3689V2.63113ZM4.7 5.90002C4.58954 5.90002 4.5 5.98957 4.5 6.10002V7.05002C4.5 7.16048 4.58954 7.25002 4.7 7.25002H11.3C11.4105 7.25002 11.5 7.16048 11.5 7.05002V6.10002C11.5 5.98957 11.4105 5.90002 11.3 5.90002H4.7ZM4.7 8.90002C4.58954 8.90002 4.5 8.98957 4.5 9.10002V10.05C4.5 10.1605 4.58954 10.25 4.7 10.25H5.65C5.76046 10.25 5.85 10.1605 5.85 10.05V9.10002C5.85 8.98957 5.76046 8.90002 5.65 8.90002H4.7ZM7 9.10002C7 8.98957 7.08954 8.90002 7.2 8.90002H8.15C8.26046 8.90002 8.35 8.98957 8.35 9.10002V10.05C8.35 10.1605 8.26046 10.25 8.15 10.25H7.2C7.08954 10.25 7 10.1605 7 10.05V9.10002Z" />
</svg>
