<svg width="16" height="16" viewBox="0 0 16 16" fill="none" xmlns="http://www.w3.org/2000/svg">
<path d="M8 1.67C11.496 1.67 14.33 4.50404 14.33 8C14.33 11.496 11.496 14.33 8 14.33C4.50404 14.33 1.67 11.496 1.67 8C1.67 4.50404 4.50404 1.67 8 1.67Z" stroke="#4E5969" stroke-width="1.34"/>
<path fill-rule="evenodd" clip-rule="evenodd" d="M10.4429 5.728L10.8259 6.04939C11.0376 6.22679 11.0651 6.54216 10.8876 6.7537C10.8876 6.75374 10.8876 6.75377 10.8875 6.75372L7.54347 10.7367C7.36584 10.9481 7.05054 10.9756 6.83895 10.7983L6.07291 10.1555L9.73839 5.78954C9.91602 5.57818 10.2313 5.55063 10.4429 5.728Z" fill="#4E5969"/>
<path fill-rule="evenodd" clip-rule="evenodd" d="M4.79245 8.37061L5.12793 7.99802C5.30979 7.79605 5.61969 7.77633 5.82568 7.95363L8.1775 9.97783L7.53763 10.7478C7.36113 10.9601 7.04588 10.9892 6.83351 10.8127C6.83089 10.8105 6.82829 10.8083 6.82572 10.8061L4.83665 9.0831C4.62793 8.9023 4.6053 8.58653 4.7861 8.37781C4.78819 8.37539 4.79031 8.37299 4.79245 8.37061Z" fill="#4E5969"/>
</svg>
