<svg xmlns="http://www.w3.org/2000/svg" xmlns:xlink="http://www.w3.org/1999/xlink" version="1.1" viewBox="0 0 32 32"><defs><clipPath id="master_svg0_255_01442"><rect x="7" y="7" width="18" height="18" rx="0"/></clipPath></defs><g style="mix-blend-mode:passthrough" transform="matrix(1,-1.6081230200044232e-16,1.6081230200044232e-16,1,0,0)"><g clip-path="url(#master_svg0_255_01442)"><g style="mix-blend-mode:passthrough"><g transform="matrix(0.7071067690849304,-0.7071067690849304,0.7071067690849304,0.7071067690849304,-8.97523738639515,10.345082266162223)"><path d="M7.25,23.350701347198488L7.25,18.006611347198486Q7.25,16.867524347198486,8.0554563,16.062067647198486Q8.860913,15.256611347198486,10,15.256611347198486L14.49463,15.256611347198486Q15.63372,15.256611347198486,16.43917,16.062067647198486Q17.24463,16.867525347198487,17.24463,18.006611347198486L17.24463,23.350701347198488Q17.24463,24.489791347198487,16.43917,25.295251347198487Q15.63372,26.100711347198484,14.49463,26.100711347198484L10,26.100711347198484Q8.860914,26.100711347198484,8.0554563,25.295251347198487Q7.25,24.489791347198487,7.25,23.350701347198488ZM8.75,23.350701347198488Q8.75,23.868471347198486,9.11612,24.23459134719849Q9.48223,24.600701347198488,10,24.600701347198488L14.49463,24.600701347198488Q15.0124,24.600701347198488,15.37851,24.23459134719849Q15.74463,23.868471347198486,15.74463,23.350701347198488L15.74463,18.006611347198486Q15.74463,17.488841347198488,15.37851,17.122731347198485Q15.0124,16.756611347198486,14.49463,16.756611347198486L10,16.756611347198486Q9.48223,16.756611347198486,9.11612,17.122731347198485Q8.75,17.488841347198488,8.75,18.006611347198486L8.75,23.350701347198488Z" fill-opacity="1"/></g><g transform="matrix(0.7071067690849304,-0.7071067690849304,0.7071067690849304,0.7071067690849304,-7.482425356009884,13.949049105405862)"><path d="M12.346778869628906,22.501241347198487L12.346778869628906,18.006611347198486Q12.346778869628906,16.867524347198486,13.152235169628906,16.062067647198486Q13.957691869628906,15.256611347198486,15.096778869628906,15.256611347198486L19.591408869628907,15.256611347198486Q20.730498869628907,15.256611347198486,21.535948869628907,16.062067647198486Q22.341408869628907,16.867525347198487,22.341408869628907,18.006611347198486L22.341408869628907,22.501241347198487Q22.341408869628907,23.640331347198487,21.535948869628907,24.445781347198487Q20.730498869628907,25.251241347198487,19.591408869628907,25.251241347198487L15.096778869628906,25.251241347198487Q13.957691869628906,25.251241347198487,13.152235169628906,24.445781347198487Q12.346778869628906,23.640331347198487,12.346778869628906,22.501241347198487ZM13.846778869628906,22.501241347198487Q13.846778869628906,23.019011347198486,14.212898869628907,23.385121347198485Q14.579008869628906,23.751241347198487,15.096778869628906,23.751241347198487L19.591408869628907,23.751241347198487Q20.109178869628906,23.751241347198487,20.475288869628905,23.385121347198485Q20.841408869628907,23.019011347198486,20.841408869628907,22.501241347198487L20.841408869628907,18.006611347198486Q20.841408869628907,17.488841347198488,20.475288869628905,17.122731347198485Q20.109178869628906,16.756611347198486,19.591408869628907,16.756611347198486L15.096778869628906,16.756611347198486Q14.579008869628906,16.756611347198486,14.212898869628907,17.122731347198485Q13.846778869628906,17.488841347198488,13.846778869628906,18.006611347198486L13.846778869628906,22.501241347198487Z" fill-opacity="1"/></g></g></g></g></svg>