<svg xmlns="http://www.w3.org/2000/svg" xmlns:xlink="http://www.w3.org/1999/xlink" version="1.1" viewBox="0 0 32 32"><defs><clipPath id="master_svg0_255_01547"><rect x="7" y="7" width="18" height="18" rx="0"/></clipPath></defs><g style="mix-blend-mode:passthrough"><g clip-path="url(#master_svg0_255_01547)"><g><rect x="7" y="7" width="18" height="18" rx="0" fill-opacity="0.009999999776482582"/></g><g><path d="M21.25,9.25Q21.25,9.25,21.25,9.25L10.75,9.25L10.75,9.25L10.75,22.75L10.75,22.75L21.25,22.75L21.25,22.75L21.25,9.25ZM22.75,9.25L22.75,22.75Q22.75,23.371299999999998,22.3107,23.8107Q21.871299999999998,24.25,21.25,24.25L10.75,24.25Q10.128679,24.25,9.689342,23.8107Q9.25,23.371299999999998,9.25,22.75L9.25,9.25Q9.25,8.62868,9.68934,8.18934Q10.128679,7.75,10.75,7.75L21.25,7.75Q21.871299999999998,7.75,22.3107,8.189342Q22.75,8.62868,22.75,9.25Z" fill-opacity="1"/></g><g><path d="M18.625,19L13.375,19Q13.3011315,19,13.228682,18.985589Q13.156233,18.971178,13.087987,18.94291Q13.019742,18.914641,12.958322,18.873601999999998Q12.896903,18.832563,12.84467,18.78033Q12.792437,18.728096999999998,12.751398,18.666678Q12.710359,18.605258,12.68209,18.537013Q12.653822,18.468767,12.639410999999999,18.396318Q12.625,18.3238685,12.625,18.25Q12.625,18.1761315,12.639410999999999,18.103682Q12.653822,18.031233,12.68209,17.962987Q12.710359,17.894742,12.751398,17.833322Q12.792437,17.771903000000002,12.84467,17.71967Q12.896903,17.667437,12.958322,17.626398000000002Q13.019742,17.585359,13.087987,17.55709Q13.156233,17.528822,13.228682,17.514411Q13.3011315,17.5,13.375,17.5L18.625,17.5Q18.69887,17.5,18.77132,17.514411Q18.84377,17.528822,18.912010000000002,17.55709Q18.98026,17.585359,19.04168,17.626398000000002Q19.1031,17.667437,19.15533,17.71967Q19.20756,17.771903000000002,19.2486,17.833322Q19.28964,17.894742,19.31791,17.962987Q19.34618,18.031233,19.360590000000002,18.103682Q19.375,18.1761315,19.375,18.25Q19.375,18.3238685,19.360590000000002,18.396318Q19.34618,18.468767,19.31791,18.537013Q19.28964,18.605258,19.2486,18.666678Q19.20756,18.728096999999998,19.15533,18.78033Q19.1031,18.832563,19.04168,18.873601999999998Q18.98026,18.914641,18.912010000000002,18.94291Q18.84377,18.971178,18.77132,18.985589Q18.69887,19,18.625,19ZM19.375,18.25Q19.375,18.3238685,19.360590000000002,18.396318Q19.34618,18.468767,19.31791,18.537013Q19.28964,18.605258,19.2486,18.666678Q19.20756,18.728096999999998,19.15533,18.78033Q19.1031,18.832563,19.04168,18.873601999999998Q18.98026,18.914641,18.912010000000002,18.94291Q18.84377,18.971178,18.77132,18.985589Q18.69887,19,18.625,19Q18.55113,19,18.47868,18.985589Q18.40623,18.971178,18.337989999999998,18.94291Q18.26974,18.914641,18.20832,18.873601999999998Q18.1469,18.832563,18.09467,18.78033Q18.04244,18.728096999999998,18.0014,18.666678Q17.96036,18.605258,17.93209,18.537013Q17.90382,18.468767,17.889409999999998,18.396318Q17.875,18.3238685,17.875,18.25Q17.875,18.1761315,17.889409999999998,18.103682Q17.90382,18.031233,17.93209,17.962987Q17.96036,17.894742,18.0014,17.833322Q18.04244,17.771903000000002,18.09467,17.71967Q18.1469,17.667437,18.20832,17.626398000000002Q18.26974,17.585359,18.337989999999998,17.55709Q18.40623,17.528822,18.47868,17.514411Q18.55113,17.5,18.625,17.5Q18.69887,17.5,18.77132,17.514411Q18.84377,17.528822,18.912010000000002,17.55709Q18.98026,17.585359,19.04168,17.626398000000002Q19.1031,17.667437,19.15533,17.71967Q19.20756,17.771903000000002,19.2486,17.833322Q19.28964,17.894742,19.31791,17.962987Q19.34618,18.031233,19.360590000000002,18.103682Q19.375,18.1761315,19.375,18.25ZM14.125,18.25Q14.125,18.3238685,14.110589000000001,18.396318Q14.096178,18.468767,14.06791,18.537013Q14.039641,18.605258,13.998602,18.666678Q13.957563,18.728096999999998,13.90533,18.78033Q13.853097,18.832563,13.791678,18.873601999999998Q13.730258,18.914641,13.662013,18.94291Q13.593767,18.971178,13.521318,18.985589Q13.4488685,19,13.375,19Q13.3011315,19,13.228682,18.985589Q13.156233,18.971178,13.087987,18.94291Q13.019742,18.914641,12.958322,18.873601999999998Q12.896903,18.832563,12.84467,18.78033Q12.792437,18.728096999999998,12.751398,18.666678Q12.710359,18.605258,12.68209,18.537013Q12.653822,18.468767,12.639410999999999,18.396318Q12.625,18.3238685,12.625,18.25Q12.625,18.1761315,12.639410999999999,18.103682Q12.653822,18.031233,12.68209,17.962987Q12.710359,17.894742,12.751398,17.833322Q12.792437,17.771903000000002,12.84467,17.71967Q12.896903,17.667437,12.958322,17.626398000000002Q13.019742,17.585359,13.087987,17.55709Q13.156233,17.528822,13.228682,17.514411Q13.3011315,17.5,13.375,17.5Q13.4488685,17.5,13.521318,17.514411Q13.593767,17.528822,13.662013,17.55709Q13.730258,17.585359,13.791678,17.626398000000002Q13.853097,17.667437,13.90533,17.71967Q13.957563,17.771903000000002,13.998602,17.833322Q14.039641,17.894742,14.06791,17.962987Q14.096178,18.031233,14.110589000000001,18.103682Q14.125,18.1761315,14.125,18.25Z" fill-opacity="1"/></g><g><path d="M16,21.25L13.375,21.25Q13.3011315,21.25,13.228682,21.235589Q13.156233,21.221178,13.087987,21.19291Q13.019742,21.164641,12.958322,21.123601999999998Q12.896903,21.082563,12.84467,21.03033Q12.792437,20.978096999999998,12.751398,20.916678Q12.710359,20.855258,12.68209,20.787013Q12.653822,20.718767,12.639410999999999,20.646318Q12.625,20.5738685,12.625,20.5Q12.625,20.4261315,12.639410999999999,20.353682Q12.653822,20.281233,12.68209,20.212987Q12.710359,20.144742,12.751398,20.083322Q12.792437,20.021903000000002,12.84467,19.96967Q12.896903,19.917437,12.958322,19.876398000000002Q13.019742,19.835359,13.087987,19.80709Q13.156233,19.778822,13.228682,19.764411Q13.3011315,19.75,13.375,19.75L16,19.75Q16.07387,19.75,16.14632,19.764411Q16.21877,19.778822,16.28701,19.80709Q16.35526,19.835359,16.41668,19.876398000000002Q16.4781,19.917437,16.53033,19.96967Q16.58256,20.021903000000002,16.6236,20.083322Q16.66464,20.144742,16.69291,20.212987Q16.72118,20.281233,16.735590000000002,20.353682Q16.75,20.4261315,16.75,20.5Q16.75,20.5738685,16.735590000000002,20.646318Q16.72118,20.718767,16.69291,20.787013Q16.66464,20.855258,16.6236,20.916678Q16.58256,20.978096999999998,16.53033,21.03033Q16.4781,21.082563,16.41668,21.123601999999998Q16.35526,21.164641,16.28701,21.19291Q16.21877,21.221178,16.14632,21.235589Q16.07387,21.25,16,21.25ZM16.75,20.5Q16.75,20.5738685,16.735590000000002,20.646318Q16.72118,20.718767,16.69291,20.787013Q16.66464,20.855258,16.6236,20.916678Q16.58256,20.978096999999998,16.53033,21.03033Q16.4781,21.082563,16.41668,21.123601999999998Q16.35526,21.164641,16.28701,21.19291Q16.21877,21.221178,16.14632,21.235589Q16.07387,21.25,16,21.25Q15.92613,21.25,15.85368,21.235589Q15.78123,21.221178,15.71299,21.19291Q15.64474,21.164641,15.58332,21.123601999999998Q15.5219,21.082563,15.46967,21.03033Q15.41744,20.978096999999998,15.3764,20.916678Q15.33536,20.855258,15.30709,20.787013Q15.27882,20.718767,15.26441,20.646318Q15.25,20.5738685,15.25,20.5Q15.25,20.4261315,15.26441,20.353682Q15.27882,20.281233,15.30709,20.212987Q15.33536,20.144742,15.3764,20.083322Q15.41744,20.021903000000002,15.46967,19.96967Q15.5219,19.917437,15.58332,19.876398000000002Q15.64474,19.835359,15.71299,19.80709Q15.78123,19.778822,15.85368,19.764411Q15.92613,19.75,16,19.75Q16.07387,19.75,16.14632,19.764411Q16.21877,19.778822,16.28701,19.80709Q16.35526,19.835359,16.41668,19.876398000000002Q16.4781,19.917437,16.53033,19.96967Q16.58256,20.021903000000002,16.6236,20.083322Q16.66464,20.144742,16.69291,20.212987Q16.72118,20.281233,16.735590000000002,20.353682Q16.75,20.4261315,16.75,20.5ZM14.125,20.5Q14.125,20.5738685,14.110589000000001,20.646318Q14.096178,20.718767,14.06791,20.787013Q14.039641,20.855258,13.998602,20.916678Q13.957563,20.978096999999998,13.90533,21.03033Q13.853097,21.082563,13.791678,21.123601999999998Q13.730258,21.164641,13.662013,21.19291Q13.593767,21.221178,13.521318,21.235589Q13.4488685,21.25,13.375,21.25Q13.3011315,21.25,13.228682,21.235589Q13.156233,21.221178,13.087987,21.19291Q13.019742,21.164641,12.958322,21.123601999999998Q12.896903,21.082563,12.84467,21.03033Q12.792437,20.978096999999998,12.751398,20.916678Q12.710359,20.855258,12.68209,20.787013Q12.653822,20.718767,12.639410999999999,20.646318Q12.625,20.5738685,12.625,20.5Q12.625,20.4261315,12.639410999999999,20.353682Q12.653822,20.281233,12.68209,20.212987Q12.710359,20.144742,12.751398,20.083322Q12.792437,20.021903000000002,12.84467,19.96967Q12.896903,19.917437,12.958322,19.876398000000002Q13.019742,19.835359,13.087987,19.80709Q13.156233,19.778822,13.228682,19.764411Q13.3011315,19.75,13.375,19.75Q13.4488685,19.75,13.521318,19.764411Q13.593767,19.778822,13.662013,19.80709Q13.730258,19.835359,13.791678,19.876398000000002Q13.853097,19.917437,13.90533,19.96967Q13.957563,20.021903000000002,13.998602,20.083322Q14.039641,20.144742,14.06791,20.212987Q14.096178,20.281233,14.110589000000001,20.353682Q14.125,20.4261315,14.125,20.5Z" fill-opacity="1"/></g><g><path d="M14.28033,12.84467L15.78033,14.34467L15.25,14.875L14.71967,14.34467L17.71967,11.34467Q17.7719,11.292437,17.83332,11.251398Q17.89474,11.210359,17.962989999999998,11.18209Q18.03123,11.153822,18.10368,11.139410999999999Q18.17613,11.125,18.25,11.125Q18.32387,11.125,18.39632,11.139410999999999Q18.46877,11.153822,18.537010000000002,11.18209Q18.60526,11.210359,18.66668,11.251398Q18.7281,11.292437,18.78033,11.34467Q18.83256,11.396903,18.8736,11.458322Q18.91464,11.519742,18.94291,11.587987Q18.97118,11.656233,18.985590000000002,11.728682Q19,11.8011315,19,11.875Q19,11.9488685,18.985590000000002,12.021318Q18.97118,12.093767,18.94291,12.162013Q18.91464,12.230258,18.8736,12.291678Q18.83256,12.353097,18.78033,12.40533L15.78033,15.40533Q15.7281,15.45756,15.66668,15.4986Q15.60526,15.53964,15.53701,15.56791Q15.46877,15.59618,15.39632,15.61059Q15.32387,15.625,15.25,15.625Q15.17613,15.625,15.10368,15.61059Q15.03123,15.59618,14.96299,15.56791Q14.89474,15.53964,14.83332,15.4986Q14.7719,15.45756,14.71967,15.40533L13.21967,13.90533Q13.167437,13.8531,13.126398,13.79168Q13.085359,13.73026,13.05709,13.66201Q13.028822,13.59377,13.014410999999999,13.52132Q13,13.44887,13,13.375Q13,13.30113,13.014410999999999,13.22868Q13.028822,13.15623,13.05709,13.08799Q13.085359,13.01974,13.126398,12.95832Q13.167437,12.8969,13.21967,12.84467Q13.271903,12.792437,13.333322,12.751398Q13.394742,12.710359,13.462987,12.68209Q13.531233,12.653822,13.603682,12.639410999999999Q13.6761315,12.625,13.75,12.625Q13.8238685,12.625,13.896318,12.639410999999999Q13.968767,12.653822,14.037013,12.68209Q14.105258,12.710359,14.166678,12.751398Q14.228097,12.792437,14.28033,12.84467ZM14.5,13.375Q14.5,13.44887,14.485589000000001,13.52132Q14.471178,13.59377,14.44291,13.66201Q14.414641,13.73026,14.373602,13.79168Q14.332563,13.8531,14.28033,13.90533Q14.228097,13.95756,14.166678,13.9986Q14.105258,14.03964,14.037013,14.06791Q13.968767,14.09618,13.896318,14.11059Q13.8238685,14.125,13.75,14.125Q13.6761315,14.125,13.603682,14.11059Q13.531233,14.09618,13.462987,14.06791Q13.394742,14.03964,13.333322,13.9986Q13.271903,13.95756,13.21967,13.90533Q13.167437,13.8531,13.126398,13.79168Q13.085359,13.73026,13.05709,13.66201Q13.028822,13.59377,13.014410999999999,13.52132Q13,13.44887,13,13.375Q13,13.30113,13.014410999999999,13.22868Q13.028822,13.15623,13.05709,13.08799Q13.085359,13.01974,13.126398,12.95832Q13.167437,12.8969,13.21967,12.84467Q13.271903,12.792437,13.333322,12.751398Q13.394742,12.710359,13.462987,12.68209Q13.531233,12.653822,13.603682,12.639410999999999Q13.6761315,12.625,13.75,12.625Q13.8238685,12.625,13.896318,12.639410999999999Q13.968767,12.653822,14.037013,12.68209Q14.105258,12.710359,14.166678,12.751398Q14.228097,12.792437,14.28033,12.84467Q14.332563,12.8969,14.373602,12.95832Q14.414641,13.01974,14.44291,13.08799Q14.471178,13.15623,14.485589000000001,13.22868Q14.5,13.30113,14.5,13.375ZM19,11.875Q19,11.9488685,18.985590000000002,12.021318Q18.97118,12.093767,18.94291,12.162013Q18.91464,12.230258,18.8736,12.291678Q18.83256,12.353097,18.78033,12.40533Q18.7281,12.457563,18.66668,12.498602Q18.60526,12.539641,18.537010000000002,12.56791Q18.46877,12.596178,18.39632,12.610589000000001Q18.32387,12.625,18.25,12.625Q18.17613,12.625,18.10368,12.610589000000001Q18.03123,12.596178,17.962989999999998,12.56791Q17.89474,12.539641,17.83332,12.498602Q17.7719,12.457563,17.71967,12.40533Q17.66744,12.353097,17.6264,12.291678Q17.58536,12.230258,17.55709,12.162013Q17.52882,12.093767,17.514409999999998,12.021318Q17.5,11.9488685,17.5,11.875Q17.5,11.8011315,17.514409999999998,11.728682Q17.52882,11.656233,17.55709,11.587987Q17.58536,11.519742,17.6264,11.458322Q17.66744,11.396903,17.71967,11.34467Q17.7719,11.292437,17.83332,11.251398Q17.89474,11.210359,17.962989999999998,11.18209Q18.03123,11.153822,18.10368,11.139410999999999Q18.17613,11.125,18.25,11.125Q18.32387,11.125,18.39632,11.139410999999999Q18.46877,11.153822,18.537010000000002,11.18209Q18.60526,11.210359,18.66668,11.251398Q18.7281,11.292437,18.78033,11.34467Q18.83256,11.396903,18.8736,11.458322Q18.91464,11.519742,18.94291,11.587987Q18.97118,11.656233,18.985590000000002,11.728682Q19,11.8011315,19,11.875Z" fill-opacity="1"/></g></g></g></svg>