<svg xmlns="http://www.w3.org/2000/svg" xmlns:xlink="http://www.w3.org/1999/xlink" version="1.1" viewBox="0 0 32 32"><defs><filter id="master_svg0_255_01377" filterUnits="objectBoundingBox" color-interpolation-filters="sRGB" x="0" y="0" width="32" height="32"><feFlood flood-opacity="0" result="BackgroundImageFix"/><feBlend mode="normal" in="SourceGraphic" in2="BackgroundImageFix" result="shape"/><feColorMatrix in="SourceAlpha" type="matrix" result="hardAlpha" values="0 0 0 0 0 0 0 0 0 0 0 0 0 0 0 0 0 0 127 0"/><feOffset dy="-0.13114754855632782" dx="0"/><feGaussianBlur stdDeviation="0.13114754855632782"/><feComposite in2="hardAlpha" operator="arithmetic" k2="-1" k3="1"/><feColorMatrix type="matrix" values="0 0 0 0 0 0 0 0 0 0 0 0 0 0 0 0 0 0 0.25 0"/><feBlend mode="normal" in2="shape" result="effect1_innerShadow"/><feColorMatrix in="SourceAlpha" type="matrix" result="hardAlpha" values="0 0 0 0 0 0 0 0 0 0 0 0 0 0 0 0 0 0 127 0"/><feOffset dy="0.13114754855632782" dx="0"/><feGaussianBlur stdDeviation="0.032786887139081955"/><feComposite in2="hardAlpha" operator="arithmetic" k2="-1" k3="1"/><feColorMatrix type="matrix" values="0 0 0 0 0.6001276969909668 0 0 0 0 0.7025736570358276 0 0 0 0 0.9843000173568726 0 0 0 1 0"/><feBlend mode="normal" in2="effect1_innerShadow" result="effect2_innerShadow"/></filter><clipPath id="master_svg1_255_01391"><rect x="7" y="7" width="18" height="18" rx="0"/></clipPath></defs><g style="mix-blend-mode:passthrough"><g style="mix-blend-mode:passthrough" transform="matrix(1,-1.6081230200044232e-16,1.6081230200044232e-16,1,0,0)"><g style="mix-blend-mode:passthrough" filter="url(#master_svg0_255_01377)"></g></g><g clip-path="url(#master_svg1_255_01391)"><g><path d="M17.270361640625,8.666324875Q18.313266640625,8.507818875,19.334666640625,8.768958875Q20.739706640625002,9.128186875,21.767496640624998,10.176127875Q22.792456640624998,11.221181875,23.142876640625,12.646231875Q23.396996640624998,13.679451875,23.242776640625,14.734241875Q23.232086640625,14.807341874999999,23.207346640625,14.876941875Q23.182606640625,14.946541875000001,23.144756640625,15.009981875000001Q23.106916640625002,15.073421875000001,23.057426640625,15.128251875Q23.007936640625,15.183091874999999,22.948696640625002,15.227221875Q22.889456640625,15.271341875000001,22.822746640625,15.303061875000001Q22.756026640625,15.334791875,22.684416640625,15.352881875Q22.612796640625,15.370981875,22.539026640625,15.374761875Q22.465256640625,15.378541875,22.392166640625,15.367851875Q22.319066640625,15.357171874999999,22.249466640625002,15.332431875000001Q22.179866640625,15.307681875,22.116426640625,15.269841875000001Q22.052986640625,15.232001875,21.998156640624998,15.182501875Q21.943316640625,15.133011875000001,21.899186640625,15.073771875Q21.855066640625,15.014531875,21.823336640625,14.947821874999999Q21.791616640625,14.881111875,21.773526640625,14.809491874999999Q21.755426640625,14.737881875,21.751646640625,14.664101875Q21.747866640625,14.590331875,21.758556640625,14.517241875Q21.870326640625,13.752771875,21.686276640625,13.004411875Q21.433936640625,11.978241875,20.696596640625,11.226441874999999Q19.962196640625,10.477651875,18.963116640625,10.222212875Q18.237165640625,10.036610875000001,17.495751640625,10.149294875Q17.422721440625,10.160393875,17.348929440625,10.157032875Q17.275137640625,10.153670875,17.203418640625,10.135978875Q17.131700640625,10.118285875,17.064811640625,10.086941875Q16.997923640625,10.055596874999999,16.938434640625,10.011805875Q16.878946640625,9.968013875,16.829144640625,9.913458875Q16.779342640625,9.858902875,16.741140640625,9.795679875Q16.702938640625,9.732456875,16.677804640625,9.662994875Q16.652671640625,9.593533875,16.641571640625,9.520503875Q16.630472640625,9.447474275,16.633833640625,9.373682275Q16.637194640625,9.299890275,16.654887640625,9.228171875Q16.672580640625,9.156453875,16.703924640625,9.089564875Q16.735268640625,9.022675875000001,16.779060640625,8.963187875Q16.822851640625,8.903698875,16.877407640625,8.853896875Q16.931963640625,8.804094875,16.995186640625,8.765892875Q17.058409640625,8.727690875,17.127870640625,8.702557875Q17.197331640625,8.677423875,17.270361640625,8.666324875ZM18.133056640625,9.407809575Q18.133056640625,9.481677875,18.118645640625,9.554126875Q18.104234640625,9.626576875,18.075966640625,9.694821875Q18.047697640625,9.763067875,18.006658640624998,9.824486875Q17.965619640625,9.885906875,17.913386640625,9.938139875Q17.861153640624998,9.990372875,17.799734640625,10.031411875Q17.738314640625,10.072450875,17.670069640625,10.100718875Q17.601823640625,10.128987875,17.529374640625,10.143398875Q17.456925140625,10.157809875,17.383056640625,10.157809875Q17.309188140625,10.157809875,17.236738640625,10.143398875Q17.164289640625,10.128987875,17.096043640625,10.100718875Q17.027798640625,10.072450875,16.966378640625,10.031411875Q16.904959640625002,9.990372875,16.852726640625,9.938139875Q16.800493640625,9.885906875,16.759454640625002,9.824486875Q16.718415640625,9.763067875,16.690146640625,9.694821875Q16.661878640625,9.626576875,16.647467640625,9.554126875Q16.633056640625,9.481677875,16.633056640625,9.407809575Q16.633056640625,9.333940975,16.647467640625,9.261491875Q16.661878640625,9.189042875,16.690146640625,9.120796875Q16.718415640625,9.052550875,16.759454640625002,8.991131875Q16.800493640625,8.929712875,16.852726640625,8.877479875Q16.904959640625002,8.825246875,16.966378640625,8.784207875Q17.027798640625,8.743167875,17.096043640625,8.714899875Q17.164289640625,8.686631875,17.236738640625,8.672220875Q17.309188140625,8.657809875,17.383056640625,8.657809875Q17.456925140625,8.657809875,17.529374640625,8.672220875Q17.601823640625,8.686631875,17.670069640625,8.714899875Q17.738314640625,8.743167875,17.799734640625,8.784207875Q17.861153640624998,8.825246875,17.913386640625,8.877479875Q17.965619640625,8.929712875,18.006658640624998,8.991131875Q18.047697640625,9.052550875,18.075966640625,9.120796875Q18.104234640625,9.189042875,18.118645640625,9.261491875Q18.133056640625,9.333940975,18.133056640625,9.407809575ZM23.250666640625,14.625741875Q23.250666640625,14.699611875,23.236256640625,14.772061875Q23.221836640625,14.844511875,23.193576640625,14.912751875Q23.165306640625,14.981001875,23.124266640625,15.042421874999999Q23.083226640625,15.103841875,23.030996640625,15.156071875Q22.978756640625,15.208311875,22.917336640625,15.249341874999999Q22.855926640625,15.290381875,22.787676640625,15.318651875Q22.719426640625,15.346921875,22.646976640625,15.361331875000001Q22.574536640625,15.375741875,22.500666640625,15.375741875Q22.426796640625,15.375741875,22.354346640625,15.361331875000001Q22.281896640625,15.346921875,22.213656640625,15.318651875Q22.145406640624998,15.290381875,22.083986640625,15.249341874999999Q22.022566640625,15.208311875,21.970336640625,15.156071875Q21.918096640625002,15.103841875,21.877056640625,15.042421874999999Q21.836026640625,14.981001875,21.807756640625,14.912751875Q21.779486640625,14.844511875,21.765076640625,14.772061875Q21.750666640625,14.699611875,21.750666640625,14.625741875Q21.750666640625,14.551871875,21.765076640625,14.479421875Q21.779486640625,14.406981875,21.807756640625,14.338731875Q21.836026640625,14.270481875,21.877056640625,14.209061875Q21.918096640625002,14.147651875000001,21.970336640625,14.095411875Q22.022566640625,14.043181875,22.083986640625,14.002141875Q22.145406640624998,13.961101875,22.213646640625,13.932831875Q22.281896640625,13.904561874999999,22.354346640625,13.890151875Q22.426796640625,13.875741875,22.500666640625,13.875741875Q22.574536640625,13.875741875,22.646976640625,13.890151875Q22.719426640625,13.904561874999999,22.787676640625,13.932831875Q22.855926640625,13.961101875,22.917336640625,14.002141875Q22.978756640625,14.043181875,23.030996640625,14.095411875Q23.083226640625,14.147651875000001,23.124266640625,14.209061875Q23.165306640625,14.270481875,23.193576640625,14.338731875Q23.221836640625,14.406981875,23.236256640625,14.479421875Q23.250666640625,14.551871875,23.250666640625,14.625741875Z"  fill-opacity="1"/></g><g><path d="M17.39853046875,11.192630154296875Q18.81433046875,10.977438154296875,19.82313046875,12.005939054296874Q20.82361046875,13.026038154296876,20.61529046875,14.450908154296876Q20.60460046875,14.523998154296875,20.57986046875,14.593598154296874Q20.55512046875,14.663198154296875,20.517280468750002,14.726638154296875Q20.47943046875,14.790078154296875,20.42994046875,14.844918154296876Q20.38045046875,14.899748154296875,20.32121046875,14.943878154296875Q20.26197046875,14.988008154296875,20.19526046875,15.019728154296875Q20.12855046875,15.051448154296875,20.05693046875,15.069548154296875Q19.98531046875,15.087648154296875,19.91154046875,15.091428154296874Q19.83777046875,15.095208154296875,19.76468046875,15.084518154296875Q19.69159046875,15.073828154296875,19.62198046875,15.049088154296875Q19.552380468750002,15.024348154296876,19.488940468750002,14.986508154296875Q19.42551046875,14.948668154296875,19.37067046875,14.899168154296875Q19.31583046875,14.849678154296875,19.27171046875,14.790438154296876Q19.22758046875,14.731198154296875,19.19586046875,14.664488154296874Q19.16413046875,14.597778154296876,19.14604046875,14.526158154296875Q19.12794046875,14.454548154296875,19.12416046875,14.380778154296875Q19.12038046875,14.306998154296874,19.13107046875,14.233908154296875Q19.23176046875,13.545188154296875,18.75226046875,13.056288154296874Q18.28091646875,12.575741154296875,17.62393046875,12.675598154296875Q17.55090066875,12.686698154296876,17.47710866875,12.683337154296876Q17.40331646875,12.679977154296875,17.33159846875,12.662284154296875Q17.25987946875,12.644592154296875,17.19299046875,12.613248154296874Q17.12610146875,12.581904154296875,17.06661346875,12.538113154296875Q17.00712446875,12.494322154296874,16.95732146875,12.439767154296876Q16.90751946875,12.385212154296875,16.86931746875,12.321989154296874Q16.83111446875,12.258766154296875,16.80598046875,12.189305154296875Q16.78084646875,12.119844154296874,16.76974646875,12.046814154296875Q16.75864646875,11.973784454296876,16.76200746875,11.899992354296876Q16.76536746875,11.826200354296875,16.78306046875,11.754482154296875Q16.80075246875,11.682763154296875,16.83209646875,11.615874154296876Q16.86344046875,11.548985154296876,16.90723146875,11.489497154296876Q16.95102246875,11.430008154296875,17.00557746875,11.380205154296874Q17.06013246875,11.330403154296874,17.12335546875,11.292201154296874Q17.18657846875,11.253998154296875,17.25603946875,11.228864154296875Q17.32550046875,11.203730154296874,17.39853046875,11.192630154296875ZM18.26123046875,11.934114254296874Q18.26123046875,12.007982754296876,18.24681946875,12.080432154296876Q18.23240846875,12.152881154296875,18.20414046875,12.221127154296875Q18.17587146875,12.289372154296874,18.134832468749998,12.350792154296874Q18.09379346875,12.412211154296875,18.04156046875,12.464444154296874Q17.989327468749998,12.516677154296875,17.92790846875,12.557716154296875Q17.86648846875,12.598755154296875,17.79824346875,12.627024154296874Q17.72999746875,12.655292154296875,17.65754846875,12.669703154296876Q17.58509896875,12.684114154296875,17.51123046875,12.684114154296875Q17.43736196875,12.684114154296875,17.36491246875,12.669703154296876Q17.29246346875,12.655292154296875,17.22421746875,12.627024154296874Q17.15597246875,12.598755154296875,17.09455246875,12.557716154296875Q17.033133468750002,12.516677154296875,16.98090046875,12.464444154296874Q16.92866746875,12.412211154296875,16.887628468750002,12.350792154296874Q16.84658946875,12.289372154296874,16.81832046875,12.221127154296875Q16.79005246875,12.152881154296875,16.77564146875,12.080432154296876Q16.76123046875,12.007982754296876,16.76123046875,11.934114254296874Q16.76123046875,11.860245654296875,16.77564146875,11.787796154296874Q16.79005246875,11.715347154296875,16.81832046875,11.647102154296874Q16.84658946875,11.578856154296876,16.887628468750002,11.517436154296876Q16.92866746875,11.456017154296875,16.98090046875,11.403784154296876Q17.033133468750002,11.351551154296875,17.09455246875,11.310512154296875Q17.15597246875,11.269473154296875,17.22421746875,11.241205154296875Q17.29246346875,11.212936154296875,17.36491246875,11.198525154296876Q17.43736196875,11.184114154296875,17.51123046875,11.184114154296875Q17.58509896875,11.184114154296875,17.65754846875,11.198525154296876Q17.72999746875,11.212936154296875,17.79824346875,11.241205154296875Q17.86648846875,11.269473154296875,17.92790846875,11.310512154296875Q17.989327468749998,11.351551154296875,18.04156046875,11.403784154296876Q18.09379346875,11.456017154296875,18.134832468749998,11.517436154296876Q18.17587146875,11.578856154296876,18.20414046875,11.647102154296874Q18.23240846875,11.715347154296875,18.24681946875,11.787796154296874Q18.26123046875,11.860245654296875,18.26123046875,11.934114254296874ZM20.62318046875,14.342408154296875Q20.62318046875,14.416278154296876,20.60877046875,14.488728154296876Q20.59435046875,14.561178154296876,20.56609046875,14.629418154296875Q20.53782046875,14.697668154296874,20.49678046875,14.759088154296876Q20.45574046875,14.820508154296874,20.40351046875,14.872738154296876Q20.351270468750002,14.924968154296876,20.28985046875,14.966008154296874Q20.22843046875,15.007048154296875,20.16019046875,15.035318154296874Q20.09194046875,15.063588154296875,20.01949046875,15.077998154296875Q19.94704046875,15.092408154296875,19.87318046875,15.092408154296875Q19.79931046875,15.092408154296875,19.72686046875,15.077998154296875Q19.65441046875,15.063588154296875,19.586160468750002,15.035318154296874Q19.51792046875,15.007048154296875,19.45650046875,14.966008154296874Q19.39508046875,14.924968154296876,19.34285046875,14.872738154296876Q19.29061046875,14.820508154296874,19.24957046875,14.759088154296876Q19.20854046875,14.697668154296874,19.18027046875,14.629418154296875Q19.15200046875,14.561178154296876,19.13759046875,14.488728154296876Q19.12318046875,14.416278154296876,19.12318046875,14.342408154296875Q19.12318046875,14.268538154296875,19.13759046875,14.196088154296875Q19.15200046875,14.123638154296875,19.18027046875,14.055398154296874Q19.20853046875,13.987148154296875,19.24957046875,13.925728154296875Q19.29061046875,13.864308154296875,19.34285046875,13.812078154296875Q19.39508046875,13.759848154296876,19.45650046875,13.718808154296875Q19.51792046875,13.677768154296874,19.586160468750002,13.649498154296875Q19.65441046875,13.621228154296874,19.72686046875,13.606818154296874Q19.79931046875,13.592408154296875,19.87318046875,13.592408154296875Q19.94704046875,13.592408154296875,20.01949046875,13.606818154296874Q20.09194046875,13.621228154296874,20.16019046875,13.649498154296875Q20.22843046875,13.677768154296874,20.28985046875,13.718808154296875Q20.351270468750002,13.759848154296876,20.40351046875,13.812078154296875Q20.45574046875,13.864308154296875,20.49678046875,13.925728154296875Q20.53782046875,13.987148154296875,20.56609046875,14.055398154296874Q20.59435046875,14.123638154296875,20.60877046875,14.196088154296875Q20.62318046875,14.268538154296875,20.62318046875,14.342408154296875Z" fill-opacity="1"/></g><g><path d="M11.25890515625,9.706787109375L13.014835156250001,9.706787109375Q13.86785515625,9.706787109375,14.278785156249999,10.461364359375L15.12564515625,12.016767109375Q15.48829515625,12.682857109375,15.15423515625,13.363967109375L14.33844515625,15.027547109375L13.66505515625,14.697327109375L14.40176515625,14.556787109375Q14.595695156249999,15.573407109375001,15.42637515625,16.420367109375Q16.25282515625,17.262997109375,17.23573515625,17.455207109375L17.09180515625,18.191267109374998L16.75116515625,17.523087109375L18.38255515625,16.691417109375Q19.06872515625,16.341547109375,19.73907515625,16.721537109375L21.26883515625,17.588717109375Q22.00493515625,18.005877109375,22.00493515625,18.858117109375L22.00493515625,20.648787109375Q22.00493515625,21.705387109375,21.19203515625,22.333087109375Q20.346835156250002,22.985787109375,19.33272515625,22.636887109375Q15.03498515625,21.158387109375,12.88686515625,18.968067109375Q10.74084715625,16.780017109375,9.29251515625,12.403467109375Q8.95690615625,11.389320109375,9.58706415625,10.541048609375Q10.20681415625,9.706787109375,11.25890515625,9.706787109375L11.25890515625,9.706787109375ZM11.25890515625,11.206787109375Q10.96110515625,11.206787109375,10.79117015625,11.435547109375Q10.62585015625,11.658087109375,10.71656315625,11.932207109375Q12.05551515625,15.978237109375,13.95778515625,17.917767109375Q15.857895156249999,19.855167109375,19.82074515625,21.218487109374998Q20.07013515625,21.304287109375,20.275135156250002,21.145987109375Q20.50493515625,20.968587109375,20.50493515625,20.648787109375L20.50493515625,18.858117109375Q20.50493515625,18.879907109375,20.52913515625,18.893637109375L18.999355156249997,18.026457109375002Q19.03111515625,18.044457109375,19.063825156249997,18.027777109375002L17.43243515625,18.859457109375Q17.32039515625,18.916577109374998,17.19584515625,18.934017109375Q17.07129515625,18.951467109375002,16.94786515625,18.927327109375Q15.50797515625,18.645757109374998,14.35546515625,17.470687109375Q13.20724515625,16.299957109375,12.92833515625,14.837867109375Q12.90549515625,14.718137109375,12.921745156250001,14.597347109375Q12.93799515625,14.476547109375,12.99166515625,14.367107109375L13.807495156249999,12.703447109375Q13.79996515625,12.718807109375,13.80825515625,12.734037109375L12.96145515625,11.178753109375Q12.97672515625,11.206787109375,13.014835156250001,11.206787109375L11.25890515625,11.206787109375L11.25890515625,11.206787109375Z" fill-opacity="1"/></g></g></g></svg>