<svg xmlns="http://www.w3.org/2000/svg" xmlns:xlink="http://www.w3.org/1999/xlink" version="1.1" viewBox="0 0 32 32"><defs><clipPath id="master_svg0_255_01401"><rect x="7.2727274894714355" y="7.2727274894714355" width="17.454545974731445" height="17.454545974731445" rx="0"/></clipPath></defs><g style="mix-blend-mode:passthrough" transform="matrix(1,-1.6081230200044232e-16,1.6081230200044232e-16,1,0,0)"><g clip-path="url(#master_svg0_255_01401)"><g><rect x="7.2727274894714355" y="7.2727274894714355" width="17.454545974731445" height="17.454545974731445" rx="0" fill-opacity="0.009999999776482582"/></g><g><path d="M11.317067333221436,20.683017333221436Q13.256857333221436,22.622817333221434,16.000047333221435,22.622817333221434Q18.743217333221438,22.622817333221434,20.683017333221436,20.683017333221436Q22.622817333221434,18.743217333221438,22.622817333221434,16.000047333221435Q22.622817333221434,13.256857333221436,20.683017333221436,11.317067333221436Q18.743217333221438,9.377318333221435,16.000047333221435,9.377317333221436Q13.256847333221437,9.377317333221436,11.317067333221436,11.317067333221436Q9.377317333221436,13.256847333221437,9.377317333221436,16.000047333221435Q9.377317333221436,18.743217333221438,11.317067333221436,20.683017333221436L11.317067333221436,20.683017333221436ZM10.397827333221436,21.602217333221436Q8.077317333221435,19.281717333221437,8.077317333221435,16.000047333221435Q8.077317333221435,12.718377333221436,10.397837333221435,10.397827333221436Q12.718377333221436,8.077317333221435,16.000047333221435,8.077317333221435Q19.281717333221437,8.077317333221435,21.602217333221436,10.397827333221436Q23.922817333221435,12.718377333221436,23.922817333221435,16.000047333221435Q23.922817333221435,19.281717333221437,21.602217333221436,21.602217333221436Q19.281717333221437,23.922817333221435,16.000047333221435,23.922817333221435Q12.718377333221436,23.922817333221435,10.397827333221436,21.602217333221436L10.397827333221436,21.602217333221436Z" fill-opacity="1"/></g><g><path d="M20.095912723846435,14.277756645721436L15.732282723846435,18.641397645721437Q15.687012723846436,18.686657645721436,15.633782723846435,18.722227645721436Q15.580552723846436,18.757797645721435,15.521402723846435,18.782297645721435Q15.462262723846436,18.806797645721435,15.399472723846436,18.819287645721435Q15.336682723846435,18.831777645721434,15.272662723846436,18.831777645721434Q15.208642723846435,18.831777645721434,15.145852723846435,18.819287645721435Q15.083062723846435,18.806797645721435,15.023912723846436,18.782297645721435Q14.964772723846435,18.757797645721435,14.911542723846436,18.722227645721436Q14.858312723846435,18.686657645721436,14.813042723846436,18.641397645721437L12.631223723846436,16.459577645721435Q12.585954723846436,16.414307645721436,12.550387723846436,16.361077645721437Q12.514820723846436,16.307847645721434,12.490320723846436,16.248697645721435Q12.465821723846435,16.189557645721436,12.453332723846435,16.126767645721436Q12.440842723846435,16.063977645721437,12.440842723846435,15.999957645721436Q12.440842723846435,15.935937645721435,12.453332723846435,15.873147645721435Q12.465821723846435,15.810357645721435,12.490320723846436,15.751207645721436Q12.514820723846436,15.692067645721435,12.550387723846436,15.638837645721436Q12.585954723846436,15.585607645721435,12.631223723846436,15.540337645721436Q12.676491723846436,15.495067645721436,12.729721723846435,15.459497645721436Q12.782952723846435,15.423937645721436,12.842098723846435,15.399437645721436Q12.901244723846435,15.374937645721435,12.964033723846436,15.362447645721435Q13.026823323846436,15.349957645721435,13.090842723846436,15.349957645721435Q13.154862123846435,15.349957645721435,13.217651723846435,15.362447645721435Q13.280440723846436,15.374937645721435,13.339586723846436,15.399437645721436Q13.398732723846436,15.423937645721436,13.451963723846436,15.459497645721436Q13.505193723846435,15.495067645721436,13.550461723846436,15.540337645721436L15.732282723846435,17.722157645721435L15.272662723846436,18.181777645721436L14.813042723846436,17.722157645721435L19.176682723846437,13.358518645721436Q19.221942723846436,13.313249645721436,19.275172723846435,13.277682645721436Q19.328402723846438,13.242115645721436,19.387552723846436,13.217615645721436Q19.446702723846435,13.193116645721435,19.509492723846435,13.180627645721435Q19.572272723846435,13.168137645721435,19.636292723846434,13.168137645721435Q19.700312723846437,13.168137645721435,19.763102723846437,13.180627645721435Q19.825892723846437,13.193116645721435,19.885042723846436,13.217615645721436Q19.944182723846435,13.242115645721436,19.997422723846434,13.277682645721436Q20.050652723846436,13.313249645721436,20.095912723846435,13.358518645721436Q20.141182723846434,13.403786645721436,20.176752723846434,13.457016645721435Q20.212322723846434,13.510247645721435,20.236822723846437,13.569393645721435Q20.261312723846437,13.628539645721435,20.273802723846437,13.691328645721436Q20.286292723846437,13.754118245721436,20.286292723846437,13.818137689365935Q20.286292723846437,13.882157045721435,20.273802723846437,13.944946645721435Q20.261312723846437,14.007735645721436,20.236822723846437,14.066881645721436Q20.212322723846434,14.126027645721436,20.176752723846434,14.179258645721436Q20.141182723846434,14.232488645721435,20.095912723846435,14.277756645721436ZM20.286302723846436,13.818137645721436Q20.286292723846437,13.882157045721435,20.273802723846437,13.944946645721435Q20.261322723846437,14.007735645721436,20.236822723846437,14.066881645721436Q20.212322723846434,14.126027645721436,20.176752723846434,14.179258645721436Q20.141182723846434,14.232488645721435,20.095912723846435,14.277756645721436Q20.050652723846436,14.323025645721435,19.997412723846438,14.358592645721435Q19.944182723846435,14.394159645721436,19.885042723846436,14.418659645721435Q19.825892723846437,14.443158645721436,19.763102723846437,14.455647645721436Q19.700312723846437,14.468137645721436,19.636292723846434,14.468137645721436Q19.572272723846435,14.468137645721436,19.509492723846435,14.455647645721436Q19.446702723846435,14.443158645721436,19.387552723846436,14.418659645721435Q19.328402723846438,14.394159645721436,19.275172723846435,14.358592645721435Q19.221942723846436,14.323025645721435,19.176672723846437,14.277756645721436Q19.131412723846434,14.232488645721435,19.095842723846435,14.179258645721436Q19.060272723846435,14.126027645721436,19.035772723846435,14.066881645721436Q19.011272723846435,14.007735645721436,18.998782723846436,13.944946645721435Q18.986292723846436,13.882157045721435,18.986292723846436,13.818137645721436Q18.986292723846436,13.754118245721436,18.998782723846436,13.691328645721436Q19.011272723846435,13.628539645721435,19.035772723846435,13.569393645721435Q19.060272723846435,13.510247645721435,19.095842723846435,13.457016645721435Q19.131412723846434,13.403786645721436,19.176682723846437,13.358518645721436Q19.221942723846436,13.313249645721436,19.275172723846435,13.277682645721436Q19.328402723846438,13.242115645721436,19.387552723846436,13.217615645721436Q19.446702723846435,13.193116645721435,19.509492723846435,13.180627645721435Q19.572272723846435,13.168137645721435,19.636292723846434,13.168137645721435Q19.700312723846437,13.168137645721435,19.763102723846437,13.180627645721435Q19.825892723846437,13.193116645721435,19.885042723846436,13.217615645721436Q19.944182723846435,13.242115645721436,19.997412723846438,13.277682645721436Q20.050652723846436,13.313249645721436,20.095912723846435,13.358518645721436Q20.141182723846434,13.403786645721436,20.176752723846434,13.457016645721435Q20.212322723846434,13.510247645721435,20.236822723846437,13.569393645721435Q20.261322723846437,13.628539645721435,20.273812723846437,13.691328645721436Q20.286292723846437,13.754118245721436,20.286302723846436,13.818137645721436ZM13.740842723846436,15.999957645721436Q13.740842723846436,16.063977645721437,13.728352723846436,16.126767645721436Q13.715863723846436,16.189557645721436,13.691364723846435,16.248697645721435Q13.666864723846436,16.307847645721434,13.631297723846435,16.361077645721437Q13.595730723846435,16.414307645721436,13.550461723846436,16.459577645721435Q13.505193723846435,16.504847645721437,13.451963723846436,16.540407645721437Q13.398732723846436,16.575977645721437,13.339586723846436,16.600477645721437Q13.280440723846436,16.624977645721437,13.217651723846435,16.637467645721436Q13.154862123846435,16.649957645721436,13.090842723846436,16.649957645721436Q13.026823323846436,16.649957645721436,12.964033723846436,16.637467645721436Q12.901244723846435,16.624977645721437,12.842098723846435,16.600477645721437Q12.782952723846435,16.575977645721437,12.729721723846435,16.540407645721437Q12.676491723846436,16.504847645721437,12.631223723846436,16.459577645721435Q12.585954723846436,16.414307645721436,12.550387723846436,16.361077645721437Q12.514820723846436,16.307847645721434,12.490320723846436,16.248697645721435Q12.465821723846435,16.189557645721436,12.453332723846435,16.126767645721436Q12.440842723846435,16.063977645721437,12.440842723846435,15.999957645721436Q12.440842723846435,15.935937645721435,12.453332723846435,15.873147645721435Q12.465821723846435,15.810357645721435,12.490320723846436,15.751207645721436Q12.514820723846436,15.692067645721435,12.550387723846436,15.638837645721436Q12.585954723846436,15.585607645721435,12.631223723846436,15.540337645721436Q12.676491723846436,15.495067645721436,12.729721723846435,15.459497645721436Q12.782952723846435,15.423937645721436,12.842098723846435,15.399437645721436Q12.901244723846435,15.374937645721435,12.964033723846436,15.362447645721435Q13.026823323846436,15.349957645721435,13.090842723846436,15.349957645721435Q13.154862123846435,15.349957645721435,13.217651723846435,15.362447645721435Q13.280440723846436,15.374937645721435,13.339586723846436,15.399437645721436Q13.398732723846436,15.423937645721436,13.451963723846436,15.459497645721436Q13.505193723846435,15.495067645721436,13.550461723846436,15.540337645721436Q13.595730723846435,15.585607645721435,13.631297723846435,15.638837645721436Q13.666864723846436,15.692067645721435,13.691364723846435,15.751207645721436Q13.715863723846436,15.810357645721435,13.728352723846436,15.873147645721435Q13.740842723846436,15.935937645721435,13.740842723846436,15.999957645721436Z" fill-opacity="1"/></g></g></g></svg>