<svg width="28" height="28" viewBox="0 0 28 28" fill="none" xmlns="http://www.w3.org/2000/svg">
<path fill-rule="evenodd" clip-rule="evenodd" d="M14 1C21.1797 1 27 6.8203 27 14C27 21.1797 21.1797 27 14 27C6.8203 27 1 21.1797 1 14C1 6.8203 6.8203 1 14 1Z" fill="#E6EFFB"/>
<path fill-rule="evenodd" clip-rule="evenodd" d="M18.2775 10.0239L18.9478 10.5863C19.3182 10.8968 19.3665 11.4487 19.0558 11.8189C19.0558 11.8189 19.0557 11.819 19.0555 11.8189L13.2035 18.7892C12.8927 19.1591 12.3409 19.2073 11.9706 18.8969L10.63 17.772L17.0446 10.1316C17.3555 9.76172 17.9073 9.71352 18.2775 10.0239Z" fill="#005BD9"/>
<path fill-rule="evenodd" clip-rule="evenodd" d="M8.38676 14.6487L8.97385 13.9966C9.29211 13.6432 9.83442 13.6087 10.1949 13.9189L14.3106 17.4613L13.1908 18.8087C12.8819 19.1803 12.3303 19.2312 11.9586 18.9223C11.954 18.9185 11.9495 18.9147 11.945 18.9108L8.46411 15.8955C8.09885 15.5791 8.05924 15.0265 8.37564 14.6613C8.37931 14.657 8.38301 14.6528 8.38676 14.6487Z" fill="#005BD9"/>
</svg>
