<svg xmlns="http://www.w3.org/2000/svg" xmlns:xlink="http://www.w3.org/1999/xlink" version="1.1" viewBox="0 0 32 32"><defs><clipPath id="master_svg0_255_01488"><rect x="7" y="7" width="18" height="18" rx="0"/></clipPath></defs><g style="mix-blend-mode:passthrough" transform="matrix(1,-1.6081230200044232e-16,1.6081230200044232e-16,1,0,0)"><g clip-path="url(#master_svg0_255_01488)"><g><rect x="7" y="7" width="18" height="18" rx="0" fill-opacity="0.009999999776482582"/></g><g><path d="M9.250244140625,16.00006103515625Q9.250244140625,18.79596103515625,11.227274140625,20.77306103515625Q13.204304140625,22.75006103515625,16.000244140625,22.75006103515625Q18.796144140625,22.75006103515625,20.773244140625,20.77306103515625Q22.750244140625,18.79596103515625,22.750244140625,16.00006103515625Q22.750244140625,13.20412103515625,20.773244140625,11.22709103515625Q18.796144140625,9.25006003515625,16.000244140625,9.25006103515625Q13.204304140625,9.25006103515625,11.227274140625,11.22709103515625Q9.250244140625,13.20412103515625,9.250244140625,16.00006103515625L9.250244140625,16.00006103515625ZM7.750244140625,16.00006103515625Q7.750244140625,12.582801035156251,10.166614140625,10.16643103515625Q12.582984140625001,7.75006103515625,16.000244140625,7.75006103515625Q19.417544140624997,7.75006103515625,21.833844140625,10.16643103515625Q24.250244140625,12.582801035156251,24.250244140625,16.00006103515625Q24.250244140625,19.417361035156247,21.833844140625,21.83366103515625Q19.417544140624997,24.25006103515625,16.000244140625,24.25006103515625Q12.582984140625001,24.25006103515625,10.166614140625,21.83366103515625Q7.750244140625,19.417361035156247,7.750244140625,16.00006103515625L7.750244140625,16.00006103515625Z" fill-opacity="1"/></g><g><path d="M18.25,16.00006103515625L13.75,16.00006103515625Q13.6761315,16.00006103515625,13.603682,15.985650035156251Q13.531233,15.97123903515625,13.462987,15.94297103515625Q13.394742,15.91470203515625,13.333322,15.87366303515625Q13.271903,15.83262403515625,13.21967,15.78039103515625Q13.167437,15.72815803515625,13.126398,15.66673903515625Q13.085359,15.60531903515625,13.05709,15.53707403515625Q13.028822,15.46882803515625,13.014410999999999,15.39637903515625Q13,15.32392953515625,13,15.25006103515625Q13,15.17619253515625,13.014410999999999,15.10374303515625Q13.028822,15.03129403515625,13.05709,14.96304803515625Q13.085359,14.89480303515625,13.126398,14.83338303515625Q13.167437,14.77196403515625,13.21967,14.71973103515625Q13.271903,14.66749803515625,13.333322,14.62645903515625Q13.394742,14.58542003515625,13.462987,14.55715103515625Q13.531233,14.52888303515625,13.603682,14.514472035156249Q13.6761315,14.50006103515625,13.75,14.50006103515625L18.25,14.50006103515625Q18.32387,14.50006103515625,18.39632,14.514472035156249Q18.46877,14.52888303515625,18.537010000000002,14.55715103515625Q18.60526,14.58542003515625,18.66668,14.62645903515625Q18.7281,14.66749803515625,18.78033,14.71973103515625Q18.83256,14.77196403515625,18.8736,14.83338303515625Q18.91464,14.89480303515625,18.94291,14.96304803515625Q18.97118,15.03129403515625,18.985590000000002,15.10374303515625Q19,15.17619253515625,19,15.25006103515625Q19,15.32392953515625,18.985590000000002,15.39637903515625Q18.97118,15.46882803515625,18.94291,15.53707403515625Q18.91464,15.60531903515625,18.8736,15.66673903515625Q18.83256,15.72815803515625,18.78033,15.78039103515625Q18.7281,15.83262403515625,18.66668,15.87366303515625Q18.60526,15.91470203515625,18.537010000000002,15.94297103515625Q18.46877,15.97123903515625,18.39632,15.985650035156251Q18.32387,16.00006103515625,18.25,16.00006103515625ZM19,15.25006103515625Q19,15.32392953515625,18.985590000000002,15.39637903515625Q18.97118,15.46882803515625,18.94291,15.53707403515625Q18.91464,15.60531903515625,18.8736,15.66673903515625Q18.83256,15.72815803515625,18.78033,15.78039103515625Q18.7281,15.83262403515625,18.66668,15.87366303515625Q18.60526,15.91470203515625,18.537010000000002,15.94297103515625Q18.46877,15.97123903515625,18.39632,15.985650035156251Q18.32387,16.00006103515625,18.25,16.00006103515625Q18.17613,16.00006103515625,18.10368,15.985650035156251Q18.03123,15.97123903515625,17.962989999999998,15.94297103515625Q17.89474,15.91470203515625,17.83332,15.87366303515625Q17.7719,15.83262403515625,17.71967,15.78039103515625Q17.66744,15.72815803515625,17.6264,15.66673903515625Q17.58536,15.60531903515625,17.55709,15.53707403515625Q17.52882,15.46882803515625,17.514409999999998,15.39637903515625Q17.5,15.32392953515625,17.5,15.25006103515625Q17.5,15.17619253515625,17.514409999999998,15.10374303515625Q17.52882,15.03129403515625,17.55709,14.96304803515625Q17.58536,14.89480303515625,17.6264,14.83338303515625Q17.66744,14.77196403515625,17.71967,14.71973103515625Q17.7719,14.66749803515625,17.83332,14.62645903515625Q17.89474,14.58542003515625,17.962989999999998,14.55715103515625Q18.03123,14.52888303515625,18.10368,14.514472035156249Q18.17613,14.50006103515625,18.25,14.50006103515625Q18.32387,14.50006103515625,18.39632,14.514472035156249Q18.46877,14.52888303515625,18.537010000000002,14.55715103515625Q18.60526,14.58542003515625,18.66668,14.62645903515625Q18.7281,14.66749803515625,18.78033,14.71973103515625Q18.83256,14.77196403515625,18.8736,14.83338303515625Q18.91464,14.89480303515625,18.94291,14.96304803515625Q18.97118,15.03129403515625,18.985590000000002,15.10374303515625Q19,15.17619253515625,19,15.25006103515625ZM14.5,15.25006103515625Q14.5,15.32392953515625,14.485589000000001,15.39637903515625Q14.471178,15.46882803515625,14.44291,15.53707403515625Q14.414641,15.60531903515625,14.373602,15.66673903515625Q14.332563,15.72815803515625,14.28033,15.78039103515625Q14.228097,15.83262403515625,14.166678,15.87366303515625Q14.105258,15.91470203515625,14.037013,15.94297103515625Q13.968767,15.97123903515625,13.896318,15.985650035156251Q13.8238685,16.00006103515625,13.75,16.00006103515625Q13.6761315,16.00006103515625,13.603682,15.985650035156251Q13.531233,15.97123903515625,13.462987,15.94297103515625Q13.394742,15.91470203515625,13.333322,15.87366303515625Q13.271903,15.83262403515625,13.21967,15.78039103515625Q13.167437,15.72815803515625,13.126398,15.66673903515625Q13.085359,15.60531903515625,13.05709,15.53707403515625Q13.028822,15.46882803515625,13.014410999999999,15.39637903515625Q13,15.32392953515625,13,15.25006103515625Q13,15.17619253515625,13.014410999999999,15.10374303515625Q13.028822,15.03129403515625,13.05709,14.96304803515625Q13.085359,14.89480303515625,13.126398,14.83338303515625Q13.167437,14.77196403515625,13.21967,14.71973103515625Q13.271903,14.66749803515625,13.333322,14.62645903515625Q13.394742,14.58542003515625,13.462987,14.55715103515625Q13.531233,14.52888303515625,13.603682,14.514472035156249Q13.6761315,14.50006103515625,13.75,14.50006103515625Q13.8238685,14.50006103515625,13.896318,14.514472035156249Q13.968767,14.52888303515625,14.037013,14.55715103515625Q14.105258,14.58542003515625,14.166678,14.62645903515625Q14.228097,14.66749803515625,14.28033,14.71973103515625Q14.332563,14.77196403515625,14.373602,14.83338303515625Q14.414641,14.89480303515625,14.44291,14.96304803515625Q14.471178,15.03129403515625,14.485589000000001,15.10374303515625Q14.5,15.17619253515625,14.5,15.25006103515625Z" fill-opacity="1"/></g><g><path d="M18.25,18.25006103515625L13.75,18.25006103515625Q13.6761315,18.25006103515625,13.603682,18.23565003515625Q13.531233,18.22123903515625,13.462987,18.19297103515625Q13.394742,18.16470203515625,13.333322,18.123663035156248Q13.271903,18.08262403515625,13.21967,18.03039103515625Q13.167437,17.978158035156248,13.126398,17.91673903515625Q13.085359,17.85531903515625,13.05709,17.78707403515625Q13.028822,17.71882803515625,13.014410999999999,17.64637903515625Q13,17.57392953515625,13,17.50006103515625Q13,17.42619253515625,13.014410999999999,17.35374303515625Q13.028822,17.28129403515625,13.05709,17.21304803515625Q13.085359,17.14480303515625,13.126398,17.08338303515625Q13.167437,17.021964035156252,13.21967,16.96973103515625Q13.271903,16.91749803515625,13.333322,16.876459035156252Q13.394742,16.83542003515625,13.462987,16.80715103515625Q13.531233,16.77888303515625,13.603682,16.76447203515625Q13.6761315,16.75006103515625,13.75,16.75006103515625L18.25,16.75006103515625Q18.32387,16.75006103515625,18.39632,16.76447203515625Q18.46877,16.77888303515625,18.537010000000002,16.80715103515625Q18.60526,16.83542003515625,18.66668,16.876459035156252Q18.7281,16.91749803515625,18.78033,16.96973103515625Q18.83256,17.021964035156252,18.8736,17.08338303515625Q18.91464,17.14480303515625,18.94291,17.21304803515625Q18.97118,17.28129403515625,18.985590000000002,17.35374303515625Q19,17.42619253515625,19,17.50006103515625Q19,17.57392953515625,18.985590000000002,17.64637903515625Q18.97118,17.71882803515625,18.94291,17.78707403515625Q18.91464,17.85531903515625,18.8736,17.91673903515625Q18.83256,17.978158035156248,18.78033,18.03039103515625Q18.7281,18.08262403515625,18.66668,18.123663035156248Q18.60526,18.16470203515625,18.537010000000002,18.19297103515625Q18.46877,18.22123903515625,18.39632,18.23565003515625Q18.32387,18.25006103515625,18.25,18.25006103515625ZM19,17.50006103515625Q19,17.57392953515625,18.985590000000002,17.64637903515625Q18.97118,17.71882803515625,18.94291,17.78707403515625Q18.91464,17.85531903515625,18.8736,17.91673903515625Q18.83256,17.978158035156248,18.78033,18.03039103515625Q18.7281,18.08262403515625,18.66668,18.123663035156248Q18.60526,18.16470203515625,18.537010000000002,18.19297103515625Q18.46877,18.22123903515625,18.39632,18.23565003515625Q18.32387,18.25006103515625,18.25,18.25006103515625Q18.17613,18.25006103515625,18.10368,18.23565003515625Q18.03123,18.22123903515625,17.962989999999998,18.19297103515625Q17.89474,18.16470203515625,17.83332,18.123663035156248Q17.7719,18.08262403515625,17.71967,18.03039103515625Q17.66744,17.978158035156248,17.6264,17.91673903515625Q17.58536,17.85531903515625,17.55709,17.78707403515625Q17.52882,17.71882803515625,17.514409999999998,17.64637903515625Q17.5,17.57392953515625,17.5,17.50006103515625Q17.5,17.42619253515625,17.514409999999998,17.35374303515625Q17.52882,17.28129403515625,17.55709,17.21304803515625Q17.58536,17.14480303515625,17.6264,17.08338303515625Q17.66744,17.021964035156252,17.71967,16.96973103515625Q17.7719,16.91749803515625,17.83332,16.876459035156252Q17.89474,16.83542003515625,17.962989999999998,16.80715103515625Q18.03123,16.77888303515625,18.10368,16.76447203515625Q18.17613,16.75006103515625,18.25,16.75006103515625Q18.32387,16.75006103515625,18.39632,16.76447203515625Q18.46877,16.77888303515625,18.537010000000002,16.80715103515625Q18.60526,16.83542003515625,18.66668,16.876459035156252Q18.7281,16.91749803515625,18.78033,16.96973103515625Q18.83256,17.021964035156252,18.8736,17.08338303515625Q18.91464,17.14480303515625,18.94291,17.21304803515625Q18.97118,17.28129403515625,18.985590000000002,17.35374303515625Q19,17.42619253515625,19,17.50006103515625ZM14.5,17.50006103515625Q14.5,17.57392953515625,14.485589000000001,17.64637903515625Q14.471178,17.71882803515625,14.44291,17.78707403515625Q14.414641,17.85531903515625,14.373602,17.91673903515625Q14.332563,17.978158035156248,14.28033,18.03039103515625Q14.228097,18.08262403515625,14.166678,18.123663035156248Q14.105258,18.16470203515625,14.037013,18.19297103515625Q13.968767,18.22123903515625,13.896318,18.23565003515625Q13.8238685,18.25006103515625,13.75,18.25006103515625Q13.6761315,18.25006103515625,13.603682,18.23565003515625Q13.531233,18.22123903515625,13.462987,18.19297103515625Q13.394742,18.16470203515625,13.333322,18.123663035156248Q13.271903,18.08262403515625,13.21967,18.03039103515625Q13.167437,17.978158035156248,13.126398,17.91673903515625Q13.085359,17.85531903515625,13.05709,17.78707403515625Q13.028822,17.71882803515625,13.014410999999999,17.64637903515625Q13,17.57392953515625,13,17.50006103515625Q13,17.42619253515625,13.014410999999999,17.35374303515625Q13.028822,17.28129403515625,13.05709,17.21304803515625Q13.085359,17.14480303515625,13.126398,17.08338303515625Q13.167437,17.021964035156252,13.21967,16.96973103515625Q13.271903,16.91749803515625,13.333322,16.876459035156252Q13.394742,16.83542003515625,13.462987,16.80715103515625Q13.531233,16.77888303515625,13.603682,16.76447203515625Q13.6761315,16.75006103515625,13.75,16.75006103515625Q13.8238685,16.75006103515625,13.896318,16.76447203515625Q13.968767,16.77888303515625,14.037013,16.80715103515625Q14.105258,16.83542003515625,14.166678,16.876459035156252Q14.228097,16.91749803515625,14.28033,16.96973103515625Q14.332563,17.021964035156252,14.373602,17.08338303515625Q14.414641,17.14480303515625,14.44291,17.21304803515625Q14.471178,17.28129403515625,14.485589000000001,17.35374303515625Q14.5,17.42619253515625,14.5,17.50006103515625Z" fill-opacity="1"/></g><g><path d="M15.2529296875,19.75006103515625L15.2529296875,15.25006103515625Q15.2529296875,15.17619253515625,15.267340687499999,15.10374303515625Q15.2817516875,15.03129403515625,15.3100196875,14.96304803515625Q15.3382886875,14.89480303515625,15.3793276875,14.83338303515625Q15.4203666875,14.77196403515625,15.4725996875,14.71973103515625Q15.5248326875,14.66749803515625,15.5862516875,14.62645903515625Q15.6476716875,14.58542003515625,15.7159166875,14.55715103515625Q15.7841626875,14.52888303515625,15.8566116875,14.514472035156249Q15.9290611875,14.50006103515625,16.0029296875,14.50006103515625Q16.0767981875,14.50006103515625,16.1492476875,14.514472035156249Q16.2216966875,14.52888303515625,16.2899426875,14.55715103515625Q16.3581876875,14.58542003515625,16.4196076875,14.62645903515625Q16.481026687499998,14.66749803515625,16.5332596875,14.71973103515625Q16.5854926875,14.77196403515625,16.626531687499998,14.83338303515625Q16.6675706875,14.89480303515625,16.6958396875,14.96304803515625Q16.7241076875,15.03129403515625,16.7385186875,15.10374303515625Q16.7529296875,15.17619253515625,16.7529296875,15.25006103515625L16.7529296875,19.75006103515625Q16.7529296875,19.82393103515625,16.7385186875,19.89638103515625Q16.7241076875,19.96883103515625,16.6958396875,20.037071035156252Q16.6675706875,20.10532103515625,16.626531687499998,20.16674103515625Q16.5854926875,20.22816103515625,16.5332596875,20.28039103515625Q16.481026687499998,20.33262103515625,16.4196076875,20.37366103515625Q16.3581876875,20.41470103515625,16.2899426875,20.44297103515625Q16.2216966875,20.47124103515625,16.1492476875,20.485651035156252Q16.0767981875,20.50006103515625,16.0029296875,20.50006103515625Q15.9290611875,20.50006103515625,15.8566116875,20.485651035156252Q15.7841626875,20.47124103515625,15.7159166875,20.44297103515625Q15.6476716875,20.41470103515625,15.5862516875,20.37366103515625Q15.5248326875,20.33262103515625,15.4725996875,20.28039103515625Q15.4203666875,20.22816103515625,15.3793276875,20.16674103515625Q15.3382886875,20.10532103515625,15.3100196875,20.037071035156252Q15.2817516875,19.96883103515625,15.267340687499999,19.89638103515625Q15.2529296875,19.82393103515625,15.2529296875,19.75006103515625ZM16.7529296875,19.75006103515625Q16.7529296875,19.82393103515625,16.7385186875,19.89638103515625Q16.7241076875,19.96883103515625,16.6958396875,20.037071035156252Q16.6675706875,20.10532103515625,16.626531687499998,20.16674103515625Q16.5854926875,20.22816103515625,16.5332596875,20.28039103515625Q16.481026687499998,20.33262103515625,16.4196076875,20.37366103515625Q16.3581876875,20.41470103515625,16.2899426875,20.44297103515625Q16.2216966875,20.47124103515625,16.1492476875,20.485651035156252Q16.0767981875,20.50006103515625,16.0029296875,20.50006103515625Q15.9290611875,20.50006103515625,15.8566116875,20.485651035156252Q15.7841626875,20.47124103515625,15.7159166875,20.44297103515625Q15.6476716875,20.41470103515625,15.5862516875,20.37366103515625Q15.5248326875,20.33262103515625,15.4725996875,20.28039103515625Q15.4203666875,20.22816103515625,15.3793276875,20.16674103515625Q15.3382886875,20.10532103515625,15.3100196875,20.037071035156252Q15.2817516875,19.96883103515625,15.267340687499999,19.89638103515625Q15.2529296875,19.82393103515625,15.2529296875,19.75006103515625Q15.2529296875,19.67619103515625,15.267340687499999,19.60374103515625Q15.2817516875,19.53129103515625,15.3100196875,19.463051035156248Q15.3382886875,19.39480103515625,15.3793276875,19.33338103515625Q15.4203666875,19.27196103515625,15.4725996875,19.21973103515625Q15.5248326875,19.16750103515625,15.5862516875,19.12646103515625Q15.6476716875,19.08542103515625,15.7159166875,19.05715103515625Q15.7841626875,19.02888103515625,15.8566116875,19.014471035156248Q15.9290611875,19.00006103515625,16.0029296875,19.00006103515625Q16.0767981875,19.00006103515625,16.1492476875,19.014471035156248Q16.2216966875,19.02888103515625,16.2899426875,19.05715103515625Q16.3581876875,19.08542103515625,16.4196076875,19.12646103515625Q16.481026687499998,19.16750103515625,16.5332596875,19.21973103515625Q16.5854926875,19.27196103515625,16.626531687499998,19.33338103515625Q16.6675706875,19.39480103515625,16.6958396875,19.463051035156248Q16.7241076875,19.53129103515625,16.7385186875,19.60374103515625Q16.7529296875,19.67619103515625,16.7529296875,19.75006103515625ZM16.7529296875,15.25006103515625Q16.7529296875,15.32392953515625,16.7385186875,15.39637903515625Q16.7241076875,15.46882803515625,16.6958396875,15.53707403515625Q16.6675706875,15.60531903515625,16.626531687499998,15.66673903515625Q16.5854926875,15.72815803515625,16.5332596875,15.78039103515625Q16.481026687499998,15.83262403515625,16.4196076875,15.87366303515625Q16.3581876875,15.91470203515625,16.2899426875,15.94297103515625Q16.2216966875,15.97123903515625,16.1492476875,15.985650035156251Q16.0767981875,16.00006103515625,16.0029296875,16.00006103515625Q15.9290611875,16.00006103515625,15.8566116875,15.985650035156251Q15.7841626875,15.97123903515625,15.7159166875,15.94297103515625Q15.6476716875,15.91470203515625,15.5862516875,15.87366303515625Q15.5248326875,15.83262403515625,15.4725996875,15.78039103515625Q15.4203666875,15.72815803515625,15.3793276875,15.66673903515625Q15.3382886875,15.60531903515625,15.3100196875,15.53707403515625Q15.2817516875,15.46882803515625,15.267340687499999,15.39637903515625Q15.2529296875,15.32392953515625,15.2529296875,15.25006103515625Q15.2529296875,15.17619253515625,15.267340687499999,15.10374303515625Q15.2817516875,15.03129403515625,15.3100196875,14.96304803515625Q15.3382886875,14.89480303515625,15.3793276875,14.83338303515625Q15.4203666875,14.77196403515625,15.4725996875,14.71973103515625Q15.5248326875,14.66749803515625,15.5862516875,14.62645903515625Q15.6476716875,14.58542003515625,15.7159166875,14.55715103515625Q15.7841626875,14.52888303515625,15.8566116875,14.514472035156249Q15.9290611875,14.50006103515625,16.0029296875,14.50006103515625Q16.0767981875,14.50006103515625,16.1492476875,14.514472035156249Q16.2216966875,14.52888303515625,16.2899426875,14.55715103515625Q16.3581876875,14.58542003515625,16.4196076875,14.62645903515625Q16.481026687499998,14.66749803515625,16.5332596875,14.71973103515625Q16.5854926875,14.77196403515625,16.626531687499998,14.83338303515625Q16.6675706875,14.89480303515625,16.6958396875,14.96304803515625Q16.7241076875,15.03129403515625,16.7385186875,15.10374303515625Q16.7529296875,15.17619253515625,16.7529296875,15.25006103515625Z" fill-opacity="1"/></g><g><path d="M14.28033,12.09467L16.53033,14.34467L16,14.875L15.46967,14.34467L17.71967,12.09467Q17.7719,12.042437,17.83332,12.001398Q17.89474,11.960359,17.962989999999998,11.93209Q18.03123,11.903822,18.10368,11.889410999999999Q18.17613,11.875,18.25,11.875Q18.32387,11.875,18.39632,11.889410999999999Q18.46877,11.903822,18.537010000000002,11.93209Q18.60526,11.960359,18.66668,12.001398Q18.7281,12.042437,18.78033,12.09467Q18.83256,12.146903,18.8736,12.208322Q18.91464,12.269742,18.94291,12.337987Q18.97118,12.406233,18.985590000000002,12.478682Q19,12.5511315,19,12.625Q19,12.6988685,18.985590000000002,12.771318Q18.97118,12.843767,18.94291,12.912013Q18.91464,12.980258,18.8736,13.041678Q18.83256,13.103097,18.78033,13.15533L16.53033,15.40533Q16.4781,15.45756,16.41668,15.4986Q16.35526,15.53964,16.28701,15.56791Q16.21877,15.59618,16.14632,15.61059Q16.07387,15.625,16,15.625Q15.92613,15.625,15.85368,15.61059Q15.78123,15.59618,15.71299,15.56791Q15.64474,15.53964,15.58332,15.4986Q15.5219,15.45756,15.46967,15.40533L13.21967,13.15533Q13.167437,13.103097,13.126398,13.041678Q13.085359,12.980258,13.05709,12.912013Q13.028822,12.843767,13.014410999999999,12.771318Q13,12.6988685,13,12.625Q13,12.5511315,13.014410999999999,12.478682Q13.028822,12.406233,13.05709,12.337987Q13.085359,12.269742,13.126398,12.208322Q13.167437,12.146903,13.21967,12.09467Q13.271903,12.042437,13.333322,12.001398Q13.394742,11.960359,13.462987,11.93209Q13.531233,11.903822,13.603682,11.889410999999999Q13.6761315,11.875,13.75,11.875Q13.8238685,11.875,13.896318,11.889410999999999Q13.968767,11.903822,14.037013,11.93209Q14.105258,11.960359,14.166678,12.001398Q14.228097,12.042437,14.28033,12.09467ZM14.5,12.625Q14.5,12.6988685,14.485589000000001,12.771318Q14.471178,12.843767,14.44291,12.912013Q14.414641,12.980258,14.373602,13.041678Q14.332563,13.103097,14.28033,13.15533Q14.228097,13.207563,14.166678,13.248602Q14.105258,13.289641,14.037013,13.31791Q13.968767,13.346178,13.896318,13.360589000000001Q13.8238685,13.375,13.75,13.375Q13.6761315,13.375,13.603682,13.360589000000001Q13.531233,13.346178,13.462987,13.31791Q13.394742,13.289641,13.333322,13.248602Q13.271903,13.207563,13.21967,13.15533Q13.167437,13.103097,13.126398,13.041678Q13.085359,12.980258,13.05709,12.912013Q13.028822,12.843767,13.014410999999999,12.771318Q13,12.6988685,13,12.625Q13,12.5511315,13.014410999999999,12.478682Q13.028822,12.406233,13.05709,12.337987Q13.085359,12.269742,13.126398,12.208322Q13.167437,12.146903,13.21967,12.09467Q13.271903,12.042437,13.333322,12.001398Q13.394742,11.960359,13.462987,11.93209Q13.531233,11.903822,13.603682,11.889410999999999Q13.6761315,11.875,13.75,11.875Q13.8238685,11.875,13.896318,11.889410999999999Q13.968767,11.903822,14.037013,11.93209Q14.105258,11.960359,14.166678,12.001398Q14.228097,12.042437,14.28033,12.09467Q14.332563,12.146903,14.373602,12.208322Q14.414641,12.269742,14.44291,12.337987Q14.471178,12.406233,14.485589000000001,12.478682Q14.5,12.5511315,14.5,12.625ZM19,12.625Q19,12.6988685,18.985590000000002,12.771318Q18.97118,12.843767,18.94291,12.912013Q18.91464,12.980258,18.8736,13.041678Q18.83256,13.103097,18.78033,13.15533Q18.7281,13.207563,18.66668,13.248602Q18.60526,13.289641,18.537010000000002,13.31791Q18.46877,13.346178,18.39632,13.360589000000001Q18.32387,13.375,18.25,13.375Q18.17613,13.375,18.10368,13.360589000000001Q18.03123,13.346178,17.962989999999998,13.31791Q17.89474,13.289641,17.83332,13.248602Q17.7719,13.207563,17.71967,13.15533Q17.66744,13.103097,17.6264,13.041678Q17.58536,12.980258,17.55709,12.912013Q17.52882,12.843767,17.514409999999998,12.771318Q17.5,12.6988685,17.5,12.625Q17.5,12.5511315,17.514409999999998,12.478682Q17.52882,12.406233,17.55709,12.337987Q17.58536,12.269742,17.6264,12.208322Q17.66744,12.146903,17.71967,12.09467Q17.7719,12.042437,17.83332,12.001398Q17.89474,11.960359,17.962989999999998,11.93209Q18.03123,11.903822,18.10368,11.889410999999999Q18.17613,11.875,18.25,11.875Q18.32387,11.875,18.39632,11.889410999999999Q18.46877,11.903822,18.537010000000002,11.93209Q18.60526,11.960359,18.66668,12.001398Q18.7281,12.042437,18.78033,12.09467Q18.83256,12.146903,18.8736,12.208322Q18.91464,12.269742,18.94291,12.337987Q18.97118,12.406233,18.985590000000002,12.478682Q19,12.5511315,19,12.625Z" fill-opacity="1"/></g></g></g></svg>