<svg xmlns="http://www.w3.org/2000/svg" xmlns:xlink="http://www.w3.org/1999/xlink" version="1.1" viewBox="0 0 32 32"><defs><clipPath id="master_svg0_255_01422"><rect x="7" y="7" width="18" height="18" rx="0"/></clipPath></defs><g style="mix-blend-mode:passthrough" transform="matrix(1,-1.6081230200044232e-16,1.6081230200044232e-16,1,0,0)"><g clip-path="url(#master_svg0_255_01422)"><g><path d="M11.471430078125,9.0732421875L13.373690078125,9.0732421875Q14.252120078125,9.0732421875,14.681900078125,9.8315174275L15.599320078125,11.4503821875Q15.990310078124999,12.1403421875,15.629890078125001,12.846352187499999L14.746110078125,14.5778621875L14.078090078125001,14.2369021875L14.813730078125001,14.0908321875Q15.024700078125,15.1533021875,15.930950078125,16.0410621875Q16.840260078125,16.931782187499998,17.928890078125,17.1363121875L17.790410078125,17.873422187499997L17.460510078125,17.1998721875L19.227850078125,16.3342521875Q19.929930078125,15.9903221875,20.616330078125,16.3641321875L22.273530078125,17.266712187499998Q23.050430078125,17.689832187500002,23.050430078125,18.567482187499998L23.050430078125,20.4312421875Q23.050430078125,21.524942187500002,22.182630078125,22.168842187499997Q21.301030078125002,22.8229421875,20.247030078125,22.4744421875Q15.607400078125,20.9409421875,13.290300078125,18.6711021875Q10.970933078125,16.3990621875,9.403430078125,11.8483821875Q9.040667078125,10.7951961875,9.719181078125,9.9176787875Q10.372116078125,9.0732421875,11.471430078125,9.0732421875L11.471430078125,9.0732421875ZM11.471430078125,10.5732421875Q11.108390078125,10.5732421875,10.905825078125,10.8352121875Q10.722571078125,11.0722221875,10.821652078125,11.3598721875Q12.273750078125,15.5755021875,14.339980078125,17.5995721875Q16.408520078125,19.6259321875,20.717830078125,21.0502421875Q21.032530078125,21.1543421875,21.288830078125002,20.9642421875Q21.550430078125,20.7700421875,21.550430078125,20.4312421875L21.550430078125,18.567482187499998Q21.550430078125,18.5809021875,21.556130078125,18.5840121875L19.898900078125,17.6814421875Q19.893480078125002,17.678492187499998,19.887640078125,17.6813521875L18.120300078125,18.5469721875Q18.011410078125,18.6003021875,17.891250078125,18.6166121875Q17.771090078125,18.6329121875,17.651920078125002,18.610522187500003Q16.115850078125,18.3219221875,14.881280078125,17.112602187500002Q13.643740078125,15.900312187499999,13.342460078125,14.3829721875Q13.317840078125,14.2589721875,13.335220078125,14.1337621875Q13.352610078125,14.0085421875,13.410080078125,13.895942187500001L14.293900078124999,12.1643321875Q14.287220078125,12.1774221875,14.294310078125001,12.1899421875L13.376940078125,10.5711581875L13.373690078125,10.5732421875L11.471430078125,10.5732421875L11.471430078125,10.5732421875Z" fill-opacity="1"/></g></g></g></svg>