<svg width="28" height="28" viewBox="0 0 28 28" fill="none" xmlns="http://www.w3.org/2000/svg">
<path d="M14 1C21.1798 1 27 6.8203 27 14C27 21.1798 21.1798 27 14 27C6.8203 27 1 21.1798 1 14C1 6.8203 6.8203 1 14 1Z" fill="#FFECE8"/>
<path d="M17.7915 9.37507L18.6577 10.2413C18.931 10.5146 18.931 10.9579 18.6577 11.2312L15.8729 14.016L18.6577 16.8007C18.931 17.0741 18.931 17.5173 18.6577 17.7907L17.7915 18.6569C17.5181 18.9302 17.0749 18.9302 16.8015 18.6569L14.0169 15.872L11.2331 18.6558C10.9597 18.9292 10.5165 18.9292 10.2431 18.6558L9.3769 17.7896C9.10353 17.5163 9.10353 17.0731 9.3769 16.7997L12.1609 14.016L9.3769 11.2322C9.10353 10.9589 9.10353 10.5157 9.3769 10.2423L10.2431 9.37608C10.5165 9.10271 10.9597 9.10271 11.2331 9.37608L14.0169 12.16L16.8015 9.37507C17.0749 9.1017 17.5181 9.1017 17.7915 9.37507Z" fill="#F53F3F"/>
</svg>
