<svg xmlns="http://www.w3.org/2000/svg" xmlns:xlink="http://www.w3.org/1999/xlink" version="1.1" viewBox="0 0 32 32"><defs><clipPath id="master_svg0_255_01465"><rect x="7" y="7" width="18" height="18" rx="0"/></clipPath></defs><g style="mix-blend-mode:passthrough" transform="matrix(1,-1.6081230200044232e-16,1.6081230200044232e-16,1,0,0)"><g clip-path="url(#master_svg0_255_01465)"><g><rect x="7" y="7" width="18" height="18" rx="0" fill-opacity="0.009999999776482582"/></g><g><path d="M13.588127499999999,9.331092L15.5581175,7.894077Q15.6059475,7.859186,15.6586675,7.832232Q15.711377500000001,7.805278,15.7676675,7.786928Q15.823957499999999,7.768579,15.8824375,7.75929Q15.9409075,7.75,16.0001075,7.75Q16.0593175,7.75,16.1177875,7.75929Q16.1762575,7.768579,16.2325575,7.786928Q16.2888475,7.805278,16.3415575,7.832232Q16.394267499999998,7.859186,16.4421075,7.894077L18.4120875,9.331092L17.9700975,9.93701L17.968667500000002,9.187016L20.4070875,9.182374Q20.4662875,9.182261,20.524787500000002,9.191439Q20.5832875,9.200618,20.639587499999998,9.21886Q20.695887499999998,9.237102,20.748687500000003,9.263956Q20.8014875,9.290809,20.8493875,9.32561Q20.8971875,9.36041,20.9390875,9.402295Q20.9808875,9.44418,21.0156875,9.492111Q21.0503875,9.54004,21.0772875,9.59283Q21.1040875,9.64563,21.122187500000003,9.70197L21.8712875,12.02248L21.157587499999998,12.25289L21.5972875,11.64529L23.5726875,13.07479Q23.620687500000003,13.1095,23.6625875,13.151299999999999Q23.7044875,13.19311,23.7393875,13.24097Q23.7741875,13.28884,23.8010875,13.34158Q23.8279875,13.39432,23.846287500000003,13.45062Q23.8645875,13.50693,23.873887500000002,13.56541Q23.883087500000002,13.623899999999999,23.8829875,13.6831Q23.8829875,13.74231,23.8735875,13.80077Q23.8642875,13.85923,23.8458875,13.915510000000001L23.0879875,16.23312L22.3750875,16L23.0879875,15.76688L23.8458875,18.084490000000002Q23.8642875,18.14077,23.8735875,18.19923Q23.8829875,18.2577,23.8829875,18.3169Q23.883087500000002,18.37611,23.873887500000002,18.43459Q23.8645875,18.49307,23.846287500000003,18.5494Q23.8279875,18.6057,23.8010875,18.6584Q23.7741875,18.711199999999998,23.7393875,18.759Q23.7044875,18.8069,23.6625875,18.8487Q23.620687500000003,18.8905,23.5726875,18.9252L21.5972875,20.3547L21.157587499999998,19.7471L21.8712875,19.9775L21.122187500000003,22.298000000000002Q21.1040875,22.3544,21.0772875,22.4072Q21.0503875,22.459899999999998,21.0156875,22.5079Q20.9808875,22.555799999999998,20.9390875,22.5977Q20.897287499999997,22.6396,20.8493875,22.6744Q20.8014875,22.7092,20.748687500000003,22.736Q20.695887499999998,22.762900000000002,20.639587499999998,22.781100000000002Q20.5832875,22.7994,20.524787500000002,22.808500000000002Q20.4662875,22.817700000000002,20.4070875,22.8176L17.9686775,22.813000000000002L17.9700975,22.063000000000002L18.4120875,22.6689L16.4420975,24.1059Q16.394267499999998,24.1408,16.3415575,24.1678Q16.2888375,24.194699999999997,16.2325475,24.2131Q16.1762575,24.2314,16.1177875,24.2407Q16.0593175,24.25,16.0001075,24.25Q15.9409075,24.25,15.8824375,24.2407Q15.823957499999999,24.2314,15.7676675,24.2131Q15.711377500000001,24.194699999999997,15.6586675,24.1678Q15.605957499999999,24.1408,15.5581175,24.1059L13.5881375,22.6689L14.030127499999999,22.063000000000002L14.0315475,22.813000000000002L11.5931475,22.8176Q11.5339375,22.817700000000002,11.4754475,22.808500000000002Q11.4169575,22.7994,11.3606375,22.781100000000002Q11.3043075,22.762900000000002,11.251547500000001,22.736Q11.1987775,22.7092,11.1508775,22.6744Q11.1029875,22.6396,11.061137500000001,22.5977Q11.0192975,22.555799999999998,10.9845375,22.5079Q10.9497875,22.459899999999998,10.9229875,22.4072Q10.8961775,22.3544,10.8779875,22.298000000000002L10.1288875,19.9775L10.8426275,19.7471L10.4029375,20.3547L8.4275045,18.9252Q8.3795395,18.8905,8.3376155,18.8487Q8.2956905,18.8069,8.2608445,18.759Q8.2259985,18.711199999999998,8.1990945,18.6584Q8.1721905,18.6057,8.1538945,18.5494Q8.1355995,18.49307,8.1263655,18.43459Q8.1171315,18.37611,8.1171875,18.3169Q8.1172445,18.25769,8.1265895,18.19923Q8.1359355,18.14077,8.1543385,18.084490000000002L8.9122618,15.76688L9.6251115,16L8.9122618,16.23312L8.1543385,13.915510000000001Q8.1359355,13.85924,8.1265895,13.80077Q8.1172445,13.74231,8.1171875,13.6831Q8.1171315,13.623899999999999,8.1263655,13.56541Q8.1355995,13.50693,8.1538945,13.45062Q8.1721905,13.39432,8.1990945,13.34158Q8.2259985,13.28884,8.2608445,13.24097Q8.2956905,13.19311,8.3376155,13.151299999999999Q8.3795395,13.1095,8.4275045,13.07479L10.4029375,11.64529L10.8426275,12.25289L10.1288875,12.02248L10.8779875,9.70197Q10.8961775,9.64563,10.9229875,9.59283Q10.9497875,9.54004,10.9845375,9.492111Q11.0192975,9.44418,11.061137500000001,9.402295Q11.1029875,9.36041,11.1508875,9.32561Q11.1987875,9.290809,11.251547500000001,9.263956Q11.3043175,9.237102,11.3606375,9.21886Q11.4169675,9.200618,11.475457500000001,9.191439Q11.5339475,9.182261,11.5931475,9.182374L14.0315475,9.187016L14.030127499999999,9.93701L13.588127499999999,9.331092ZM14.4721175,10.54294Q14.273967500000001,10.68748,14.0286975,10.68701L11.5902975,10.68237L11.591727500000001,9.93237L12.3054575,10.16278L11.5563575,12.48329Q11.4810075,12.7167,11.2823075,12.86049L9.3068705,14.28999L8.8671875,13.68239L9.5800365,13.44927L10.3379575,15.76688Q10.4141975,16,10.3379575,16.23312L9.5800365,18.5507L8.8671875,18.317610000000002L9.3068705,17.71001L11.2823075,19.139499999999998Q11.4810075,19.2833,11.5563575,19.5167L12.3054575,21.8372L11.591727500000001,22.0676L11.5903075,21.3176L14.0287075,21.313000000000002Q14.273967500000001,21.3125,14.4721175,21.4571L16.4420975,22.8941L16.0001075,23.5L15.5581175,22.8941L17.5281075,21.4571Q17.7262575,21.3125,17.971517499999997,21.313000000000002L20.4098875,21.3176L20.4084875,22.0676L19.6947875,21.8372L20.443887500000002,19.5167Q20.5191875,19.2833,20.7178875,19.139499999999998L22.6933875,17.71001L23.1329875,18.317610000000002L22.4201875,18.5507L21.662287499999998,16.23312Q21.5859875,16,21.662287499999998,15.76688L22.4201875,13.44927L23.1329875,13.68239L22.6933875,14.28999L20.7178875,12.86049Q20.5191875,12.7167,20.443887500000002,12.48329L19.6947875,10.16278L20.4084875,9.93237L20.4098875,10.68237L17.9715275,10.68701Q17.7262575,10.68748,17.5281075,10.54294L15.5581175,9.105923L16.0001075,8.5L16.4421075,9.105923L14.4721175,10.54294Z" fill-opacity="1"/></g><g><path d="M19.53033,14.65533L15.78033,18.40533Q15.7281,18.45756,15.66668,18.4986Q15.60526,18.53964,15.53701,18.56791Q15.46877,18.59618,15.39632,18.610590000000002Q15.32387,18.625,15.25,18.625Q15.17613,18.625,15.10368,18.610590000000002Q15.03123,18.59618,14.96299,18.56791Q14.89474,18.53964,14.83332,18.4986Q14.7719,18.45756,14.71967,18.40533L12.84467,16.53033Q12.792437,16.4781,12.751398,16.41668Q12.710359,16.35526,12.68209,16.28701Q12.653822,16.21877,12.639410999999999,16.14632Q12.625,16.07387,12.625,16Q12.625,15.92613,12.639410999999999,15.85368Q12.653822,15.78123,12.68209,15.71299Q12.710359,15.64474,12.751398,15.58332Q12.792437,15.5219,12.84467,15.46967Q12.896903,15.41744,12.958322,15.3764Q13.019742,15.33536,13.087987,15.30709Q13.156233,15.27882,13.228682,15.26441Q13.3011315,15.25,13.375,15.25Q13.4488685,15.25,13.521318,15.26441Q13.593767,15.27882,13.662013,15.30709Q13.730258,15.33536,13.791678,15.3764Q13.853097,15.41744,13.90533,15.46967L15.78033,17.34467L15.25,17.875L14.71967,17.34467L18.46967,13.59467Q18.5219,13.542437,18.58332,13.501398Q18.64474,13.460359,18.712989999999998,13.43209Q18.78123,13.403822,18.85368,13.389410999999999Q18.92613,13.375,19,13.375Q19.07387,13.375,19.14632,13.389410999999999Q19.21877,13.403822,19.287010000000002,13.43209Q19.35526,13.460359,19.41668,13.501398Q19.4781,13.542437,19.53033,13.59467Q19.58256,13.646903,19.6236,13.708322Q19.66464,13.769742,19.69291,13.837987Q19.72118,13.906233,19.735590000000002,13.978682Q19.75,14.0511315,19.75,14.125Q19.75,14.1988685,19.735590000000002,14.271318Q19.72118,14.343767,19.69291,14.412013Q19.66464,14.480258,19.6236,14.541678Q19.58256,14.603097,19.53033,14.65533ZM19.75,14.125Q19.75,14.1988685,19.735590000000002,14.271318Q19.72118,14.343767,19.69291,14.412013Q19.66464,14.480258,19.6236,14.541678Q19.58256,14.603097,19.53033,14.65533Q19.4781,14.707563,19.41668,14.748602Q19.35526,14.789641,19.287010000000002,14.81791Q19.21877,14.846178,19.14632,14.860589000000001Q19.07387,14.875,19,14.875Q18.92613,14.875,18.85368,14.860589000000001Q18.78123,14.846178,18.712989999999998,14.81791Q18.64474,14.789641,18.58332,14.748602Q18.5219,14.707563,18.46967,14.65533Q18.41744,14.603097,18.3764,14.541678Q18.33536,14.480258,18.30709,14.412013Q18.27882,14.343767,18.264409999999998,14.271318Q18.25,14.1988685,18.25,14.125Q18.25,14.0511315,18.264409999999998,13.978682Q18.27882,13.906233,18.30709,13.837987Q18.33536,13.769742,18.3764,13.708322Q18.41744,13.646903,18.46967,13.59467Q18.5219,13.542437,18.58332,13.501398Q18.64474,13.460359,18.712989999999998,13.43209Q18.78123,13.403822,18.85368,13.389410999999999Q18.92613,13.375,19,13.375Q19.07387,13.375,19.14632,13.389410999999999Q19.21877,13.403822,19.287010000000002,13.43209Q19.35526,13.460359,19.41668,13.501398Q19.4781,13.542437,19.53033,13.59467Q19.58256,13.646903,19.6236,13.708322Q19.66464,13.769742,19.69291,13.837987Q19.72118,13.906233,19.735590000000002,13.978682Q19.75,14.0511315,19.75,14.125ZM14.125,16Q14.125,16.07387,14.110589000000001,16.14632Q14.096178,16.21877,14.06791,16.28701Q14.039641,16.35526,13.998602,16.41668Q13.957563,16.4781,13.90533,16.53033Q13.853097,16.58256,13.791678,16.6236Q13.730258,16.66464,13.662013,16.69291Q13.593767,16.72118,13.521318,16.735590000000002Q13.4488685,16.75,13.375,16.75Q13.3011315,16.75,13.228682,16.735590000000002Q13.156233,16.72118,13.087987,16.69291Q13.019742,16.66464,12.958322,16.6236Q12.896903,16.58256,12.84467,16.53033Q12.792437,16.4781,12.751398,16.41668Q12.710359,16.35526,12.68209,16.28701Q12.653822,16.21877,12.639410999999999,16.14632Q12.625,16.07387,12.625,16Q12.625,15.92613,12.639410999999999,15.85368Q12.653822,15.78123,12.68209,15.71299Q12.710359,15.64474,12.751398,15.58332Q12.792437,15.5219,12.84467,15.46967Q12.896903,15.41744,12.958322,15.3764Q13.019742,15.33536,13.087987,15.30709Q13.156233,15.27882,13.228682,15.26441Q13.3011315,15.25,13.375,15.25Q13.4488685,15.25,13.521318,15.26441Q13.593767,15.27882,13.662013,15.30709Q13.730258,15.33536,13.791678,15.3764Q13.853097,15.41744,13.90533,15.46967Q13.957563,15.5219,13.998602,15.58332Q14.039641,15.64474,14.06791,15.71299Q14.096178,15.78123,14.110589000000001,15.85368Q14.125,15.92613,14.125,16Z" fill-opacity="1"/></g></g></g></svg>